/* XPM */
static const char *addgroup[]={
"16 16 103 2",
"   c #000100010001",
".  c #020202020202",
"X  c gray8",
"o  c #1E1E1E1E1E1E",
"O  c #202021212121",
"+  c #282828282828",
"@  c gray16",
"#  c gray17",
"$  c gray18",
"%  c #2F2F2F2F2F2F",
"&  c #323232323232",
"*  c #3A3A38383535",
"=  c #393939393939",
"-  c #3E3E3E3E3E3E",
";  c #3F3F3F3F3F3F",
":  c #00003C3C5B5B",
">  c #00003D3D5A5A",
",  c gray25",
"<  c #444444444444",
"1  c gray27",
"2  c #464646464646",
"3  c #484848484848",
"4  c gray31",
"5  c #585858585858",
"6  c #606060606060",
"7  c #6A6A69696969",
"8  c #6C6C6B6B6B6B",
"9  c #6E6E6D6D6D6D",
"0  c #727272727272",
"q  c gray46",
"w  c #0B0B54548282",
"e  c #0E0E5C5C8D8D",
"r  c #0E0E5E5E9191",
"t  c #00006B6B9E9E",
"y  c #0E0E65659797",
"u  c #0F0F65659696",
"i  c #0F0F66669898",
"p  c #07077070A1A1",
"a  c #08087373A5A5",
"s  c #10106C6CA1A1",
"d  c #11116F6FA0A0",
"f  c #11117272A4A4",
"g  c #11117575A4A4",
"h  c #12127C7CADAD",
"j  c #12127F7FB1B1",
"k  c #27276C6C8C8C",
"l  c #28286C6C8F8F",
"z  c #29296C6C8E8E",
"x  c #272768689292",
"c  c #6666FFFF3333",
"v  c #07078484B2B2",
"b  c #07078787B6B6",
"n  c #13138080B2B2",
"m  c #16169A9ACBCB",
"M  c #1919AFAFEEEE",
"N  c #3838A2A2C5C5",
"B  c #3A3AA3A3C5C5",
"V  c #3C3CB9B9EDED",
"C  c #5757A1A1C0C0",
"Z  c #5858AEAECDCD",
"A  c #5656B0B0CDCD",
"S  c #5D5DB1B1D0D0",
"D  c #7070B8B8D3D3",
"F  c #7272B9B9D4D4",
"G  c #7676BBBBD5D5",
"H  c #7777BCBCD6D6",
"J  c #7979BFBFD6D6",
"K  c #9D9D9D9D9D9D",
"L  c #8181A0A0B0B0",
"P  c #8888A6A6B5B5",
"I  c #8A8AA9A9B9B9",
"U  c #A4A4A4A4A4A4",
"Y  c #A7A7A7A7A7A7",
"T  c #AAAAAAAAAAAA",
"R  c #AEAEAEAEAEAE",
"E  c #AFAFAFAFAFAF",
"W  c gray69",
"Q  c gray71",
"!  c #B6B6B6B6B6B6",
"~  c #BBBBBBBBBBBB",
"^  c gray75",
"/  c #8181C2C2D8D8",
"(  c #8282C3C3D9D9",
")  c #8585C4C4D9D9",
"_  c #9191C9C9DBDB",
"`  c #C1C1BEBEBEBE",
"'  c #C5C5C5C5C5C5",
"]  c #C6C6C6C6C6C6",
"[  c #CBCBC9C9C8C8",
"{  c #CACACACACACA",
"}  c #CBCBCBCBCBCB",
"|  c gray80",
" . c gray82",
".. c #D5D5D5D5D5D5",
"X. c #D7D7D7D7D7D7",
"o. c #DBDBD7D7D6D6",
"O. c gainsboro",
"+. c #C1C1E1E1EDED",
"@. c #D3D3EDEDF6F6",
"#. c #E4E4E4E4E4E4",
"$. c #E9E9E9E9E9E9",
"%. c #EAEAEAEAEAEA",
"&. c None",
/* pixels */
"&.&.&.&.  3 &.&.&.&.&.&.&.&.&.&.",
"&.&.&.X } $.3 3 & &.&.&.&.&.&.&.",
"&.&.- t > q U } $.2   3 q . &.&.",
"&.&.+ +.@.J t > q U | #.$.%.  &.",
"&.&.O V B J +.@.) a : q U } $.2 ",
"&.&.o M b N S H ( +.@.) p > q 4 ",
"&.&.o m s h v b N A D _ +.@.J - ",
"&.&.+ n w r i s j b b N Z D +.; ",
"&.&.2     I z w e i g h v b D , ",
"&.&.1   c   %.o.L k w r i f C , ",
"        c c   O...X.{ P z w x , ",
"c c c c c c c    .| ' ^ ' ^ 9 2 ",
"c c c c c c c   { ' &.~ ! R 9 2 ",
"        c c   & 6 R ~ ! E T 8 2 ",
"&.&.&.  c   &.&.&.  $ 5 K T 7 = ",
"&.&.&.    &.&.&.&.&.&.&.  + * &."
};
