/* XPM */
static const char *arc[]={
"16 16 3 1",
"a c None",
". c None",
"# c #000000",
"................",
".....#####......",
"...##.....##....",
"..#.........#...",
".#...........#..",
".#...........#..",
"#.............#.",
"#.............#.",
"#.............#.",
"#....a........#.",
"a.............a.",
".a...........aa.",
".aa.........aa..",
"..aa......aaa...",
"...aaa....aa....",
".....aaaaaa....."};
