/* XPM */
static const char *canceldownload[]={
"22 22 107 2",
"Qt c None",
".c c #303030",
".l c #3a3a3a",
".h c #595959",
".# c #878787",
"#. c #888888",
".W c #898989",
".t c #8e8e8e",
".V c #979797",
".g c #999999",
".9 c #9a9a9a",
".8 c #9c9c9c",
".b c #a0a0a0",
".K c #a5a5a5",
".U c #acacac",
".S c #adadad",
".r c #afafaf",
".m c #b3b3b3",
".7 c #b50000",
".T c #b5b5b5",
".A c #b7b7b7",
".J c #bcbcbc",
".I c #c1c1c1",
".q c #c3c3c3",
".C c #c50802",
".M c #c6120e",
".B c #c7070a",
"#f c #c7181a",
".i c #c7c7c7",
"## c #c81719",
"#l c #c81b1a",
"#a c #c8201e",
"#g c #c8221f",
".D c #c90f01",
".N c #c91509",
".Z c #c91a1a",
".0 c #c92018",
"#m c #cb231d",
".L c #cc1818",
".Y c #cc181a",
".1 c #ce2716",
".p c #cecece",
".E c #cf1700",
"#h c #cf2e21",
".O c #d01c07",
"#t c #d02419",
"#b c #d2331f",
".z c #d2d2d2",
"#u c #d32818",
"#n c #d42d1d",
".x c #d4d4d4",
".2 c #d52b13",
".u c #d5d5d5",
".F c #d61e00",
".o c #d6d6d6",
".P c #d92505",
"#c c #d9361c",
".n c #d9d9d9",
"#v c #dc2d16",
"#o c #dd351e",
".3 c #de3110",
"#B c #df2d13",
"#A c #df3319",
".k c #dfdfdf",
".G c #e02500",
".Q c #e02804",
".y c #e0e0e0",
".s c #e2e2e2",
".4 c #e3310f",
".j c #e3e3e3",
".f c #e6e6e6",
".R c #e92b04",
"#G c #e9310e",
"#H c #ea2d0c",
".5 c #ea3612",
".e c #eaeaea",
"#C c #eb3213",
"#L c #ec3110",
"#d c #ec401f",
"#i c #ec4525",
"#I c #ee3213",
"#p c #ee4a2d",
".d c #eeeeee",
"#M c #ef3517",
"#D c #ef4328",
"#j c #ef4d2e",
"#N c #f04025",
"#J c #f04327",
"#O c #f14d35",
"#e c #f24827",
"#k c #f25436",
"#q c #f25437",
".6 c #f3421e",
"#r c #f35c41",
"#w c #f36046",
"#s c #f36146",
"#F c #f3634d",
"#E c #f3644d",
"#K c #f45a40",
"#x c #f4664c",
"#y c #f4674d",
".v c #fd9280",
"#z c #fd9885",
".H c #fe7759",
".X c #fe9988",
".w c #ff9a88",
".a c #ffffff",
"QtQtQtQtQtQtQtQtQtQtQtQtQtQtQtQt.#.a.bQtQtQt",
"QtQtQtQtQtQtQtQtQt.#.#.#QtQtQt.#.a.b.cQtQtQt",
"QtQtQtQtQtQtQtQt.#.a.a.a.#Qt.#.a.b.cQtQtQtQt",
"QtQtQtQtQtQtQt.#.a.d.e.f.a.#.a.b.cQtQtQtQtQt",
"QtQtQtQtQtQtQt.g.h.i.f.j.k.a.#.cQtQtQtQtQtQt",
"QtQtQtQtQtQtQt.l.g.h.m.kQt.n.a.hQtQtQtQtQtQt",
"QtQtQtQtQtQtQt.l.l.g.h.b.o.p.i.a.hQtQtQtQtQt",
"QtQtQt.hQtQtQt.l.h.l.g.h.g.q.r.q.hQtQtQtQtQt",
"QtQt.h.a.sQtQtQt.l.h.l.g.h.t.q.h.lQtQtQtQtQt",
"Qt.h.a.d.e.uQtQtQt.l.h.l.g.h.h.l.cQtQtQtQtQt",
"Qt.h.s.e.f.j.iQtQtQt.l.h.l.v.w.w.w.w.wQtQtQt",
"Qt.l.h.x.y.n.z.AQtQtQt.l.v.B.C.D.E.F.G.HQtQt",
"Qt.l.l.h.I.p.i.J.KQtQt.v.L.M.N.N.O.P.Q.R.HQt",
"Qt.c.l.q.h.S.T.U.V.W.X.Y.Z.0.1.1.2.3.4.5.6.7",
"QtQt.l.a.b.h.8.9#..h.w###a.a.a#b#c.a.a#d#e.7",
"Qt.h.a.b.h.l.h.#.h.l.w#f#g#h.a.a.a.a#i#j#k.7",
".h.a.b.c.c.l.l.h.l.c.w#l#m#n#o.a.a#p#q#r#s.7",
".a.b.cQtQt.c.l.l.cQt.w#t#u#v.a.a.a.a#w#x#y.7",
".b.cQtQtQtQtQtQtQtQt#z#A#B.a.a#C#D.a.a#E#F.7",
".cQtQtQtQtQtQtQtQtQtQt.H#G#H#I#I#J#K#E#E.7Qt",
"QtQtQtQtQtQtQtQtQtQtQtQt.H#L#M#N#O#E#E.7QtQt",
"QtQtQtQtQtQtQtQtQtQtQtQtQt.H.7.7.7.7.7QtQtQt"};
