/* XPM */
static const char *co[]={
"22 22 130 2",
"  	c None",
". 	c #FFD79B",
"+ 	c #F0BD81",
"@ 	c #C27B3F",
"# 	c #FFA633",
"$ 	c #FCA844",
"% 	c #E8AC6F",
"& 	c #CA884C",
"* 	c #F0932A",
"= 	c #F3BF87",
"- 	c #DC9E6A",
"; 	c #C4814C",
"> 	c #C08858",
", 	c #C38B5B",
"' 	c #CC9466",
") 	c #F8BF9F",
"! 	c #D49F79",
"~ 	c #8D5C28",
"{ 	c #AA733B",
"] 	c #B9814F",
"^ 	c #C48C5E",
"/ 	c #C38A5B",
"( 	c #D3996D",
"_ 	c #E5B896",
": 	c #E2C1A5",
"< 	c #93622F",
"[ 	c #50361C",
"} 	c #825A33",
"| 	c #C38854",
"1 	c #C48A5A",
"2 	c #C28857",
"3 	c #D8A77F",
"4 	c #EEC7AA",
"5 	c #C8A17C",
"6 	c #A4794C",
"7 	c #000000",
"8 	c #3D2813",
"9 	c #9B6939",
"0 	c #BE8655",
"a 	c #C38A59",
"b 	c #CF986C",
"c 	c #FFDEC7",
"d 	c #C49A73",
"e 	c #96622E",
"f 	c #120500",
"g 	c #38210D",
"h 	c #A26E3C",
"i 	c #C08755",
"j 	c #C58B5B",
"k 	c #C48B5C",
"l 	c #CE986C",
"m 	c #F2BA98",
"n 	c #DDA681",
"o 	c #8A5823",
"p 	c #1E0D00",
"q 	c #462A11",
"r 	c #926337",
"s 	c #C38954",
"t 	c #C68C5C",
"u 	c #C58B5A",
"v 	c #C48B68",
"w 	c #CA9B80",
"x 	c #D6B494",
"y 	c #D29F72",
"z 	c #100200",
"A 	c #583717",
"B 	c #936337",
"C 	c #C18755",
"D 	c #C28957",
"E 	c #AB734A",
"F 	c #C19174",
"G 	c #FFE0CA",
"H 	c #E5BA98",
"I 	c #D6A77E",
"J 	c #120300",
"K 	c #4B2D13",
"L 	c #A16E3B",
"M 	c #B27B49",
"N 	c #BA8250",
"O 	c #CE9366",
"P 	c #EEB492",
"Q 	c #F8DAC9",
"R 	c #E5BE9F",
"S 	c #D29A6A",
"T 	c #1B1509",
"U 	c #2F2411",
"V 	c #764A1F",
"W 	c #855323",
"X 	c #976333",
"Y 	c #C68E5E",
"Z 	c #FACFB0",
"` 	c #F9C7A8",
" .	c #E8AC88",
"..	c #1A170B",
"+.	c #916033",
"@.	c #805020",
"#.	c #75471A",
"$.	c #98653D",
"%.	c #D19D73",
"&.	c #F3BE9B",
"*.	c #F9C4A4",
"=.	c #DEA575",
"-.	c #C18856",
";.	c #8C5C2B",
">.	c #70441B",
",.	c #895837",
"'.	c #9B6635",
").	c #CB9870",
"!.	c #E8B99B",
"~.	c #CA9B71",
"{.	c #B37C4B",
"].	c #7B4E1D",
"^.	c #8A5831",
"/.	c #A6775C",
"(.	c #8F7B64",
"_.	c #6E5441",
":.	c #5D4E45",
"<.	c #3A342A",
"[.	c #7F7565",
"}.	c #383938",
"|.	c #060604",
"1.	c #6C6355",
"2.	c #9E917E",
"3.	c #606060",
"4.	c #6A6A6A",
"5.	c #504A3F",
"6.	c #7E7462",
"7.	c #5F5F5F",
"8.	c #5C5C5C",
"9.	c #616161",
"          . + @                             ",
"          # $ % &                           ",
"            * = - ;                         ",
"          > , ' ) ! ~                       ",
"        { ] ^ / ( _ : <                     ",
"        [ } | 1 2 3 4 5 6                   ",
"        7 8 9 0 a 2 b c d e                 ",
"          f g h i j k l m n o               ",
"            p q r s t u v w x y             ",
"              z A B C D E F G H I           ",
"                J K L M N O P Q R S         ",
"                  T U V W X Y Z `  .        ",
"                    ..+.@.#.$.%.&.*.=.      ",
"                      -.;.>.,.'.).!.~.      ",
"                            {.].^./.(.      ",
"                                _.:.<.[.    ",
"                                  }.|.1.2.  ",
"        3.4.  7 7 7 7 7 7 7 7 7     7 5.6.  ",
"      3.7.3.8.                              ",
"    3.7.7.7.9.4.                            ",
"  3.3.3.3.7.3.7.                            ",
"7.3.3.7.3.7.7.3.7.3.3.3.3.3.3.3.3.7.7.      "};
