/* XPM */
static const char *configure[]={
"22 22 151 2",
"  	c None",
". 	c #000000",
"+ 	c #292929",
"@ 	c #565656",
"# 	c #363636",
"$ 	c #757575",
"% 	c #8F8F8F",
"& 	c #7A7A7A",
"* 	c #646464",
"= 	c #222222",
"- 	c #343434",
"; 	c #6C6C6C",
"> 	c #868686",
", 	c #C3C3C3",
"' 	c #CCCCCC",
") 	c #B4B4B4",
"! 	c #C7C7C7",
"~ 	c #686868",
"{ 	c #252525",
"] 	c #272727",
"^ 	c #1E1E1E",
"/ 	c #B1B1B1",
"( 	c #8C8C8C",
"_ 	c #626262",
": 	c #6E6E6E",
"< 	c #CFCFCF",
"[ 	c #D7D7D7",
"} 	c #C2C2C2",
"| 	c #9E9E9E",
"1 	c #1A1A1A",
"2 	c #202020",
"3 	c #0B0B0B",
"4 	c #4F4F4F",
"5 	c #B6B6B6",
"6 	c #7C7C7C",
"7 	c #B5B5B5",
"8 	c #E1E1E1",
"9 	c #B8B8B8",
"0 	c #151515",
"a 	c #4B4B4B",
"b 	c #797979",
"c 	c #575757",
"d 	c #080808",
"e 	c #5C5C5C",
"f 	c #505050",
"g 	c #A9A9A9",
"h 	c #E8E8E8",
"i 	c #CECECE",
"j 	c #676767",
"k 	c #ADADAD",
"l 	c #FFFFFF",
"m 	c #D1D1D1",
"n 	c #424242",
"o 	c #181818",
"p 	c #1D1D1D",
"q 	c #636363",
"r 	c #B9B9B9",
"s 	c #E5E5E5",
"t 	c #DCDCDC",
"u 	c #C4C4C4",
"v 	c #A0A0A0",
"w 	c #EAEAEA",
"x 	c #DADADA",
"y 	c #D3D3D3",
"z 	c #979797",
"A 	c #5A5A5A",
"B 	c #D5D5D5",
"C 	c #DFDFDF",
"D 	c #DBDBDB",
"E 	c #C9C9C9",
"F 	c #515151",
"G 	c #464646",
"H 	c #B2B2B2",
"I 	c #ECECEC",
"J 	c #CACACA",
"K 	c #999999",
"L 	c #A8A8A8",
"M 	c #B7B7B7",
"N 	c #C1C1C1",
"O 	c #9A9A9A",
"P 	c #595959",
"Q 	c #0F0F0F",
"R 	c #ACACAC",
"S 	c #BEBEBE",
"T 	c #F8F8F8",
"U 	c #F9F9F9",
"V 	c #F5F5F5",
"W 	c #EFEFEF",
"X 	c #CBCBCB",
"Y 	c #9F9F9F",
"Z 	c #3B3B3B",
"` 	c #2A2A2A",
" .	c #BABABA",
"..	c #E7E7E7",
"+.	c #666666",
"@.	c #707070",
"#.	c #F6F6F6",
"$.	c #E0E0E0",
"%.	c #DDDDDD",
"&.	c #C5C5C5",
"*.	c #CDCDCD",
"=.	c #C0C0C0",
"-.	c #ABABAB",
";.	c #6B6B6B",
">.	c #060606",
",.	c #808080",
"'.	c #E4E4E4",
").	c #6A6A6A",
"!.	c #828282",
"~.	c #A2A2A2",
"{.	c #BDBDBD",
"].	c #D8D8D8",
"^.	c #EEEEEE",
"/.	c #DEDEDE",
"(.	c #D2D2D2",
"_.	c #A5A5A5",
":.	c #454545",
"<.	c #AFAFAF",
"[.	c #9C9C9C",
"}.	c #7B7B7B",
"|.	c #878787",
"1.	c #A7A7A7",
"2.	c #FAFAFA",
"3.	c #C8C8C8",
"4.	c #BBBBBB",
"5.	c #6D6D6D",
"6.	c #8E8E8E",
"7.	c #D4D4D4",
"8.	c #989898",
"9.	c #777777",
"0.	c #E3E3E3",
"a.	c #616161",
"b.	c #F4F4F4",
"c.	c #161616",
"d.	c #1F1F1F",
"e.	c #141414",
"f.	c #F3F3F3",
"g.	c #888888",
"h.	c #787878",
"i.	c #A4A4A4",
"j.	c #D6D6D6",
"k.	c #A6A6A6",
"l.	c #848484",
"m.	c #AEAEAE",
"n.	c #656565",
"o.	c #9B9B9B",
"p.	c #050505",
"q.	c #010101",
"r.	c #373737",
"s.	c #404040",
"t.	c #3C3C3C",
"        . . . . . . . .                     ",
"        . + @ # $ % & * = . .               ",
"        . - ; > , ' ) ! ~ { ]               ",
"            ^ / ( _ : < [ } | 1 .           ",
". . . .       2 3 4 5 6 7 8 9 0             ",
". a b c d         + e f g h i j ]           ",
". k l m n o p       3 q r s t u a .         ",
". v l w x y z . - A j ) B C D E F .         ",
". G H l l I J K L M N B x C s ' O P . .     ",
"Q _ R S M B T U V W h 8 8 C [ X ! Y Z # `   ",
"]  ...+.@. .#.$.$.x m B 8 %.&.i *.=.-.7 ;.>.",
". ,.'.D U H q ; ).@.!.~.{.].^./.(.E =. ._.( ",
"  - :.P B %.<._.[.[.[.!.}.|.1.W 2.'.(.3.=.4.",
"    . . 5.O Y 6.) 7.m 8.!.9.& } y (.I 0.B J ",
"        . . . . ;.S [ N =.r v 5.a.% T b.'.t ",
"                c.d.{ = e.A f.$./ g.h.}. .l ",
"                  . . .   ] $ ).i.j.k.l.6.m.",
"                            . . n.*.r  .o.@.",
"                                p.q.. <.U t ",
"                                      r.s.t.",
"                                        . . ",
"                                            "};
