/* XPM */
static const char *datawindow[]={
"22 22 173 2",
"Qt c None",
"aD c #103b95",
"aE c #143c93",
"aI c #153d95",
"aJ c #184192",
"aC c #1a4292",
"aB c #26498f",
"aK c #284a8f",
".V c #2d70af",
".H c #2e8ad3",
"#M c #3071b1",
"aO c #31528c",
"aH c #324e74",
"aF c #324f83",
"aQ c #3270aa",
"aP c #33476a",
"aL c #384156",
"#U c #3978b3",
"aM c #3b5664",
".U c #3c5d72",
"ay c #3f7fb7",
"#8 c #427eb5",
"ar c #474840",
".9 c #484941",
"av c #4a4639",
"#t c #4d4538",
"#p c #4e4639",
"#g c #50483b",
"aG c #50534d",
"at c #524939",
".B c #524d44",
"am c #528bbb",
"aq c #545447",
".4 c #564f42",
"ad c #584d3e",
".Q c #5a5449",
"aw c #5b5d52",
"as c #5d503e",
"af c #60533f",
"ax c #606051",
"aA c #616153",
"aN c #616f74",
"au c #635542",
"#2 c #645d52",
"ap c #646455",
"ab c #666b64",
"#1 c #696257",
"aj c #69695a",
"ac c #6b675d",
"ai c #6d6d5d",
"aa c #6d7167",
"ag c #6e6553",
"#3 c #6e6d62",
"ah c #707060",
"ao c #717163",
"#4 c #717167",
"ak c #7a7a6b",
"az c #7e7e6f",
"#H c #898986",
"#0 c #8a7e69",
"#Z c #8a8378",
"#5 c #8a8a7f",
".f c #8b7e68",
"#y c #8c867c",
"#w c #8e846e",
"#s c #8f846f",
"#o c #8f856f",
"#q c #8f8776",
".R c #8f8a80",
"#I c #8f8e8b",
"#f c #908670",
"#u c #918876",
".3 c #928772",
"#h c #928b7c",
"#Q c #92928f",
"a# c #929484",
".n c #938c7d",
"#P c #93918c",
"ae c #958a74",
".5 c #969081",
".P c #978e7a",
".C c #979183",
"#Y c #98998f",
"an c #99998c",
"#E c #999994",
"#R c #9d9c99",
"#J c #9e9e99",
"#D c #a1a09c",
"al c #a1a195",
"#x c #a8a7a3",
".e c #a9a499",
".E c #a9a8a4",
"#S c #a9a9a4",
"#n c #aaa497",
".2 c #aaa498",
"#v c #aba498",
".A c #b2a994",
".s c #b6b6af",
".m c #b7af9d",
"#X c #b7b7ab",
".Y c #b7b7b1",
"#z c #b8b7b3",
"a. c #b9b9ad",
"#C c #bab9b3",
"#. c #bcbcb6",
".7 c #bdbdb7",
".q c #bebdb8",
".F c #bebeb8",
"#B c #bfbeb9",
".z c #c0b8a6",
".6 c #c0b9ab",
"## c #c0c0ba",
"#K c #c1c1bb",
".D c #c2bbad",
"#d c #c2bfbb",
".t c #c4c4bd",
"#6 c #c4c4be",
".o c #c5c0b2",
".O c #c7c0b1",
".N c #c7c5bf",
"#T c #c7c7c1",
"#e c #c8c1b2",
".I c #c8ccd2",
"#r c #c9c1b2",
".S c #c9c8c3",
".X c #c9c9c2",
".g c #cac6b9",
".1 c #cac8c3",
"#k c #ccccc6",
".l c #cdc8bf",
"#c c #cdcdc9",
".M c #cfcfcd",
"#b c #d0d0cb",
".d c #d1d1ca",
".u c #d2d2cb",
"#i c #d2d2d2",
".p c #d3d3d3",
"#W c #d4d4c8",
".i c #d4d4cd",
".L c #d4d4cf",
".y c #d5d3cc",
".Z c #d5d5d0",
".8 c #d6d6cf",
"#l c #d7d6d2",
".T c #d7d7d0",
".j c #d8d7d1",
"#L c #d8d8d1",
".r c #d9d8d2",
"#a c #d9d9d3",
"#9 c #dbdbd3",
"#V c #dfdfd8",
"#7 c #dfdfd9",
".K c #e0e0d9",
".b c #e1dfd7",
"#N c #e1e1db",
"#O c #e3e0db",
"#G c #e4e1dc",
".G c #e6e5e0",
"#j c #e7e6e1",
"#m c #e7e7e2",
".# c #e8e7e1",
".h c #e8e8e1",
".0 c #e8e8e3",
".v c #e9e9e2",
".k c #eaeae3",
".c c #ecebe5",
".J c #efeee9",
".W c #f0efea",
".w c #f0f0ea",
".x c #f2f1ec",
"#A c #f3f3ec",
"#F c #f8f8f3",
".a c #ffffff",
"QtQtQtQtQtQtQtQtQtQtQtQtQt.#.a.#.#QtQtQtQtQt",
"QtQtQtQtQtQtQtQtQtQtQtQt.b.c.a.#.#QtQtQtQtQt",
"QtQtQtQtQtQt.d.e.fQtQtQt.g.h.a.#.#QtQtQtQtQt",
"QtQtQtQt.i.j.k.l.m.fQt.n.o.#.p.q.r.sQtQtQtQt",
"QtQt.t.u.v.w.x.y.z.A.B.C.D.E.a.#.#.F.G.HQtQt",
"Qt.I.J.K.K.L.M.N.O.P.Q.C.R.S.p.q.r.F.T.UQtQt",
".V.W.K.X.Y.Z.0.1.2.3.4.5.6.E.a.#.#.7.8.9QtQt",
".V.W#.###a#b#c#d#e#f#g#h.R.S#i.q.r.7.8.9.HQt",
".V#j#k.X.Y#l#m.1#n#o#p#q.6.E.a.#.#.7.8.9.HQt",
".V.W#.###a#b#c#d#r#s#t#u.R.S#i.q.r.7.8.9.HQt",
".V#j#k.X.Y#l#m.1#v#w#t#u.6#x.a.#.#.7.8.9.HQt",
".V.W#.###a#b#c#d#r#w#t#u#y#z#A.##B.7.8.9.HQt",
".V#j#k.X.Y#l#m.1#v#w#t#u.6.##C#D#E.F.T.9.HQt",
".V.W#.###a.W#F#G#r#w#t#u.6.##H#I#J#K#L.9.HQt",
"#M#j#k.K#N.w#F#O#r#s#t#u.6#P#Q#R#S#T#a.9.HQt",
"#U.W.K#V#W#X#Y#Z#0#w#t#u#1#2#3#4#5#6#7.9.HQt",
"#8.W#9a.a#aaabacad#w#taeafagahaiajakal.9.HQt",
"amanaoapaq.9.9.9arasatau.9.9.9.9avawax.9QtQt",
"ayazaA.9.9aBaCaDaEaFaGaHaIaDaJaKaL.9.9aMQtQt",
".Vai.9aNaOaOQtQtQtQtaPaDQtQtQtaOaOQtQtaQ.HQt",
".V.V.V.VQtQtQtQtQtQtQtQtQtQtQtQtQtQtQtQtQtQt",
"QtQtQtQtQtQtQtQtQtQtQtQtQtQtQtQtQtQtQtQtQtQt"};
