/* XPM */
static const char *date[]={
"22 22 215 2",
"  	c None",
". 	c #3D2D00",
"+ 	c #453101",
"@ 	c #402901",
"# 	c #3B2102",
"$ 	c #371B03",
"% 	c #321403",
"& 	c #2E0D04",
"* 	c #290704",
"= 	c #957100",
"- 	c #B57803",
"; 	c #B65F08",
"> 	c #AC5009",
", 	c #AD5209",
"' 	c #B25908",
") 	c #B45C08",
"! 	c #B15808",
"~ 	c #9E3F0A",
"{ 	c #4F0809",
"] 	c #1F0004",
"^ 	c #000000",
"/ 	c #AD7103",
"( 	c #9E3E12",
"_ 	c #8D220E",
": 	c #952E0C",
"< 	c #A5460A",
"[ 	c #B55D08",
"} 	c #C37206",
"| 	c #D18704",
"1 	c #D69004",
"2 	c #A55607",
"3 	c #220005",
"4 	c #200503",
"5 	c #A26F20",
"6 	c #942F16",
"7 	c #AC5B3E",
"8 	c #CE9A77",
"9 	c #DBAF82",
"0 	c #D69E50",
"a 	c #D69312",
"b 	c #C67E04",
"c 	c #594200",
"d 	c #8B6C1D",
"e 	c #57483E",
"f 	c #F7EFEC",
"g 	c #FDFAF9",
"h 	c #FEFDFB",
"i 	c #FCF7F0",
"j 	c #999181",
"k 	c #8F5804",
"l 	c #020200",
"m 	c #8A6C1D",
"n 	c #4E4A43",
"o 	c #FFFFFF",
"p 	c #8F8F8F",
"q 	c #885303",
"r 	c #141414",
"s 	c #3D3D3D",
"t 	c #686868",
"u 	c #323232",
"v 	c #8A6B1D",
"w 	c #191919",
"x 	c #383838",
"y 	c #464646",
"z 	c #808080",
"A 	c #1B1B1B",
"B 	c #222222",
"C 	c #828282",
"D 	c #868686",
"E 	c #888888",
"F 	c #B0B0B0",
"G 	c #D2D2D2",
"H 	c #DFDFDF",
"I 	c #9F9F9F",
"J 	c #3E3E3E",
"K 	c #25221B",
"L 	c #B8B565",
"M 	c #FAF569",
"N 	c #E1DD63",
"O 	c #BAB865",
"P 	c #353535",
"Q 	c #2F2F2F",
"R 	c #C7C7C7",
"S 	c #EBEBEB",
"T 	c #BEBEBE",
"U 	c #474747",
"V 	c #0F0C03",
"W 	c #6A6718",
"X 	c #ECE634",
"Y 	c #E2DD57",
"Z 	c #9E9D8B",
"` 	c #444444",
" .	c #FFEAEA",
"..	c #FF6F6F",
"+.	c #FF5050",
"@.	c #FF8989",
"#.	c #FFF4F4",
"$.	c #555555",
"%.	c #120E04",
"&.	c #6E6C34",
"*.	c #A4A387",
"=.	c #7C7C7C",
"-.	c #FF3D3D",
";.	c #FF7878",
">.	c #FF6969",
",.	c #FF0E0E",
"'.	c #FFC7C7",
").	c #6F6F63",
"!.	c #A5A488",
"~.	c #EFEFEF",
"{.	c #FFCECE",
"].	c #FF9B9B",
"^.	c #FF3131",
"/.	c #FF5858",
"(.	c #FFF0F0",
"_.	c #6B6B6B",
":.	c #F0EFCD",
"<.	c #F6F39A",
"[.	c #A5A5A5",
"}.	c #FFFDFD",
"|.	c #FFA1A1",
"1.	c #FF2B2B",
"2.	c #FF1010",
"3.	c #FFC8C8",
"4.	c #1E1B13",
"5.	c #ABABAB",
"6.	c #FBF9B7",
"7.	c #F1ED80",
"8.	c #E5E5DD",
"9.	c #242424",
"0.	c #FFC5C5",
"a.	c #FF8787",
"b.	c #FFE8E8",
"c.	c #FF8A8A",
"d.	c #FF0000",
"e.	c #FFBFBF",
"f.	c #FEFCC0",
"g.	c #FAF342",
"h.	c #E0DB32",
"i.	c #DDDA85",
"j.	c #2B2B2B",
"k.	c #F2F2F2",
"l.	c #FF9090",
"m.	c #FF0D0D",
"n.	c #FF3535",
"o.	c #FF1D1D",
"p.	c #FF6262",
"q.	c #FFECEC",
"r.	c #4D4817",
"s.	c #FCF643",
"t.	c #F9F337",
"u.	c #E1DB32",
"v.	c #BFBA2C",
"w.	c #636023",
"x.	c #FF9393",
"y.	c #FF8080",
"z.	c #FF8C8C",
"A.	c #FFEEEE",
"B.	c #4D4811",
"C.	c #FCF538",
"D.	c #BDB828",
"E.	c #5C5913",
"F.	c #565555",
"G.	c #584916",
"H.	c #FAF23F",
"I.	c #E1DB31",
"J.	c #CCC850",
"K.	c #918C73",
"L.	c #8F5803",
"M.	c #6A5A57",
"N.	c #A37120",
"O.	c #9E412D",
"P.	c #D7AF6D",
"Q.	c #F3E779",
"R.	c #EBE47F",
"S.	c #F1DFB0",
"T.	c #EABB47",
"U.	c #C98304",
"V.	c #5B4500",
"W.	c #7F7F7F",
"X.	c #CECECE",
"Y.	c #CFCFCF",
"Z.	c #AEAEAE",
"`.	c #866759",
" +	c #9E3D12",
".+	c #8D2211",
"++	c #A14522",
"@+	c #C17939",
"#+	c #D4973C",
"$+	c #DFA424",
"%+	c #EAAF07",
"&+	c #E4A501",
"*+	c #A95C07",
"=+	c #585858",
"-+	c #595858",
";+	c #595958",
">+	c #585958",
",+	c #595859",
"'+	c #615536",
")+	c #B17104",
"!+	c #B65F07",
"~+	c #B45D08",
"{+	c #BB6707",
"]+	c #C37406",
"^+	c #C97C05",
"/+	c #C27106",
"(+	c #A44809",
"_+	c #3B2B01",
":+	c #432D01",
"<+	c #3E2602",
"[+	c #391F02",
"}+	c #351903",
"|+	c #311203",
"1+	c #2D0C04",
"2+	c #290604",
"                        . + @ # $ % & *     ",
"                      = - ; > , ' ) ! ~ { ] ",
"                    ^ / ( _ : < [ } | 1 2 3 ",
"                      4 5 6 7 8 9 0 a b c   ",
"                        d e f g h i j k l   ",
"                ^ ^     m n o o o o p q ^   ",
"          r r s t t u   v n o o o o p q ^   ",
"    w x y z z z z z z A m n o o o o p q ^   ",
"    B C D E F G H H I J m K L M N O P q ^   ",
"    Q R S o o o o o T U m V W X Y Z ^ q ^   ",
"    ` o  ...+.@.#.o T $.v %.  &.*.    q ^   ",
"    =.o -.;.>.,.'.o T $.m %.  ).!.    q ^   ",
"  ^ ~.o {.].^./.(.o T $.v V _.:.<.[.^ q ^   ",
"  ^ ~.o }.|.1.2.3.o T $.m 4.5.6.7.8.9.q ^   ",
"  ^ ~.0.a.b.c.d.e.o T $.m n f.g.h.i.p q ^   ",
"  j.k.l.m.n.o.p.q.o T $.m r.s.t.u.v.w.q ^   ",
"  I o o x.y.z.A.o o T $.m B.C.t.u.D.E.q ^   ",
"  I o o o o o o o o T F.d G.H.t.I.J.K.L.l   ",
"  I o o o o o o o o T M.N.O.P.Q.R.S.T.U.V.  ",
"  W.X.Y.Y.Y.Y.Y.Y.Y.Z.`. +.+++@+#+$+%+&+*+3 ",
"    $.=+=+-+;+=+>+-+,+'+)+!+~+{+]+^+/+(+{ ] ",
"                        _+:+<+[+}+|+1+2+    "};
