/* XPM */
static const char *deleteitem[]={
"16 16 167 2",
".C c None",
".j c None",
".h c None",
".u c None",
".i c None",
".k c None",
".g c #9fa4b8",
".t c #9ca3b7",
".B c #a8aec2",
".L c #7b8195",
".f c #acb1c4",
".s c #b8bdce",
"aK c #646775",
"az c #bdc2ce",
"Qt c #c5cad6",
"aI c #828591",
"aH c #828692",
"aJ c #838693",
"aF c #838792",
"aG c #838793",
"aA c #848791",
"aE c #848793",
"aD c #858893",
"aC c #858993",
"aB c #868995",
".d c #c4c8d5",
".c c #c9ceda",
".b c #d1d6e1",
".a c #d3d7e1",
".# c #d5d8e2",
".e c #b0b6c6",
".0 c #6a6f7d",
"#a c #6d7280",
"#m c #6e7380",
"#y c #6e7381",
"#X c #6f7481",
"#K c #6f7482",
".T c #6f7585",
"ay c #707582",
".l c #ccd0dc",
"#z c #ccd1dc",
"#L c #ced1dc",
".A c #c3c8d6",
".K c #9a9fb2",
".R c #9ba0b1",
".S c #a0a7b8",
".Q c #aeb1c2",
".G c #b0b5c3",
".P c #b5bcca",
".H c #bbbec9",
".J c #bfc3ce",
".I c #c5c9d1",
".O c #c5c9d5",
".Y c #c6cbd8",
".Z c #cbd0de",
"#. c #cbd5e3",
".q c #cfd2de",
".x c #d1d5e0",
"## c #d1d6e3",
"#k c #d8ccd5",
".X c #d8e4f1",
"#l c #dae2f0",
".r c #dbdde7",
"#w c #dbe0ec",
".9 c #dda19f",
"#I c #dee1ec",
"#x c #e0e3ee",
"#V c #e1e2ec",
"ap c #e1e2ed",
"#7 c #e1ebf6",
"#H c #e1edf8",
"#U c #e2f3fd",
"ae c #e3d5de",
"#J c #e3e7f2",
"#v c #e6afb1",
".7 c #e6d7db",
"#W c #e6e8f2",
"aq c #e6e9f5",
"af c #e6eef9",
"#G c #e7ccd0",
"#8 c #e7e9f3",
"#T c #e8cad1",
"#6 c #e9a9b0",
"#g c #ebd6d7",
"ao c #ec969a",
"aw c #eceef7",
".W c #ecf1f8",
"#f c #ecf5fd",
"al c #ecfcfe",
"am c #edb9c0",
"ak c #edf6fc",
"av c #edf9fd",
".8 c #ee7b6a",
"aa c #eef7fd",
"ax c #f0f2fc",
"ab c #f1afb1",
"aj c #f1f7fc",
"au c #f1fefe",
".p c #f2f3fb",
"#M c #f2f8fc",
".V c #f2f9fd",
"ag c #f3edf0",
"#Y c #f3f3f6",
".w c #f3f5f9",
".y c #f3f6fb",
".6 c #f3fcfe",
"#N c #f3fdfe",
".o c #f5f7fb",
"at c #f5fdfe",
"#A c #f6fbfc",
"an c #f72f30",
"#j c #f74330",
"#h c #f76851",
"#r c #f7856e",
"ai c #f7938b",
"#O c #f7b3a8",
"#9 c #f7b7ae",
".U c #f7f7f9",
".v c #f7f9fb",
".5 c #f7fbfd",
"ah c #f87767",
"a# c #f88276",
"#B c #f8b1a0",
".z c #f8f8fb",
".E c #f8f9fb",
"as c #f8fbfe",
"ad c #f91c1d",
"#S c #f93328",
"#u c #f93e2b",
"#F c #f94e3b",
"#s c #f9614a",
"#Z c #f9a091",
".M c #f9fbfc",
".F c #f9fbfd",
"ar c #f9fbfe",
"#5 c #fb1616",
"#2 c #fb5644",
"#e c #fbb9a9",
".N c #fbfcfd",
"#3 c #fc2217",
".4 c #fcfefe",
"ac c #fd0e0f",
"#C c #fd5938",
".n c #fdfdfd",
".D c #fdfefe",
"#4 c #fe0000",
"#R c #fe1704",
"#t c #fe240b",
"#Q c #fe240c",
"#i c #fe2509",
"#E c #fe2910",
"#1 c #fe2913",
"a. c #fe3519",
"#0 c #fe3c20",
"#P c #fe3e22",
"#D c #fe3f21",
"#q c #fe6a48",
"#p c #fe7755",
"#d c #fe9170",
"#c c #fe9c80",
"#o c #febba7",
".2 c #fed5c8",
".3 c #fed7cb",
"#b c #fee0d5",
"#n c #fef9f8",
".1 c #fefcfb",
".m c #fefefe",
"Qt.#.a.a.a.b.c.d.e.f.g.h.i.j.k.k",
".l.m.m.m.m.n.o.p.q.r.s.t.u.j.k.k",
".l.m.m.m.m.m.v.w.x.y.z.A.B.C.k.k",
".l.m.m.m.m.D.E.F.G.H.I.J.K.L.k.k",
".l.m.m.m.m.D.M.N.O.P.Q.R.S.T.k.k",
".l.m.m.m.m.m.N.U.V.W.X.Y.Z.0.k.k",
".l.m.1.2.3.4.5.6.7.8.9#.###a.k.k",
".l.m#b#c#d#e#f#g#h#i#j#k#l#m.k.k",
".l.m#n#o#p#q#r#s#t#u#v#w#x#y.k.k",
"#z.m#A.v#B#C#D#E#F#G#H#I#J#K.k.k",
"#L.m#M#N#O#P#Q#R#S#T#U#V#W#X.k.k",
"#z.m#Y#Z#0#1#2#3#4#5#6#7#8#K.k.k",
"#z.m#9a.#Qa#aaabac#4adaeaf#K.k.k",
"#L.magahaiajakalamanaoapaq#X.k.k",
".l.m.m.m.D.4arasatauavawaxay.k.k",
"azaAaBaBaCaBaDaEaFaGaHaIaJaK.k.k"};
