/* XPM */
static const char *delgroup[]={
"16 16 125 2",
"   c black",
".  c #020202020202",
"X  c gray8",
"o  c #1E1E1E1E1E1E",
"O  c #202021212121",
"+  c #282828282828",
"@  c #2F2F2F2F2F2F",
"#  c #3A3A38383535",
"$  c #393939393939",
"%  c #3E3E3E3E3E3E",
"&  c #3F3F3F3F3F3F",
"*  c #00003C3C5B5B",
"=  c gray25",
"-  c gray27",
";  c #464646464646",
":  c #484848484848",
">  c gray31",
",  c #585858585858",
"<  c #671C671C671C",
"1  c #6A6A69696969",
"2  c #6C6C6B6B6B6B",
"3  c #6E6E6D6D6D6D",
"4  c gray46",
"5  c #0B0B54548282",
"6  c #0E0E5E5E9191",
"7  c #00006B6B9E9E",
"8  c #0F0F65659696",
"9  c #07077070A1A1",
"0  c #08087373A5A5",
"q  c #10106C6CA1A1",
"w  c #11117272A4A4",
"e  c #11117575A4A4",
"r  c #12127C7CADAD",
"t  c #27276C6C8C8C",
"y  c #272768689292",
"u  c #07078787B6B6",
"i  c #16F08F3ABB65",
"p  c #16169A9ACBCB",
"a  c #1919AFAFEEEE",
"s  c #3A3AA3A3C5C5",
"d  c #3C3CB9B9EDED",
"f  c #5BA69234B4FB",
"g  c #4F559F4CC4BA",
"h  c #5757A1A1C0C0",
"j  c #5858AEAECDCD",
"k  c #5656B0B0CDCD",
"l  c #5D5DB1B1D0D0",
"z  c #7070B8B8D3D3",
"x  c #7676BBBBD5D5",
"c  c #7777BCBCD6D6",
"v  c #7979BFBFD6D6",
"b  c #FFFF018E018E",
"n  c #FFFF03880388",
"m  c #FFFF0BA80BA8",
"M  c #FFFF16F116F1",
"N  c #FFFF19081908",
"B  c #FFFF1E401E40",
"V  c #FFFF21472147",
"C  c #FFFF32B732B7",
"Z  c #FFFF339F339F",
"A  c #FFFF3A703A70",
"S  c #FFFF53035303",
"D  c #FFFE559C559C",
"F  c #FFFF5A335A33",
"G  c #FFFF5C235C23",
"H  c #FFFF62436243",
"J  c #FFFF78B278B2",
"K  c #9D9D9D9D9D9D",
"L  c #8888A6A6B5B5",
"P  c #A4A4A4A4A4A4",
"I  c #A7A7A7A7A7A7",
"U  c #AAAAAAAAAAAA",
"Y  c gray69",
"T  c #B6B6B6B6B6B6",
"R  c #BBBBBBBBBBBB",
"E  c gray75",
"W  c #8901B302CC1D",
"Q  c #8B36B58CCDE0",
"!  c #91F7B4C3C6AD",
"~  c #8181C2C2D8D8",
"^  c #8282C3C3D9D9",
"/  c #8585C4C4D9D9",
"(  c #9191C9C9DBDB",
")  c #FFFF8E738E73",
"_  c #F6358FAD91AA",
"`  c #FFFF91D091D0",
"'  c #FFFF97399739",
"]  c #FF0F9AEB9AEB",
"[  c #FFFF9DB99DB9",
"{  c #E38CC0B1C0B1",
"}  c #FFFFA5F5A5F5",
"|  c #FFFFAB66AB66",
" . c #FFFFACB6ACB6",
".. c #FFFFB028B028",
"X. c #FFFFB621B621",
"o. c #FE2DBEBBBEBB",
"O. c #FFFFBD1DBD1D",
"+. c #C5C5C5C5C5C5",
"@. c #C7F4C7F4C7F4",
"#. c #CBCBC9C9C8C8",
"$. c #CBCBCBCBCBCB",
"%. c gray80",
"&. c #D17ACD61CD61",
"*. c #DD91C476C476",
"=. c #D1FED1FED1FE",
"-. c #D7EAD6B3D6B3",
";. c #DB2DDB2DDB2D",
":. c #C1C1E1E1EDED",
">. c #D3D3EDEDF6F6",
",. c #E9FEC5D1C8D3",
"<. c #FFFFC2F5C2F5",
"1. c #FFFFCD27CD27",
"2. c #FFFFCE1DCE1D",
"3. c #F780D60BD60B",
"4. c #FEFFD4BAD4DB",
"5. c #FF6AD911D911",
"6. c #FFFFE0D2E0D2",
"7. c #E879DE58E339",
"8. c #E4E4E4E4E4E4",
"9. c #EA02EA02EA02",
"0. c #F3B2F3B2F3B2",
"q. c #F742F545F545",
"w. c #FFFFF985F985",
"e. c gray100",
"r. c None",
/* pixels */
"r.r.r.r.  : r.r.r.r.r.r.r.r.r.r.",
"r.r.r.X $.9.: : @ r.r.r.r.r.r.r.",
"r.r.% 7 * 4 P $.9.:   : 4   r.r.",
"r.r.+ :.>.v 7 * 4 P %.8.9.9.  r.",
"r.r.O d s c :.>.^ 0 * 4 P %.9.; ",
"r.r.o a u s l x ^ :.>./ 0 * 4 > ",
"r.r.< p q i g ( s k z ( :.>.v % ",
"r.} *.g 5 f 7.X.W i u s j z :.= ",
"[ V H 5.q.,.F B _ Q e r u u z % ",
"<.V b D e.S b N 4.! 5 6 8 w h = ",
"r. .Z b b b A O.9.;.$.L t 5 y = ",
"r.r.o.b b N ] 0.=.%.+.E +.E 3 ; ",
"r.6.S m m b H 3.-.@.r.R T Y 2 ; ",
"2.G b Z J Z m G { $.R T Y U 2 ; ",
"' m B 2.r.O.M b | &.$ , K P 1 # ",
"r.) X.r.r.r...` 2.e.r.r.  + # r."
};

 	  	 
