/* XPM */
static const char *dirclosed[]={
"16 16 118 2",
"Qt c None",
".w c #003c5b",
".h c #003d5a",
".g c #006b9e",
".# c #020202",
".G c #0770a1",
".L c #0784b2",
".A c #0787b6",
".v c #0873a5",
".S c #0b5482",
".4 c #0e5c8d",
".T c #0e5e91",
".U c #0e6597",
"#e c #0f6596",
".5 c #0f6698",
".J c #106ca1",
".V c #116fa0",
"#f c #1172a4",
".6 c #1175a4",
".K c #127cad",
".W c #127fb1",
".R c #1380b2",
".b c #141414",
".I c #169acb",
".z c #19afee",
".y c #1e1e1e",
".q c #202121",
"#r c #276892",
"#q c #276c8c",
".l c #282828",
"#d c #286c8f",
"#Y c #292929",
".3 c #296c8e",
".Q c #2b2b2b",
"#S c #2e2e2e",
".e c #2f2f2f",
"#L c #323232",
"#s c #363636",
".B c #38a2c5",
"#X c #393939",
"#Z c #3a3835",
".s c #3aa3c5",
".r c #3cb9ed",
".f c #3e3e3e",
".P c #3f3f3f",
".7 c #404040",
"#h c #424242",
".8 c #444444",
".Z c #454545",
".x c #464646",
".a c #484848",
".H c #4f4f4f",
".M c #56b0cd",
"#g c #57a1c0",
"#T c #585858",
".X c #58aecd",
".C c #5db1d0",
"#M c #606060",
"#E c #686868",
"#W c #6a6969",
"#R c #6c6b6b",
"#D c #6e6d6d",
".Y c #70b8d3",
".k c #727272",
".N c #72b9d4",
".i c #757575",
".D c #76bbd5",
".t c #77bcd6",
".o c #79bfd6",
"#c c #81a0b0",
".E c #81c2d8",
".u c #82c3d9",
".F c #85c4d9",
"#p c #88a6b5",
".2 c #8aa9b9",
".O c #91c9db",
"#U c #9d9d9d",
".j c #a4a4a4",
"#V c #a7a7a7",
"#Q c #aaaaaa",
"#K c #aeaeae",
"#N c #afafaf",
"#P c #b0b0b0",
"#O c #b5b5b5",
"#J c #b6b6b6",
"#I c #bbbbbb",
"#B c #bfbfbf",
"#C c #c1bebe",
".m c #c1e1ed",
"#t c #c4c4c4",
"#A c #c5c5c5",
"#H c #c6c6c6",
"#G c #cacaca",
"#o c #cbc9c8",
".c c #cbcbcb",
"#z c #cccccc",
"#F c #cecece",
"#y c #d1d1d1",
".n c #d3edf6",
"#m c #d5d5d5",
"#x c #d6d6d6",
"#n c #d7d7d7",
"#b c #dbd7d6",
"#w c #dbdbdb",
"#l c #dcdcdc",
"#v c #dedede",
"#u c #dfdfdf",
"#k c #e1e1e1",
".p c #e4e4e4",
"#j c #e6e6e6",
".1 c #e9e4e4",
".d c #e9e9e9",
"#a c #eaeaea",
"## c #ebebeb",
"#i c #eeeeee",
"#. c #f1f1f1",
".9 c #f6f6f6",
".0 c #fcfcfc",
"QtQtQtQt.#.aQtQtQtQtQtQtQtQtQtQt",
"QtQtQt.b.c.d.a.a.eQtQtQtQtQtQtQt",
"QtQt.f.g.h.i.j.c.d.a.#.a.k.#QtQt",
"QtQt.l.m.n.o.g.h.i.j.c.p.d.d.#Qt",
"QtQt.q.r.s.t.m.n.u.v.w.i.j.c.d.x",
"QtQt.y.z.A.B.C.D.E.m.n.F.G.h.i.H",
"QtQt.y.I.J.K.L.A.B.M.N.O.m.n.o.P",
"QtQt.Q.R.S.T.U.V.W.A.A.B.X.Y.m.P",
"QtQt.Z.0.1.2.3.S.4.5.6.K.A.A.Y.7",
"QtQt.8.9#.###a#b#c#d.S.T#e#f#g.7",
"QtQt#h#i#a#j#k#l#m#n#o#p#q.S#r.7",
"QtQt#s#t#u#v#w#x#y#z#A#B#A#C#D.Z",
"QtQtQt.##s#EQt#F#G#HQt#I#J#K#D.x",
"QtQtQtQtQtQt.##L#M#N#I#O#P#Q#R.Z",
"QtQtQtQtQtQtQtQtQt.##S#T#U#V#W#X",
"QtQtQtQtQtQtQtQtQtQtQtQt.##Y#ZQt"};
