/* XPM */
static const char *diropen[]={
"16 16 98 2",
"Qt c None",
".f c #000000",
"## c #003450",
"#j c #003857",
"#y c #003858",
"#q c #003a5b",
".p c #003b5c",
".U c #007ccc",
".O c #00a9e7",
".# c #020202",
".q c #05699a",
".P c #1384ae",
".b c #141414",
".9 c #155f8f",
".V c #176191",
".2 c #186292",
".W c #1a6b9b",
"#i c #1d7caa",
"#E c #292929",
"#z c #2e2e2e",
".e c #2f2f2f",
"#. c #306e8e",
"#s c #323232",
".1 c #327192",
"#b c #363636",
".G c #38b8e7",
"#D c #393939",
"#F c #3c3a37",
".F c #3f3f3f",
".5 c #424242",
".w c #464646",
".a c #484848",
".j c #505050",
".H c #55c2ea",
"#A c #585858",
".Q c #5fabc8",
"#t c #606060",
".3 c #625c52",
"#l c #686868",
".X c #72644f",
".k c #727272",
".I c #74b6cf",
".S c #807055",
".l c #837e78",
".m c #868078",
".r c #87837e",
".M c #88785b",
".u c #8a795c",
".E c #8a8173",
".0 c #8eaab9",
".t c #928a7b",
".v c #948b7b",
".D c #948c82",
".x c #96d9f5",
".z c #9ccce0",
"#B c #9d9d9d",
"#r c #a09f9b",
"#k c #a6a6a2",
"#C c #a7a7a7",
"#x c #aaaaaa",
"#u c #afafaf",
"#w c #b0b0b0",
"#a c #b2b0ad",
"#v c #b5b5b5",
"#p c #bbbbbb",
".Y c #c3c1bd",
".4 c #c3c1be",
"#o c #c6c6c6",
"#n c #cacaca",
".y c #caebf7",
".o c #cbc9c5",
".R c #ccb389",
"#h c #cccccc",
".J c #cde4ed",
".T c #cecdcd",
"#m c #cecece",
"#g c #d1d1d1",
".N c #d6d6d5",
"#f c #d6d6d6",
".L c #d7c19f",
"#e c #dbdbdb",
"#d c #dedede",
"#c c #dfdfdf",
".8 c #e1e1e1",
".7 c #e1e2e3",
".K c #e3d1b8",
".c c #e4e4e4",
".d c #e9e9e9",
".B c #eae0d1",
".6 c #eaeaea",
".C c #ede0cd",
".i c #eeeeee",
".s c #f3f0ec",
".h c #f3f3f2",
".A c #f5f2ef",
".Z c #f6f6f6",
".n c #faf9f8",
".g c #ffffff",
"QtQtQtQt.#.aQtQtQtQtQtQtQtQtQtQt",
"QtQtQt.b.c.d.a.a.eQtQtQtQtQtQtQt",
"QtQtQt.f.g.h.i.c.c.j.#.a.k.#QtQt",
"QtQtQt.f.g.l.m.c.n.n.i.c.c.o.#Qt",
".p.q.p.p.g.r.s.t.u.v.c.n.n.i.o.w",
".p.x.y.z.q.p.p.A.B.C.D.u.E.c.c.F",
".p.G.H.I.z.J.z.q.p.p.B.K.L.M.N.F",
"Qt.p.O.P.P.Q.I.z.J.z.q.p.R.S.T.F",
"Qt.p.U.V.W.W.P.P.Q.I.z.J.p.X.Y.F",
"Qt.f.Z.Z.0.1.2.W.W.P.P.Q.p.3.4.F",
"QtQt.5.i.6.7.8.0.1.9.W.W#.###a.F",
"QtQt#b#c#c#d#e#f#g#h.0#i.V#j#k.F",
"QtQtQt.##b#lQt#m#n#oQt#p#p#q#r.F",
"QtQtQtQtQtQt.##s#t#u#p#v#w#x#y.F",
"QtQtQtQtQtQtQtQtQt.##z#A#B#C.p#D",
"QtQtQtQtQtQtQtQtQtQtQtQt.##E#FQt"};
