/* XPM */
static const char *disable[]={
"16 16 106 2",
"  	c None",
". 	c #FF7979",
"+ 	c #FF8484",
"@ 	c #FF8989",
"# 	c #FF8B8B",
"$ 	c #FF8A8A",
"% 	c #FF8888",
"& 	c #F67B7B",
"* 	c #FFB3B3",
"= 	c #FFBABA",
"- 	c #FFC1C1",
"; 	c #FFC3C3",
"> 	c #FFBDBD",
", 	c #FFB4B4",
"' 	c #FFA4A4",
") 	c #B94E4E",
"! 	c #FFB7B7",
"~ 	c #FFAAAA",
"{ 	c #FF9B9B",
"] 	c #FF8F8F",
"^ 	c #FF8D8D",
"/ 	c #FF7B7B",
"( 	c #FF7777",
"_ 	c #D56666",
": 	c #FF1919",
"< 	c #FF8383",
"[ 	c #FF7272",
"} 	c #FFA3A3",
"| 	c #FF7D7D",
"1 	c #FF7A7A",
"2 	c #FF6E6E",
"3 	c #FF5B5B",
"4 	c #FF5858",
"5 	c #B43131",
"6 	c #FF3535",
"7 	c #FF5656",
"8 	c #FF9090",
"9 	c #FFFFFF",
"0 	c #FFC2C2",
"a 	c #FF5757",
"b 	c #FFF4F4",
"c 	c #FFDEDE",
"d 	c #FF5050",
"e 	c #FF4746",
"f 	c #DD1E20",
"g 	c #460000",
"h 	c #FF2323",
"i 	c #FF5555",
"j 	c #FF4242",
"k 	c #FFB8B8",
"l 	c #FFAFAF",
"m 	c #FFE2E2",
"n 	c #FFF8F8",
"o 	c #FF7171",
"p 	c #FF3939",
"q 	c #FF2B2B",
"r 	c #CD0C0C",
"s 	c #410000",
"t 	c #FF2626",
"u 	c #FF0D0D",
"v 	c #FF2828",
"w 	c #FF2424",
"x 	c #FFA1A1",
"y 	c #FFF3F3",
"z 	c #FF5151",
"A 	c #FF1A1A",
"B 	c #FF1818",
"C 	c #FF0505",
"D 	c #C30506",
"E 	c #FF1010",
"F 	c #FF1616",
"G 	c #FF0000",
"H 	c #FF1E1E",
"I 	c #FFDBDB",
"J 	c #FFF0F0",
"K 	c #FFFCFC",
"L 	c #FF8787",
"M 	c #B90608",
"N 	c #FF0707",
"O 	c #FF0909",
"P 	c #FF3636",
"Q 	c #FFE4E4",
"R 	c #FFF1F1",
"S 	c #FF9C9C",
"T 	c #FF0606",
"U 	c #B3080A",
"V 	c #420000",
"W 	c #F50101",
"X 	c #FF0101",
"Y 	c #FFC0C0",
"Z 	c #FF4040",
"` 	c #FF8C8C",
" .	c #FF0404",
"..	c #B1080A",
"+.	c #3E0000",
"@.	c #AE0000",
"#.	c #FE0000",
"$.	c #C30608",
"%.	c #520203",
"&.	c #B20000",
"*.	c #950404",
"=.	c #B4080B",
"-.	c #B0080A",
";.	c #B1070A",
">.	c #530203",
",.	c #3D0000",
"                                ",
"        . + @ # $ % &           ",
"      % * = - ; > , ' )         ",
"    ! ~ { @ ] ^ % / ( ( _       ",
"  : { < [ } | 1 2 # 1 3 4 5     ",
"  6 @ 7 8 9 0 a [ b c d e f g   ",
"  h i j i k 9 l m n o p q r s   ",
"  : t u v w x 9 y z A B C D s   ",
"  E F G G H I J K L G G G M s   ",
"  N O G P Q R 6 < 9 S T G U V   ",
"  W X G t Y Z G G { `  .G ..+.  ",
"    @.G G  .G G G G G #.$.%.    ",
"      &.G G G G G G G $.%.      ",
"        *.=.-.-.-.-.;.>.        ",
"          g s s s s ,.          ",
"                                "};
