/* XPM */
static const char *disable_gray[]={
"16 16 88 2",
"Qt c None",
"#v c #141414",
"#n c #151515",
".W c #161616",
".K c #181818",
"#q c #1d1d1d",
"#u c #1e1e1e",
"#s c #353535",
"#o c #3b3b3b",
"#r c #3d3d3d",
"#t c #414141",
"#m c #424242",
"#a c #434343",
".4 c #464646",
"#p c #474747",
".V c #4e4e4e",
"#h c #545454",
".7 c #575757",
"#i c #585858",
".3 c #5a5a5a",
"#g c #5b5b5b",
"#b c #5c5c5c",
"#c c #5d5d5d",
".B c #5e5e5e",
".J c #5f5f5f",
".Y c #606060",
".5 c #626262",
".6 c #666666",
".2 c #676767",
".t c #686868",
".8 c #6b6b6b",
".L c #6e6e6e",
".0 c #6f6f6f",
".X c #707070",
".Z c #717171",
".l c #727272",
".U c #737373",
".C c #7a7a7a",
"#d c #7b7b7b",
".T c #7d7d7d",
"#k c #818181",
".N c #828282",
".I c #868686",
".s c #8c8c8c",
".M c #8f8f8f",
".D c #909090",
".A c #919191",
".z c #939393",
".y c #9f9f9f",
".S c #a1a1a1",
".v c #a2a2a2",
".e c #a5a5a5",
".# c #a7a7a7",
".r c #a8a8a8",
".x c #a9a9a9",
".u c #adadad",
".a c #aeaeae",
".d c #b0b0b0",
".b c #b1b1b1",
".c c #b2b2b2",
"#l c #b3b3b3",
".q c #b4b4b4",
".p c #b5b5b5",
".E c #b6b6b6",
".o c #bdbdbd",
"#f c #bebebe",
".1 c #c1c1c1",
".w c #c2c2c2",
".k c #c3c3c3",
".n c #c7c7c7",
".P c #cacaca",
".f c #cdcdcd",
".m c #cfcfcf",
".O c #d0d0d0",
".g c #d1d1d1",
".j c #d3d3d3",
"#j c #d5d5d5",
".h c #d6d6d6",
".i c #d7d7d7",
".9 c #e7e7e7",
".H c #e9e9e9",
".Q c #ebebeb",
"#e c #ededed",
"#. c #f5f5f5",
".G c #f7f7f7",
".R c #fafafa",
"## c #fdfdfd",
".F c #ffffff",
"QtQtQtQtQtQtQtQtQtQtQtQtQtQtQtQt",
"QtQtQtQt.#.a.b.c.c.d.eQtQtQtQtQt",
"QtQtQt.d.f.g.h.i.j.f.k.lQtQtQtQt",
"QtQt.m.n.o.b.p.q.d.r.e.e.sQtQtQt",
"Qt.t.o.u.v.w.x.#.y.c.#.z.A.BQtQt",
"Qt.C.b.D.E.F.h.D.v.G.H.s.I.J.KQt",
"Qt.L.M.N.M.O.F.P.Q.R.S.T.U.V.WQt",
"Qt.t.X.Y.Z.0.1.F.G.s.t.2.3.4.WQt",
"Qt.5.6.7.7.8.9#.##.d.7.7.7#a.WQt",
"Qt#b#c.7#d#e#..C.u.F#f#g.7#a.WQt",
"Qt#h#i.7.X#j#k.7.7.o#l.3.7#m#nQt",
"QtQt#o.7.7.3.7.7.7.7.7.7#p#qQtQt",
"QtQtQt#r.7.7.7.7.7.7.7#p#qQtQtQt",
"QtQtQtQt#s#a#m#m#m#m#t#uQtQtQtQt",
"QtQtQtQtQt.K.W.W.W.W#vQtQtQtQtQt",
"QtQtQtQtQtQtQtQtQtQtQtQtQtQtQtQt"};
