/* XPM */
static const char *download[]={
"22 22 39 1",
". c None",
"c c #303030",
"r c #3a3a3a",
"g c #595959",
"# c #878787",
"K c #888888",
"I c #898989",
"z c #8e8e8e",
"H c #979797",
"u c #999999",
"J c #9a9a9a",
"F c #9c9c9c",
"b c #a0a0a0",
"E c #a5a5a5",
"G c #acacac",
"B c #adadad",
"w c #afafaf",
"l c #b3b3b3",
"C c #b5b5b5",
"y c #b7b7b7",
"D c #bcbcbc",
"x c #c1c1c1",
"v c #c3c3c3",
"h c #c7c7c7",
"p c #cecece",
"t c #d2d2d2",
"q c #d4d4d4",
"m c #d5d5d5",
"o c #d6d6d6",
"n c #d9d9d9",
"j c #dfdfdf",
"s c #e0e0e0",
"k c #e2e2e2",
"i c #e3e3e3",
"f c #e6e6e6",
"e c #eaeaea",
"d c #eeeeee",
"A c #ffffc1",
"a c #ffffff",
"......................",
".....###.....#ab......",
"....#aaa#...#abc......",
"...#adefa#.#abc.......",
"..gcghfija#abc........",
".gakcglfijagc.........",
"gademcglj.nag.........",
"gkefihcgbophag........",
"ggqefihcgbophag.......",
"grgqsnthcguvwvr.......",
"crrgxphtycgzvgrA......",
".crvgBChDEcggrc.z.....",
"..rabgFCGHIcrc.A......",
".gabgrgFJKgccA.AzA....",
"gabccrrg#grc..AaAz....",
"abc..crrgrA.AAaaaAA.A.",
"bc....crrc.z.zAaAzzz.z",
".............AzAzA....",
"..............zAz.z...",
"................z.....",
"...............A......",
"................z....."};
