/* XPM */
static const char *edit[]={
"16 16 158 2",
".h c None",
"#a c #000011",
"#b c #000011",
"#1 c #000011",
"#o c #000011",
"#0 c #000011",
"#P c #000011",
"#m c #000011",
"#C c #000011",
"#n c #000011",
"#B c #000011",
".g c #a62e05",
".F c #8c91a3",
".x c #a94b31",
".V c #747885",
".N c #7d8190",
"#8 c #6b6f7c",
".q c #b03507",
"#l c #666a77",
"#Z c #5c5e6d",
"#O c #5a5c6b",
"#A c #5a5d6b",
".f c #c7734e",
".E c #a0a5b6",
".w c #e96b13",
".e c #de9a5e",
".p c #f3a158",
"aB c #888c98",
"aA c #9498a3",
"az c #9598a4",
"ay c #9699a4",
"ax c #969aa4",
"aw c #979aa5",
"av c #979ba5",
"au c #989ba5",
"at c #999ca6",
".M c #9fa3b2",
"#N c #a9abb6",
"#Y c #aaacb7",
"#z c #abaeb9",
".U c #acb0bc",
"a# c #b08578",
"#7 c #b1b4be",
".3 c #b1b5c1",
"#k c #b5b8c3",
"## c #b5b9c4",
".L c #ba9d99",
"ag c #bbbec8",
"ar c #bcbfc9",
"#3 c #c0a38e",
".c c #c1bcc1",
"as c #c2c6d0",
".D c #c4734f",
".T c #cbc7cf",
"#M c #cfd1da",
".b c #cfd2de",
".1 c #d0a99b",
"#X c #d0d2db",
"#5 c #d1c0be",
"#U c #d1c3c3",
"#4 c #d2a48c",
"#h c #d2a89d",
"#W c #d2d4dd",
"Qt c #d2d5e0",
"#T c #d39771",
"#L c #d3d6de",
"#J c #d5a68d",
"#V c #d5d7df",
".a c #d5d9e2",
"#6 c #d6d8df",
".2 c #d6d9e4",
"aa c #d7d1d2",
"#y c #d7d9e2",
"ac c #d8dae2",
".S c #d9895b",
"#K c #d9dbe3",
".9 c #dad3d8",
"ad c #dadce4",
"a. c #dbccc8",
"ab c #dbdde3",
".# c #dcdfe7",
"#. c #dde0ea",
"ae c #dee0e8",
"#2 c #e0d2ca",
".8 c #e18f54",
"#x c #e1e3eb",
"#j c #e1e3ec",
"#v c #e2914f",
".m c #e4bf87",
"af c #e4e6ee",
"#i c #e4e6ef",
"#w c #e5e2e8",
".d c #e7a02b",
".K c #e86e15",
"an c #e8eaf0",
"aq c #e8eaf1",
"ap c #eaecf3",
"ak c #ece5e6",
"am c #ecedf2",
"ao c #eceef4",
"al c #edeff2",
".0 c #ef8930",
"aj c #f1ebeb",
".l c #f1f2f8",
"#I c #f2b155",
"#Q c #f3e3d3",
".t c #f4c93b",
".s c #f4e8de",
".z c #f5d899",
"#F c #f6e7d0",
".k c #f6f8fa",
".H c #f7cd4f",
"#S c #f7d3a3",
"#R c #f7d8b3",
"#E c #f7f8fb",
"#g c #f8a33d",
"#r c #f8ead3",
"ai c #f8f9fb",
".X c #f9cb59",
"#q c #f9fbfc",
".R c #fa9318",
"#d c #fad87b",
".r c #fafbfc",
"#9 c #fafbfd",
".P c #fbc812",
".A c #fbcf0e",
"#G c #fbdb7e",
"#s c #fbde69",
".O c #fbe7ba",
".G c #fbf3e9",
".y c #fbfbfb",
"#D c #fbfbfd",
"ah c #fbfcfd",
".C c #fc8209",
".5 c #fcd638",
".4 c #fcead3",
"#p c #fcfdfd",
".I c #fdc307",
".n c #fdce0a",
"#c c #fdfaf6",
".v c #fe9404",
".J c #fea00a",
".B c #fea303",
".7 c #feae2f",
".Z c #feb61e",
".u c #feb800",
".Q c #febb12",
".o c #febe46",
"#f c #fec23b",
"#u c #fec24e",
".6 c #fec92a",
".Y c #fed21e",
"#t c #fed44d",
"#H c #fed462",
"#e c #fedb41",
".j c #fefefe",
".W c #feffff",
".i c #ffffff",
"Qt.#.#.#.#.a.b.c.d.e.f.g.h.h.h.h",
".#.i.i.i.j.k.l.m.n.o.p.q.h.h.h.h",
".#.i.i.i.i.r.s.t.u.v.w.x.h.h.h.h",
".#.i.i.i.i.y.z.A.B.C.D.E.F.h.h.h",
".#.i.i.i.i.G.H.I.J.K.L.M.N.h.h.h",
".#.i.i.i.i.O.P.Q.R.S.T.U.V.h.h.h",
".#.i.i.i.W.X.Y.Z.0.1.2.3.V.h.h.h",
".#.i.i.i.4.5.6.7.8.9#.##.V#a#b#a",
".#.i.W#c#d#e#f#g#h#i#j#k#l#m#n#o",
".##p#q#r#s#t#u#v#w#x#y#z#A#B#B#C",
".##D#E#F#G#H#I#J#K#L#M#N#O#B#n#P",
".##D#E#Q#R#S#T#U#V#W#X#Y#Z#0#1#a",
".##D#E#2#3#4#5#6#V#W#W#7#8#a.h.h",
".##9#Ea.a#aaabacadaeafag.V.h.h.h",
".#ahaiajakalamanaoapaqar.V.h.h.h",
"asatatatauavawaxayazaAaB.V.h.h.h"};
