/* XPM */
static const char *end[]={
"16 16 112 2",
"Qt c None",
".Q c #656565",
".R c #3268cc",
".# c #3269d1",
".e c #3665bd",
".A c #3269d0",
".f c #3269d1",
"#P c #656565",
"#C c #3765b9",
".p c #3269d1",
".I c #3e62a5",
"#B c #656565",
".o c #3765b9",
".Y c #486190",
"#I c #3b65b3",
"#v c #4f6184",
"#H c #4e6286",
".Z c #3268cc",
".a c #3269cf",
".d c #3268ca",
".z c #3b66b6",
"#O c #4d648e",
".6 c #3a64b3",
".7 c #3268cc",
".b c #3268cd",
".c c #3268cc",
"#p c #3d64ac",
"#d c #3b66b7",
"#j c #3c66b6",
".g c #3269d2",
".J c #3269cf",
"#w c #3368ca",
".n c #3368ca",
".P c #3467c4",
"#A c #3766be",
".B c #326ad2",
".q c #326ad3",
"#D c #346acc",
"#J c #356acc",
"#G c #3469cb",
"#N c #3569ca",
".y c #3269ce",
".H c #3269ce",
".m c #326bd4",
".h c #326cd7",
".X c #326ad3",
"#Q c #3e71cf",
"#u c #326ad3",
"#T c #3e70cf",
".5 c #3471e3",
".l c #3472e4",
".i c #3472e5",
"#k c #3572e4",
"#c c #3676eb",
"#i c #3776eb",
".0 c #3873e0",
".4 c #3b80ff",
"#b c #3c81ff",
"#n c #3d82ff",
"#o c #4083ff",
"#e c #447ce5",
"#s c #4486fc",
"#l c #4686fc",
"#t c #4687fc",
"#q c #4887fc",
"#r c #4888fc",
".r c #4980e6",
".3 c #4987f8",
".8 c #4a7fe2",
"#x c #4a80e4",
"#a c #4f8af6",
".j c #5183e0",
".x c #5789e4",
".O c #5a8ae3",
".k c #5b88dc",
"#R c #5e88d5",
".C c #6494ec",
"#K c #658edb",
"#y c #6696ee",
"#E c #6c94e0",
"#m c #6ca0ff",
"#S c #6e95dc",
"#f c #6e99e8",
"#g c #749de9",
".G c #799fe5",
"#h c #7aa1ea",
"#F c #7ea3e6",
".9 c #8cace5",
"#z c #8cb0f2",
"#L c #8dace7",
"#M c #8eade8",
"#. c #8fade6",
".S c #90b1ec",
"## c #92afe6",
".2 c #95b1e6",
".W c #97b3e4",
".1 c #a1bae9",
".U c #a3bcea",
".s c #a8c2f5",
".V c #b7caee",
".T c #b8ccee",
".w c #b9ccf0",
".K c #c4d4f1",
".N c #cbd9f3",
".L c #cddaf4",
".D c #d4e0f4",
".F c #dce6f6",
".E c #e1e9f8",
".t c #e4ebf8",
".v c #ebf0fa",
".u c #f2f5fb",
".M c #ffffff",
"QtQtQtQtQt.#.a.b.c.d.eQtQtQtQtQt",
"QtQtQt.f.g.h.i.j.k.l.m.n.oQtQtQt",
"QtQt.p.q.r.s.t.u.u.v.w.x.y.zQtQt",
"Qt.A.B.C.D.E.E.E.E.E.E.F.G.H.IQt",
"Qt.J.r.K.L.M.L.L.L.M.M.L.N.O.P.Q",
".R.m.S.T.T.M.M.U.U.M.M.T.V.W.X.Y",
".Z.0.1.U.U.M.M.M.U.M.M.2.3.4.5.6",
".7.8.9#.##.M.M.M.M.M.M#a#b.4#c#d",
".c#e#f#g#h.M.M.M.M.M.M#b#b#b#i#j",
".d#k#l#l#l.M.M.M#m.M.M#b#n#o.l#p",
".e.m#q#r#r.M.M#m#b.M.M#s#t#q#u#v",
"Qt#w#x#y#y.M#z#y#y.M.M#y#y#x#A#B",
"Qt#C#D#E#F#F#F#F#F#F#F#F#E#G#H.Q",
"QtQt#I#J#K#L#M#M#M#M#L#K#N#O#PQt",
"QtQtQt.I.P#Q#R#S#S#R#T#A#H#PQtQt",
"QtQtQtQt.Q.Y.6#d#j#p#v#B.QQtQtQt"};
