/* XPM */
static const char *exportfile[]={
"22 22 141 2",
"Qt c None",
".a c #000000",
"#4 c #010101",
".r c #040404",
".N c #060606",
".T c #0c0c0c",
"#K c #111111",
".E c #151515",
"#0 c #1f1f1f",
"ai c #222222",
".1 c #262626",
"#O c #2b2b2b",
"ah c #2d2d2d",
"#c c #2e2e2e",
".0 c #303030",
"ak c #313131",
"#r c #333333",
"ad c #343434",
"## c #383838",
"#V c #393939",
"#h c #3a3a3a",
"#J c #3b3b3b",
"#k c #3c3c3c",
".Q c #3d3d3d",
".c c #3f3f3f",
"#w c #404040",
"#e c #424242",
".l c #434343",
"a. c #444444",
"#g c #454545",
".p c #464646",
".8 c #484848",
".I c #494949",
".d c #4a4a4a",
"#3 c #4b4b4b",
"#b c #4c4c4c",
".A c #4d4d4d",
"#E c #4f4f4f",
".j c #505050",
"ac c #515151",
"#B c #525252",
".u c #545454",
".m c #565656",
"#1 c #595959",
".z c #5b5b5b",
".h c #5c5c5c",
"ag c #5d5d5d",
".x c #5e5e5e",
"#v c #5f5f5f",
"#6 c #606060",
".t c #616161",
".i c #636363",
".2 c #646464",
"#j c #656565",
"aj c #666666",
"#P c #676767",
"#2 c #696969",
"#C c #6a6a6a",
".# c #6b6b6b",
".q c #6c6c6c",
".f c #6d6d6d",
"#m c #6e6e6e",
".e c #717171",
"#D c #737373",
".k c #747474",
".3 c #757575",
".C c #767676",
".y c #777777",
"#s c #787878",
".M c #797979",
"#d c #7a7a7a",
".G c #7b7b7b",
".X c #7c7c7c",
"#. c #808080",
".J c #828282",
".9 c #838383",
"#f c #848484",
"#i c #858585",
".Y c #888888",
"ae c #898989",
".g c #8a8a8a",
".7 c #8b8b8b",
".6 c #8d8d8d",
".4 c #8e8e8e",
".5 c #909090",
".U c #919191",
".W c #929292",
".V c #949494",
"#o c #959595",
"#u c #969696",
".O c #989898",
".P c #9a9a9a",
".v c #9b9b9b",
"#F c #9c9c9c",
"#5 c #a7a7a7",
"#9 c #a8a8a8",
"#U c #a9a9a9",
"#y c #aaaaaa",
".F c #b3b3b3",
"ab c #b4b4b4",
"#n c #b5b5b5",
"#L c #b7b7b7",
"#x c #b8b8b8",
".H c #bababa",
"#Z c #bcbcbc",
".Z c #bfbfbf",
".b c #c1c1c1",
"#z c #c3c3c3",
".D c #c4c4c4",
"#Y c #c5c5c5",
"#7 c #c6c6c6",
"a# c #c7c7c7",
"af c #c8c8c8",
".S c #cbcbcb",
"#X c #cecece",
"#p c #cfcfcf",
"aa c #d0d0d0",
"#l c #d1d1d1",
"#A c #d2d2d2",
"#N c #d5d5d5",
"#I c #d6d6d6",
".B c #d8e6e6",
"#8 c #d9d9d9",
"#R c #dadada",
".o c #dfdfdf",
".s c #e0e0e0",
"#S c #e3e3e3",
"#q c #e9e9e9",
"#t c #eaeaea",
"#a c #ececec",
"#T c #ededed",
"#M c #eeeeee",
"#H c #efefef",
".K c #eff0f0",
"#G c #f1f1f1",
"#W c #f2f2f2",
"#Q c #f4f4f4",
".L c #f9f9f9",
".R c #fcfcfc",
".w c #fefefe",
".n c #ffffff",
"QtQtQtQtQt.#.aQtQtQtQtQtQtQtQtQtQtQtQtQtQtQt",
"QtQtQtQtQt.a.b.c.d.eQtQtQtQtQtQtQtQtQtQtQtQt",
"QtQtQtQt.f.g.b.h.i.h.c.j.kQtQtQtQtQtQtQtQtQt",
"QtQtQtQt.l.b.b.m.n.o.h.f.h.c.p.qQtQtQtQtQtQt",
"QtQtQtQt.r.b.m.s.n.n.n.n.o.h.t.h.c.u.kQtQtQt",
"QtQtQt.q.v.b.c.w.n.n.n.n.n.n.n.o.h.x.y.a.zQt",
"QtQtQt.A.b.b.m.n.n.n.n.n.n.n.n.w.B.m.C.D.aQt",
"QtQtQt.E.F.m.s.n.n.n.n.n.n.n.n.n.m.G.k.H.IQt",
"QtQt.#.J.F.c.K.n.n.n.n.n.n.n.n.L.c.M.H.NQtQt",
"QtQt.A.O.P.Q.q.R.n.n.n.n.n.n.n.o.m.C.S.QQtQt",
"QtQt.T.U.V.W.X.u.c.Y.n.o.Z.n.o.0.1.2.HQtQtQt",
"Qt.q.3.g.4.5.6.7.W.k.8.Q.9#.###a#b#c.a#dQtQt",
"Qt#e#f.9#g#h.m.7.Y#i#j#k#a#l#m#n#o#f#p#q#rQt",
"Qt.N.X#m#s#t#u.p#b#v.M#w.h#x.F#y#n#z#A#BQtQt",
".##C#D#E#F.n#G#H#I.9#J#K.e#L.v.0.z#M#N.PQtQt",
"#O.f#P.p#Q#t#R#S#T.s###a#l#U.0#V.k.4#R#l#tQt",
".h.a#j.c#W#I#I#X#Y#Z#0#b.7#L#1###2.g#p.W#3Qt",
"Qt.#.p#4.p#5.D#Z#x.g.Q#0#6#7#M.4.g#8#x.3QtQt",
"QtQtQtQt.#.p.a.p#9.p#ia.a##N#N#Raaab#xacQtQt",
"QtQtQtQtQtQtQt.#.p.aad#d#q#B.P#lae.xaf.oadQt",
"QtQtQtQtQtQtQtQtQtQtagah#rai.E#t#bQtQtajQtQt",
"QtQtQtQtQtQtQtQtQtQtQtQtQt.#.aakQtQtQtQtQtQt"};
