/* XPM */
static const char *filesave[]={
"16 16 179 2",
"Qt c None",
".m c #000028",
"aW c #000028",
"aK c #0e0e47",
".# c #a3a4c3",
".l c #101149",
".v c #070637",
"aV c #000023",
"av c #000028",
"ah c #00002a",
"#5 c #00002c",
"#R c #01012f",
"#D c #020230",
"#r c #040433",
"aU c #050530",
"#d c #060636",
".1 c #080839",
".N c #0a0a3b",
"aL c #100f46",
"aT c #10103f",
"aM c #101041",
"aS c #121241",
"aR c #131342",
"aQ c #161643",
"aP c #161645",
"aO c #191947",
"aN c #1b1b49",
"ai c #3d4073",
".k c #3f4074",
"#6 c #494c7d",
".j c #515180",
"#S c #545786",
".i c #5a5a87",
"#E c #5e608e",
".h c #64648f",
"#s c #696b96",
".g c #6e6e98",
"#e c #73769f",
".f c #7979a0",
".2 c #7f81a8",
".e c #8585aa",
".O c #8b8db1",
".d c #9595b6",
".F c #9697b9",
".c c #a1a0bf",
".w c #a1a2c3",
".b c #a3a3c3",
".a c #acaec9",
".E c #0f0f41",
"aJ c #000025",
"aw c #313267",
".n c #aeafcb",
"aI c #000224",
"au c #020b32",
"ag c #060f39",
"#4 c #0c1643",
"#Q c #131d4c",
"#C c #1b2756",
"#q c #2b3765",
".A c #344f85",
"aH c #353a64",
"#c c #394473",
".0 c #3e4b79",
"#b c #435482",
"at c #454f79",
"#p c #455582",
"#a c #495b88",
".M c #4c5987",
"af c #4f5880",
".r c #546b9b",
"#3 c #59628b",
"ax c #5b6690",
"#o c #5b6892",
"## c #5b6e9a",
".z c #5e75a1",
"#n c #627099",
"#P c #646d96",
".D c #6878a4",
"aj c #6b7da4",
"#. c #6d83ab",
"#m c #6e7ca4",
"#B c #6f799e",
".u c #737da8",
"#7 c #7b8db1",
".9 c #7b8fb7",
"#l c #7c8db1",
"ay c #7f84a7",
"aG c #8180a4",
"aF c #8181a3",
".Z c #818faf",
".8 c #8599be",
"ar c #8787b0",
"as c #8988b2",
"aE c #8b8baa",
"#k c #8d9bbe",
".7 c #8ea1c4",
"#T c #8fa1c3",
"aq c #9191b8",
"aD c #9292b2",
"ad c #9595b9",
"ak c #969fc0",
".q c #96a6c5",
"ae c #9796bb",
".6 c #98a9ca",
"ap c #9a9ac0",
"#j c #9baaca",
"aC c #9c9cb9",
".J c #9caecc",
"ac c #9e9ec2",
"#1 c #9e9ec3",
"#F c #9eaece",
"#2 c #a1a0c4",
"#8 c #a1abca",
".5 c #a1b1d1",
"ao c #a3a3c8",
"aB c #a6a6c0",
"#i c #a6b6d2",
"ab c #a7a7c9",
".I c #a7b5d0",
"#t c #a7b7d5",
"#0 c #a8a8ca",
"#N c #ababce",
"#g c #abbbd6",
"an c #acacd0",
".4 c #acbbd7",
"#O c #afaecf",
"#h c #afbdd8",
"aA c #b0b0c9",
"aa c #b1b1d1",
"#Z c #b2b2d2",
"#U c #b3bdd5",
"#M c #b6b6d5",
"am c #b6b6d7",
"#f c #b7c4de",
".L c #b8c4d8",
"a# c #bbbbd8",
"#Y c #bcbcda",
"#L c #c0c0dd",
".Y c #c0c9db",
".C c #c0cce0",
"#G c #c2cbe0",
"az c #c4c3d7",
"a. c #c4c4e0",
".3 c #c4d0e7",
"#X c #c5c5e1",
".B c #c5cee1",
".s c #c8d1e2",
"#u c #c9d3e3",
"#K c #cac9e4",
"al c #cbcae7",
".P c #cbd6eb",
".X c #ccd6e6",
"#A c #cecee2",
"#z c #cecee3",
"#W c #cfcfe9",
".W c #d1d8e8",
".Q c #d1daeb",
"#J c #d3d3ec",
".V c #d3dbe9",
".t c #d5deed",
".G c #d5e0f1",
".U c #d6deec",
"#9 c #dad8ee",
"#y c #dadaeb",
".T c #dbe2f0",
"#I c #dcdcf1",
".S c #e0e6f2",
".x c #e2ebf9",
".R c #e3e9f5",
"#V c #e4e3f8",
"#x c #e4e4f3",
"#H c #e8e7f7",
".H c #ebf0f8",
"#w c #eeeefb",
".K c #f0f3fb",
".o c #f2f8fe",
".y c #f5f9fe",
"#v c #fbfbfe",
".p c #fefefe",
"QtQtQtQtQtQtQtQtQtQtQtQtQtQtQtQt",
"Qt.#.a.b.c.d.e.f.g.h.i.j.k.l.mQt",
"Qt.n.o.p.q.r.s.p.p.p.p.p.t.u.vQt",
"Qt.w.x.y.z.A.B.p.p.p.p.p.C.D.EQt",
"Qt.F.G.H.I.J.K.p.p.p.p.p.L.M.NQt",
"Qt.O.P.Q.R.S.T.U.V.W.X.Y.Z.0.1Qt",
"Qt.2.3.4.5.6.7.8.9#.###a#b#c#dQt",
"Qt#e#f#g#h#i#j#k#l#m#n#o#p#q#rQt",
"Qt#s#t#u.p.p#v#w#x#y#z#A#B#C#DQt",
"Qt#E#F#G#H#I#J#K#L#M#N#O#P#Q#RQt",
"Qt#S#T#U#V#W#X#Y#Z#0#1#2#3#4#5Qt",
"Qt#6#7#8#9a.a#aaabacadaeafagahQt",
"QtaiajakalamanaoapaqarasatauavQt",
"QtawaxayazaAaBaCaDaEaFaGaHaIaJQt",
"QtaKaLaMaNaOaPaQaRaSaTaTaUaVaWQt",
"QtQtQtQtQtQtQtQtQtQtQtQtQtQtQtQt"};
