/* XPM */
static const char *finished[]={
"22 22 374 2",
"  	c None",
". 	c #9E0D02",
"+ 	c #AC3526",
"@ 	c #B03D2E",
"# 	c #AD3527",
"$ 	c #AE3325",
"% 	c #AC3223",
"& 	c #AA3122",
"* 	c #AA3120",
"= 	c #AA2F20",
"- 	c #AB2D1F",
"; 	c #AA2D1D",
"> 	c #A92A1D",
", 	c #A82919",
"' 	c #9D0B01",
") 	c #B54938",
"! 	c #C87E64",
"~ 	c #C1664A",
"{ 	c #BE5F42",
"] 	c #BE6245",
"^ 	c #BE6345",
"/ 	c #BF6446",
"( 	c #BD6242",
"_ 	c #BC6141",
": 	c #BF6444",
"< 	c #C06646",
"[ 	c #BE6746",
"} 	c #BD6746",
"| 	c #BF6A49",
"1 	c #C26F4C",
"2 	c #C16F4D",
"3 	c #AD3724",
"4 	c #B44837",
"5 	c #C26E56",
"6 	c #D59F7A",
"7 	c #C7754F",
"8 	c #C26C45",
"9 	c #C4744C",
"0 	c #C47349",
"a 	c #C37349",
"b 	c #C77C53",
"c 	c #CD885F",
"d 	c #CD8861",
"e 	c #CA8256",
"f 	c #C87F51",
"g 	c #C88357",
"h 	c #C9885B",
"i 	c #CB8B5E",
"j 	c #CF9466",
"k 	c #D5A575",
"l 	c #BB5F42",
"m 	c #AC3522",
"n 	c #C77D64",
"o 	c #D49E79",
"p 	c #B03A13",
"q 	c #B54B26",
"r 	c #B85630",
"s 	c #B95932",
"t 	c #BD5E38",
"u 	c #BC5E37",
"v 	c #C67653",
"w 	c #D5977A",
"x 	c #D7987D",
"y 	c #C97D5A",
"z 	c #C06B44",
"A 	c #C3704A",
"B 	c #C3714A",
"C 	c #C3734C",
"D 	c #C3744E",
"E 	c #C57751",
"F 	c #D39F72",
"G 	c #C06B4A",
"H 	c #9D0B00",
"I 	c #AC3425",
"J 	c #C16C50",
"K 	c #C87D56",
"L 	c #B54A24",
"M 	c #B8562F",
"N 	c #B9562F",
"O 	c #C66D4A",
"P 	c #EAB7A2",
"Q 	c #F2DBD1",
"R 	c #F6ECE8",
"S 	c #FAF2EF",
"T 	c #F9F2EF",
"U 	c #F1DAD0",
"V 	c #E8B8A1",
"W 	c #CB805D",
"X 	c #C2724A",
"Y 	c #C47851",
"Z 	c #C67B54",
"` 	c #D1986B",
" .	c #C16D4B",
"..	c #A42011",
"+.	c #AF3C2D",
"@.	c #BE6246",
"#.	c #B8552E",
"$.	c #CD866A",
"%.	c #EAC7BA",
"&.	c #FFF4EF",
"*.	c #FFFFFC",
"=.	c #FBECE5",
"-.	c #EED3C6",
";.	c #F1D9CD",
">.	c #FFF9F4",
",.	c #FFFFFF",
"'.	c #FCF0EA",
").	c #EBCBB9",
"!.	c #D49A7A",
"~.	c #C57951",
"{.	c #C77F58",
"].	c #CF9569",
"^.	c #C06B49",
"/.	c #A62313",
"(.	c #BE6044",
"_.	c #C4724B",
":.	c #B95831",
"<.	c #FBF5F3",
"[.	c #F2D0C1",
"}.	c #E6B199",
"|.	c #DCA287",
"1.	c #E1AA8F",
"2.	c #EDC6B1",
"3.	c #F7E3D7",
"4.	c #FCF7F4",
"5.	c #ECCDBB",
"6.	c #CE8964",
"7.	c #C8825D",
"8.	c #CF976B",
"9.	c #C06948",
"0.	c #A41D0E",
"a.	c #BC5D38",
"b.	c #E4B19B",
"c.	c #C77752",
"d.	c #D28F70",
"e.	c #F3D1C0",
"f.	c #F0C9B7",
"g.	c #D39171",
"h.	c #CB835F",
"i.	c #E7BBA6",
"j.	c #FCF7F5",
"k.	c #FAEDE6",
"l.	c #E6BAA1",
"m.	c #C98762",
"n.	c #D0966B",
"o.	c #C16949",
"p.	c #A41D0D",
"q.	c #C67950",
"r.	c #C5704D",
"s.	c #F4DED5",
"t.	c #FFFDFB",
"u.	c #F3D2C3",
"v.	c #CB7E5B",
"w.	c #BD6339",
"x.	c #D79A7D",
"y.	c #FFEEE4",
"z.	c #FEEBE1",
"A.	c #D89F81",
"B.	c #C06F45",
"C.	c #CF8D6B",
"D.	c #F7E6DA",
"E.	c #F2DFD4",
"F.	c #C98963",
"G.	c #CF966A",
"H.	c #C06A49",
"I.	c #A31B0C",
"J.	c #AC3123",
"K.	c #BE6243",
"L.	c #CA8159",
"M.	c #CE8666",
"N.	c #F7F0EC",
"O.	c #FBECE4",
"P.	c #E1A88D",
"Q.	c #C16B44",
"R.	c #BC6339",
"S.	c #DBA488",
"T.	c #FFF9F1",
"U.	c #FFF9F2",
"V.	c #DCAA8F",
"W.	c #C67D55",
"X.	c #EDCBB6",
"Y.	c #FFFEFB",
"Z.	c #D09471",
"`.	c #D19B70",
" +	c #A21A0A",
".+	c #CD875F",
"++	c #D59579",
"@+	c #FAF3F0",
"#+	c #CF8765",
"$+	c #C3724B",
"%+	c #BE693F",
"&+	c #DAA488",
"*+	c #FFF7EF",
"=+	c #FFF6EF",
"-+	c #DCAA8E",
";+	c #C2744A",
">+	c #C9835C",
",+	c #E3B299",
"'+	c #F9EAE3",
")+	c #F9F2EE",
"!+	c #D9A585",
"~+	c #D5A37A",
"{+	c #BF6A4A",
"]+	c #A21808",
"^+	c #CD8860",
"/+	c #D6977B",
"(+	c #EED4C7",
"_+	c #D08A68",
":+	c #C4744D",
"<+	c #BF6B41",
"[+	c #DBA58A",
"}+	c #DDAB8F",
"|+	c #C2774D",
"1+	c #C98661",
"2+	c #E4B49A",
"3+	c #F9EAE2",
"4+	c #FAF4F1",
"5+	c #DDAE93",
"6+	c #D6A780",
"7+	c #A21606",
"8+	c #AA2E20",
"9+	c #BE6343",
"0+	c #CD865C",
"a+	c #D18C6D",
"b+	c #F8EFEC",
"c+	c #F8E7E0",
"d+	c #DFA68B",
"e+	c #C3744D",
"f+	c #BF6C42",
"g+	c #DCA88C",
"h+	c #FFFAF2",
"i+	c #DEAF94",
"j+	c #C2774E",
"k+	c #C8855F",
"l+	c #EECFBB",
"m+	c #FFFDFA",
"n+	c #F8F2EE",
"o+	c #D7A384",
"p+	c #D7A57D",
"q+	c #C16B4C",
"r+	c #A01504",
"s+	c #AA2D1F",
"t+	c #BF6544",
"u+	c #CB8457",
"v+	c #F7E8E0",
"w+	c #EFCDBD",
"x+	c #CB825E",
"y+	c #C06E44",
"z+	c #DAA588",
"A+	c #FFF3EA",
"B+	c #FEEFE5",
"C+	c #DAA88C",
"D+	c #C57D55",
"E+	c #D39876",
"F+	c #F8E9DE",
"G+	c #F6E6DD",
"H+	c #D39B7A",
"I+	c #D7A47D",
"J+	c #C26C4E",
"K+	c #9F1302",
"L+	c #C78255",
"M+	c #C3704B",
"N+	c #F2D3C3",
"O+	c #F9F1EE",
"P+	c #DDA88D",
"Q+	c #C9805A",
"R+	c #DAA285",
"S+	c #FBE1D3",
"T+	c #F3D3C1",
"U+	c #D69F7F",
"V+	c #D0936F",
"W+	c #EBC5B0",
"X+	c #FFF5F0",
"Y+	c #F1CEBB",
"Z+	c #D59F81",
"`+	c #D6A883",
" @	c #C06C4F",
".@	c #9F1100",
"+@	c #BE6747",
"@@	c #C9875B",
"#@	c #D18D6D",
"$@	c #EFD7CB",
"%@	c #F3D6C7",
"&@	c #EBC0A9",
"*@	c #E3B39A",
"=@	c #E2B297",
"-@	c #ECC3AB",
";@	c #F6DDCE",
">@	c #F1DACC",
",@	c #DAA387",
"'@	c #D4A182",
")@	c #D9AE8B",
"!@	c #C26E52",
"~@	c #9F0F00",
"{@	c #AA3020",
"]@	c #BE6848",
"^@	c #CA885D",
"/@	c #C4734C",
"(@	c #C4754E",
"_@	c #D59D80",
":@	c #EDD2C3",
"<@	c #FFFFFD",
"[@	c #FBEFE8",
"}@	c #EFD9CD",
"|@	c #F0DACE",
"1@	c #FCF1EA",
"2@	c #FFFFFE",
"3@	c #FFFAF6",
"4@	c #F1DBCD",
"5@	c #DEB299",
"6@	c #D29879",
"7@	c #D6A385",
"8@	c #DBB291",
"9@	c #C37055",
"0@	c #A8291A",
"a@	c #C06C4A",
"b@	c #CE9164",
"c@	c #C4774E",
"d@	c #CF8C67",
"e@	c #EFC9B6",
"f@	c #F9F3EF",
"g@	c #F9F3F0",
"h@	c #F7E9E1",
"i@	c #F4D6C4",
"j@	c #DBA589",
"k@	c #D29878",
"l@	c #DCB095",
"m@	c #DBAF8E",
"n@	c #C0694D",
"o@	c #9E1000",
"p@	c #C1704E",
"q@	c #D5A576",
"r@	c #C98763",
"s@	c #CD8F6B",
"t@	c #D7A181",
"u@	c #E3B59B",
"v@	c #E2B89F",
"w@	c #D9A687",
"x@	c #D39A79",
"y@	c #D69F81",
"z@	c #D6A284",
"A@	c #DBAF93",
"B@	c #E5C9AF",
"C@	c #D39D79",
"D@	c #B64E32",
"E@	c #AD3824",
"F@	c #CF966B",
"G@	c #D0966A",
"H@	c #D0986C",
"I@	c #D39F75",
"J@	c #D8A880",
"K@	c #D8AA84",
"L@	c #D8A67F",
"M@	c #D7A37D",
"N@	c #D6A783",
"O@	c #D9AC89",
"P@	c #DDB696",
"Q@	c #DDB697",
"R@	c #D39B77",
"S@	c #B3462C",
"T@	c #A41E0A",
"U@	c #C06949",
"V@	c #BF6948",
"W@	c #BE6948",
"X@	c #BF694A",
"Y@	c #C26D50",
"Z@	c #C47459",
"`@	c #C26E54",
" #	c #B64D31",
".#	c #A41C09",
"+#	c #9F1000",
"@#	c #9E0F00",
"##	c #9D0E00",
"$#	c #9C0B00",
"      . + @ # # $ % & * = - ; > = , '       ",
"    ) ! ~ { ] ^ / ^ ( _ : < [ } | 1 2 3     ",
"  4 5 6 7 8 9 0 a b c d e f g h i j k l m   ",
". n o p q r s t u v w x y z A B C D E F G H ",
"I J K L M N O P Q R S T R U V W X Y Z `  ...",
"+.@.A #.M $.%.&.*.=.-.;.>.,.'.).!.~.{.].^./.",
"# (._.:.O %.,.<.[.}.|.1.2.3.4.,.5.6.7.8.9.0.",
"# ^ 0 a.P &.<.b.c.d.e.f.g.h.i.j.k.l.m.n.o.p.",
"$ ] q.r.s.t.u.v.w.x.y.z.A.B.C.D.,.E.F.G.H.I.",
"J.K.L.M.N.O.P.Q.R.S.T.U.V.B.W.X.Y.N.Z.`.|  +",
"& ( .+++@+-.#+$+%+&+*+=+-+;+>+,+'+)+!+~+{+]+",
"* _ ^+/+@+(+_+:+<+[+*+*+}+|+1+2+3+4+5+6+{+7+",
"8+9+0+a+b+c+d+e+f+g+T.h+i+j+k+l+m+n+o+p+q+r+",
"s+t+u+y v+m+w+x+y+z+A+B+C+D+E+F+,.G+H+I+J+K+",
"; [ L+M+N+,.O+P+Q+R+S+T+U+V+W+j.X+Y+Z+`+ @.@",
"> +@@@B #@$@,.T %@&@*@=@-@;@j.,.>@,@'@)@!@~@",
"{@]@^@/@(@_@:@>.<@[@}@|@1@2@3@4@5@6@7@8@9@.@",
"0@a@b@(@Y c@d@e@G+f@4.4.g@h@i@j@k@7@l@m@n@o@",
"' p@q@E Z {.7.r@s@t@u@v@w@x@y@'@z@A@B@C@D@H ",
"  E@l F ` ].F@G@H@I@J@K@L@M@N@O@P@Q@R@S@T@  ",
"    m G  .^.9.o.U@V@W@X@q+J+ @Y@Z@`@ #.#    ",
"      H ../.0.p.I. +]+7+r+K+.@+#@###$#      "};
