/* XPM */
static const char *help[]={
"22 22 236 2",
"  	c None",
". 	c #B3B5B6",
"+ 	c #AF9F97",
"@ 	c #B3ADAC",
"# 	c #C6CFDC",
"$ 	c #C4CDDA",
"% 	c #B6B0B0",
"& 	c #B4A6A0",
"* 	c #B4B6B7",
"= 	c #CC5927",
"- 	c #D7652E",
"; 	c #E1C2B4",
"> 	c #E3EAF2",
", 	c #E3EBF4",
"' 	c #E5C4B6",
") 	c #DF6123",
"! 	c #D35A24",
"~ 	c #B98E7E",
"{ 	c #B6785D",
"] 	c #E06326",
"^ 	c #F08645",
"/ 	c #F89F5D",
"( 	c #F2DFD2",
"_ 	c #E9F3FF",
": 	c #F1E1D4",
"< 	c #FAA764",
"[ 	c #F3914F",
"} 	c #E76E2F",
"| 	c #D6551B",
"1 	c #D4551E",
"2 	c #C79372",
"3 	c #FAAA6B",
"4 	c #FEB46D",
"5 	c #FF9E3C",
"6 	c #D7C5BB",
"7 	c #BFDAFF",
"8 	c #BEDAFF",
"9 	c #D6C3B8",
"0 	c #FF972F",
"a 	c #FFAF60",
"b 	c #FCB274",
"c 	c #F08B4B",
"d 	c #E06225",
"e 	c #D6531A",
"f 	c #EE8443",
"g 	c #D6B696",
"h 	c #FFA54F",
"i 	c #F97A07",
"j 	c #DF6410",
"k 	c #968FA4",
"l 	c #6C94C7",
"m 	c #6D93C6",
"n 	c #958EA4",
"o 	c #DE6212",
"p 	c #F57201",
"q 	c #FE942D",
"r 	c #FEB875",
"s 	c #F59857",
"t 	c #E16427",
"u 	c #CD4C17",
"v 	c #EE7A37",
"w 	c #D8AE8B",
"x 	c #E7994E",
"y 	c #E96C06",
"z 	c #B0531F",
"A 	c #83462C",
"B 	c #7E452D",
"C 	c #AF511F",
"D 	c #E46607",
"E 	c #FD891D",
"F 	c #FEB974",
"G 	c #F2904F",
"H 	c #D65B21",
"I 	c #DF6024",
"J 	c #D6A079",
"K 	c #CAA17C",
"L 	c #F06D01",
"M 	c #994B1C",
"N 	c #A25930",
"O 	c #E66505",
"P 	c #FD8E23",
"Q 	c #FCB575",
"R 	c #EB7737",
"S 	c #CA4C17",
"T 	c #CE916F",
"U 	c #C8A17B",
"V 	c #FD7B04",
"W 	c #B6540F",
"X 	c #979C9F",
"Y 	c #B05921",
"Z 	c #F26F00",
"` 	c #FFA852",
" .	c #F79C5B",
"..	c #CB764D",
"+.	c #B79B90",
"@.	c #E69D66",
"#.	c #FFA040",
"$.	c #F16900",
"%.	c #E85F02",
"&.	c #FE891B",
"*.	c #FDB26E",
"=.	c #E36E2F",
"-.	c #B4A9A4",
";.	c #E1D1C9",
">.	c #EFE3DD",
",.	c #CECACF",
"'.	c #8E96B1",
").	c #848EAF",
"!.	c #C8C1C7",
"~.	c #EBE4E0",
"{.	c #F1D8CB",
"].	c #B5B0AE",
"^.	c #CCD6E5",
"/.	c #E6ECF3",
"(.	c #E5F0FF",
"_.	c #B7D4FC",
":.	c #6796D2",
"<.	c #648FCB",
"[.	c #AECEFB",
"}.	c #E0ECFF",
"|.	c #EDF1F6",
"1.	c #C7CED8",
"2.	c #C3C8D2",
"3.	c #EBEDF1",
"4.	c #E3F0FF",
"5.	c #B5D3FD",
"6.	c #6496D7",
"7.	c #5E8FD1",
"8.	c #ACCDFA",
"9.	c #DFECFF",
"0.	c #EFF0F4",
"a.	c #C1C3C9",
"b.	c #AFA5A2",
"c.	c #E5B6A0",
"d.	c #EFD5C3",
"e.	c #D6B9A5",
"f.	c #9E8687",
"g.	c #947E86",
"h.	c #CFAE99",
"i.	c #F1D7C3",
"j.	c #E3CCBD",
"k.	c #A59C98",
"l.	c #DA5B1D",
"m.	c #F8A05D",
"n.	c #FF9F3D",
"o.	c #EF6802",
"p.	c #E2600B",
"q.	c #F18724",
"r.	c #D6B08E",
"s.	c #AD9181",
"t.	c #A3A6A8",
"u.	c #C65722",
"v.	c #F18746",
"w.	c #FEB36A",
"x.	c #F87703",
"y.	c #DF5C0B",
"z.	c #929293",
"A.	c #BC8161",
"B.	c #C58653",
"C.	c #D19F6E",
"D.	c #E39863",
"E.	c #D45E21",
"F.	c #E66B2B",
"G.	c #FAAE6F",
"H.	c #FE9E41",
"I.	c #F06B02",
"J.	c #D9560D",
"K.	c #D44E0E",
"L.	c #E86306",
"M.	c #FD8512",
"N.	c #FEB674",
"O.	c #ED7C3C",
"P.	c #A5471B",
"Q.	c #EF8241",
"R.	c #FDB776",
"S.	c #FD932D",
"T.	c #EF6A02",
"U.	c #DE5A0C",
"V.	c #BE6535",
"W.	c #E86407",
"X.	c #F98012",
"Y.	c #FFB56B",
"Z.	c #F59858",
"`.	c #B55728",
" +	c #AEAFAE",
".+	c #8F8C88",
"++	c #BE5626",
"@+	c #F28C4C",
"#+	c #FDB876",
"$+	c #FE9834",
"%+	c #EC6302",
"&+	c #858298",
"*+	c #4E8BD5",
"=+	c #847F96",
"-+	c #D36C28",
";+	c #CD742A",
">+	c #FC8615",
",+	c #FFB56C",
"'+	c #F8A262",
")+	c #C95D28",
"!+	c #70625C",
"~+	c #BA5223",
"{+	c #ED8041",
"]+	c #FCB273",
"^+	c #FF9227",
"/+	c #C6B7B3",
"(+	c #A5C7F6",
"_+	c #A3C7F7",
":+	c #C5B4B0",
"<+	c #EB8B32",
"[+	c #DAA169",
"}+	c #FEB775",
"|+	c #F29051",
"1+	c #C15623",
"2+	c #924422",
"3+	c #DB5B21",
"4+	c #EF894B",
"5+	c #FCAE6B",
"6+	c #E8DBD4",
"7+	c #DAE9FF",
"8+	c #E8DCD4",
"9+	c #EFB078",
"0+	c #D89469",
"a+	c #DE6227",
"b+	c #9B4723",
"c+	c #A6431B",
"d+	c #BD4E1F",
"e+	c #DDBCAC",
"f+	c #EBEEF3",
"g+	c #E4C0B0",
"h+	c #C17F61",
"i+	c #A75F3F",
"j+	c #89827F",
"k+	c #B7BBC3",
"l+	c #C4C9D1",
"m+	c #B5AEAC",
"            .   + @ # $ % & *               ",
"              = - ; > , ' ) ! ~             ",
"          { ] ^ / ( _ _ : < [ } |           ",
"        1 2 3 4 5 6 7 8 9 0 a b c d         ",
"      e f g h i j k l m n o p q r s t       ",
"    u v w x y z A         B C D E F G H     ",
"    I J K L M                 N O P Q R     ",
"  S T U V W                   X Y Z `  ...  ",
"  +.@.#.$.                        %.&.*.=.-.",
"  ;.>.,.'.                        ).!.~.{.].",
"^./.(._.:.                        <.[.}.|.1.",
"2.3.4.5.6.                        7.8.9.0.a.",
"b.c.d.e.f.                        g.h.i.j.  ",
"k.l.m.n.o.                        p.q.r.s.  ",
"t.u.v.w.x.y.                z.  A.B.C.D.E.  ",
"    F.G.H.I.J.                K.L.M.N.O.    ",
"    P.Q.R.S.T.U.            V.W.X.Y.Z.`.    ",
"   +.+++@+#+$+p %+&+*+*+=+-+;+>+,+'+)+      ",
"      !+~+{+]+a ^+/+(+_+:+<+[+}+|+1+        ",
"          2+3+4+5+6+7+7+8+9+0+a+b+          ",
"              c+d+e+3.f+g+h+i+              ",
"                  j+k+l+m+                  "};
