/* XPM */
static const char *hidechart[]={
"22 22 179 2",
"Qt c None",
".u c #0032a4",
".O c #0032ab",
"#D c #00ff00",
".7 c #0132b1",
".t c #0238b2",
".N c #0340f1",
".6 c #0343f6",
".M c #0349ff",
".L c #044aff",
".s c #053fbf",
".r c #0742c2",
".q c #0a47c4",
".5 c #0a4fff",
"aW c #0c3ba7",
".K c #0c52ff",
".p c #0e4dc7",
".o c #1253c9",
".4 c #1358ff",
".J c #155bff",
".n c #1759cc",
".m c #1b5fce",
".3 c #1c61ff",
"#r c #1d48b3",
".I c #1e64ff",
".l c #2065d1",
".2 c #246aff",
".k c #246bd3",
".H c #276dff",
".j c #2971d6",
".1 c #2d73ff",
".i c #2d77d8",
".G c #3076ff",
"a# c #3257b0",
".h c #327ddb",
"#7 c #3358b0",
"#3 c #3358b1",
"#Z c #3459b2",
"aV c #345ab2",
"#U c #355ab2",
"aI c #357fd4",
"#O c #365bb3",
".0 c #367bff",
".g c #3683dd",
"#K c #375cb4",
"aU c #375fb5",
"#F c #385db4",
"#B c #385eb5",
".F c #397fff",
".# c #3995e5",
"aT c #3a63b8",
".f c #3a89e0",
"aS c #3d68bb",
".Z c #3f84ff",
".e c #3f8fe2",
"aR c #406cbe",
"aQ c #4271c1",
".E c #4287ff",
".d c #4395e5",
".a c #449de8",
"aP c #4575c4",
".c c #479be7",
"aO c #487ac7",
".Y c #488dff",
"aN c #4b7eca",
".D c #4b90ff",
".b c #4ba0ea",
".P c #4da3ec",
"aM c #4e83ce",
".X c #5095ff",
"aL c #5188d1",
"aK c #548cd4",
".C c #5499ff",
"aJ c #5791d7",
".W c #589dff",
".8 c #5ba8eb",
".B c #5da1ff",
"as c #5e9ade",
"an c #609ddf",
".V c #60a5ff",
"ai c #619fe1",
"ae c #62a0e1",
"aa c #62a2e2",
"#8 c #63a3e3",
"#4 c #64a5e4",
"#0 c #65a6e5",
".A c #65aaff",
"#V c #66a7e6",
"#P c #67a9e7",
"#L c #68aae8",
".U c #68adff",
"#G c #69ace9",
"#C c #69aeea",
"#s c #6aafeb",
".z c #6db2ff",
".T c #70b4ff",
".y c #75baff",
".S c #77bbff",
"#q c #7a9af5",
"#p c #7da0fd",
".x c #7dc1ff",
"#o c #7ea1fd",
".R c #7ec2ff",
"#n c #7fa2fe",
"#m c #82a5fe",
".Q c #84c8ff",
".w c #84c9ff",
"#l c #87aaff",
".v c #8bcfff",
"#k c #8cafff",
"#j c #90b3ff",
"#i c #95b8ff",
"#h c #99bcff",
"#g c #9dc0ff",
"#f c #a2c4ff",
"#e c #a6c8ff",
"#d c #aaccff",
"#c c #aed0ff",
"#b c #b1d4ff",
"#a c #b5d7ff",
"## c #b9dbff",
"#. c #bcdeff",
".9 c #bfe1ff",
"aH c #d4d3e0",
"ar c #dad9e6",
"am c #dbdbe6",
"ah c #dcdce7",
"ad c #dedde8",
"a. c #dfdfe9",
"aG c #e1e0ea",
"#6 c #e1e1ea",
"aq c #e2e2ed",
"aF c #e3e2eb",
"#2 c #e3e3ec",
"al c #e3e3ee",
"aE c #e4e4ed",
"#Y c #e5e5ed",
"ag c #e5e5ef",
"aD c #e7e6ee",
"#T c #e7e7ee",
"ac c #e7e7f0",
"#9 c #e8e8f1",
"aC c #e9e8ef",
"#N c #e9e9f0",
"#5 c #eaeaf2",
"aB c #ebeaf1",
"#J c #ecebf2",
"#1 c #ececf3",
"aA c #edecf2",
"#X c #ededf4",
"#E c #eeedf3",
"ab c #eeeef4",
"az c #efeef3",
"#S c #efeff5",
"#A c #f0eff4",
"ay c #f1f0f5",
"#M c #f1f1f6",
"ak c #f1f1f7",
"ax c #f2f2f6",
"#I c #f2f2f7",
"#R c #f3f3f7",
"ap c #f3f3f8",
"ao c #f4f4f9",
"aw c #f5f4f7",
"#z c #f6f6f9",
"aj c #f6f6fa",
"av c #f7f6f9",
"#y c #f7f7fa",
"#Q c #f8f8fb",
"au c #f9f9fa",
"#x c #f9f9fb",
"#W c #f9f9fc",
"at c #fafafb",
"af c #fafafc",
"#w c #fbfbfc",
"#H c #fbfbfd",
"#v c #fdfdfe",
"#u c #fefeff",
"#t c #ffffff",
"QtQtQtQtQtQtQtQtQtQtQtQtQtQtQtQtQtQtQtQtQtQt",
".#.a.b.c.d.e.f.g.h.i.j.k.l.m.n.o.p.q.r.s.t.u",
".a.v.w.x.y.z.A.B.C.D.E.F.G.H.I.J.K.L.M.M.N.O",
".P.Q.R.S.T.U.V.W.X.Y.Z.0.1.2.3.4.5.M.M.M.6.7",
".8.9#.###a#b#c#d#e#f#g#h#i#j#k#l#m#n#o#p#q#r",
"#s#t#t#t#t#t#t#t#t#t#t#t#t#t#u#v#w#x#y#z#A#B",
"#C#t#t#t#t#t#t#t#t#t#t#t#t#u#v#w#x#y#D#D#E#F",
"#G#t#t#t#t#t#t#t#t#t#t#t#u#v#H#x#y#D#D#I#J#K",
"#L#t#t#t#t#t#t#t#t#t#t#u#v#H#x#y#D#D#I#M#N#O",
"#P#t#t#t#t#t#t#t#t#t#u#v#H#x#Q#D#D#R#M#S#T#U",
"#V#t#t#t#t#t#t#t#t#t#v#H#W#Q#D#D#R#M#S#X#Y#Z",
"#0#t#t#t#t#t#t#t#t#v#H#W#Q#D#D#R#M#S#X#1#2#3",
"#4#t#t#t#t#t#D#D#v#H#W#Q#D#D#R#M#S#X#1#5#6#7",
"#8#t#t#t#t#D#D#D#D#W#Q#D#D#R#M#S#X#1#5#9a.a#",
"aa#t#t#t#D#D#v#t#D#D#D#D#R#M#Sab#1#5#9acada#",
"ae#t#t#D#D#v#Haf#t#D#D#R#M#Sab#1#5#9acagaha#",
"ai#t#D#D#v#Haf#Qaj#t#Rak#Sab#1#5#9acagalama#",
"an#t#t#v#Haf#Qajaoapak#Sab#1#5#9acagalaqara#",
"asatauavawaxayazaAaBaCaDaEaFaGa.adahamaraHa#",
"aIaJaKaLaMaNaOaPaQaRaSaTaUaVa#a#a#a#a#a#a#aW",
"QtQtQtQtQtQtQtQtQtQtQtQtQtQtQtQtQtQtQtQtQtQt",
"QtQtQtQtQtQtQtQtQtQtQtQtQtQtQtQtQtQtQtQtQtQt"};
