/* XPM */
static const char *home[]={
"16 16 131 2",
"Qt c None",
".S c #656565",
".T c #3268cc",
".# c #3269d1",
".e c #3665bd",
".A c #3269d0",
".f c #3269d1",
"#8 c #656565",
"#R c #3765b9",
".p c #3269d1",
".J c #3e62a5",
"#Q c #656565",
".o c #3765b9",
".3 c #486190",
"#1 c #3b65b3",
"#J c #4f6184",
"#0 c #4e6286",
".4 c #3268cc",
".a c #3269cf",
".d c #3268ca",
".z c #3b66b6",
"#7 c #4d648e",
"#b c #3a64b3",
"#c c #3268cc",
".b c #3268cd",
".c c #3268cc",
"#B c #3d64ac",
"#k c #3b66b7",
"#r c #3c66b6",
".g c #3269d2",
".K c #3269cf",
"#K c #3368ca",
".n c #3368ca",
".R c #3467c4",
"#P c #3766be",
".B c #326ad2",
".q c #326ad3",
"#S c #346acc",
"#2 c #356acc",
"#Z c #3469cb",
"#6 c #3569ca",
".y c #3269ce",
".I c #3269ce",
".m c #326bd4",
".h c #326cd7",
".2 c #326ad3",
"#9 c #3e71cf",
"#I c #326ad3",
"aa c #3e70cf",
"#a c #3471e3",
".l c #3472e4",
".i c #3472e5",
"#s c #3572e4",
"#j c #3676eb",
"#q c #3776eb",
".5 c #3873e0",
"## c #3b80ff",
"#F c #3c81ff",
"#l c #447ce5",
"#A c #4586ff",
"#t c #4686fc",
"#H c #4687fc",
"#C c #4887fc",
"#D c #4888fc",
".r c #4980e6",
"#. c #4987f8",
"#d c #4a7fe2",
"#L c #4a80e4",
"#u c #4e8bfc",
".j c #5183e0",
"#z c #5591ff",
".x c #5789e4",
".Q c #5a8ae3",
".k c #5b88dc",
"#v c #5d95fc",
"a. c #5e88d5",
"#p c #6098ff",
".C c #6494ec",
"#3 c #658edb",
"#M c #6696ee",
"#T c #6c94e0",
"a# c #6e95dc",
"#m c #6e99e8",
".H c #799fe5",
"#i c #79a9ff",
"#U c #7ea3e6",
"#e c #8cace5",
"#4 c #8dace7",
"#5 c #8eade8",
"#f c #8fade6",
".U c #90b1ec",
".1 c #97b3e4",
"#n c #9bb8ef",
"#x c #9dc0ff",
".6 c #a1bae9",
"#G c #a1c2fd",
".F c #a3bcea",
"#Y c #a6bfed",
".s c #a8c2f5",
"#y c #aac8ff",
"#V c #b0c7ef",
"#O c #b2caf6",
".9 c #b5c8ed",
".0 c #b7caee",
".V c #b8ccee",
".w c #b9ccf0",
"#E c #bad2fd",
"#g c #bfd0f0",
"#X c #c0d2f2",
"#w c #c2d7fe",
".L c #c4d4f1",
"#N c #c6d7f8",
".7 c #c9d8f2",
".P c #cbd9f3",
".M c #cddaf4",
".Z c #cedcf3",
"#W c #cedcf5",
".D c #d4e0f4",
".W c #d5e1f5",
".G c #dce6f6",
".O c #dde6f7",
".E c #e1e9f8",
".t c #e4ebf8",
".v c #ebf0fa",
".u c #f2f5fb",
"#o c #f5f9ff",
"#h c #fafcfe",
".Y c #fbfcfe",
".8 c #fcfdfe",
".N c #fdfdfe",
".X c #ffffff",
"QtQtQtQtQt.#.a.b.c.d.eQtQtQtQtQt",
"QtQtQt.f.g.h.i.j.k.l.m.n.oQtQtQt",
"QtQt.p.q.r.s.t.u.u.v.w.x.y.zQtQt",
"Qt.A.B.C.D.E.E.F.F.F.E.G.H.I.JQt",
"Qt.K.r.L.M.M.F.E.N.O.F.M.P.Q.R.S",
".T.m.U.V.V.F.W.N.X.Y.Z.F.0.1.2.3",
".4.5.6.F.F.7.N.X.X.X.8.9#.###a#b",
"#c#d#e#f#g.X.X.X.X.X.X#h#i###j#k",
".c#l#m#n.8.X.X.X.X.X.X.X#o#p#q#r",
".d#s#t#u#v#w.X.X#x#x.X#y#z#A.l#B",
".e.m#C#D#D#E.X.X#F#F.X#G#H#C#I#J",
"Qt#K#L#M#M#N.X.X#M#M.X#O#M#L#P#Q",
"Qt#R#S#T#U#V#W#X#U#U#W#Y#T#Z#0.S",
"QtQt#1#2#3#4#5#5#5#5#4#3#6#7#8Qt",
"QtQtQt.J.R#9a.a#a#a.aa#P#0#8QtQt",
"QtQtQtQt.S.3#b#k#r#B#J#Q.SQtQtQt"};
