/* XPM */
static const char *include[]={
"16 16 110 2",
"Qt c None",
".t c #b6bbcb",
".f c #b2b7c8",
"#g c #179a02",
".A c #8d92a3",
".m c #b2b7c8",
"#r c #179902",
".I c #13d10e",
".U c #13d10e",
".T c #747885",
".H c #7c8190",
".5 c #13d10e",
"#A c #9dc4a2",
"#M c #cacdd8",
".# c #cfd3de",
".g c #d3d6e0",
".l c #c7cad8",
".6 c #13d10e",
"#h c #5dc74f",
".z c #a5aabb",
".s c #c3c7d5",
"#s c #2fc81d",
".e c #bcc1d0",
".J c #44d840",
".9 c #11b503",
".X c #1bb50f",
"#j c #1cea07",
".L c #27af1f",
"#t c #2ae818",
".K c #3fdd3a",
".8 c #40ff2e",
"#. c #46a83f",
"#u c #5fc458",
"#B c #60bf59",
"#k c #67be60",
".W c #6bff5f",
"#R c #8d909d",
".7 c #8ef688",
"#i c #8ff987",
"#Q c #9498a3",
"#P c #969aa4",
"#O c #979ba5",
"#N c #999ca6",
"## c #9dd099",
".G c #a8adbc",
".V c #aff5ac",
".F c #b3b8c6",
".S c #babecb",
".E c #c1c4d0",
".d c #c1c6d3",
".4 c #c2c6d0",
"#f c #c7cad4",
".y c #c8cbd5",
".D c #c9ccd7",
".w c #cbced6",
"#q c #cbced8",
"#L c #ced0da",
"#E c #ced1da",
"#z c #ced2da",
".R c #ced2dd",
"#H c #cfd2db",
".c c #cfd2dd",
".x c #d1d3da",
"#F c #d1d3dc",
".v c #d1d4dd",
".b c #d5d8e3",
".3 c #d6d9e4",
".Q c #d9dce6",
".a c #dbdee6",
".C c #dcdee5",
".k c #dcdfe8",
"#e c #dde0ea",
".p c #dee1e9",
".2 c #dfe2eb",
"#d c #e3e5ed",
"#y c #e3e6ee",
"#p c #e4e6ee",
"#o c #e6e8f0",
"#C c #e6f0e9",
"#c c #e7e9f1",
".Y c #e7f3e6",
".q c #e8eaf1",
"#n c #e8eaf2",
".P c #e9ebf2",
".1 c #e9ecf2",
".M c #e9f4e9",
".r c #ebedf2",
"#m c #ebedf4",
"#x c #eceef5",
"#K c #edeff4",
"#b c #edeff5",
"#D c #eef0f5",
"#l c #eef0f6",
"#v c #eef5f0",
"#J c #eff1f6",
".j c #f0f2f7",
".O c #f1f3f7",
"#w c #f2f4f8",
"#a c #f3f5f8",
".o c #f4f6f8",
".u c #f4f6f9",
".B c #f5f7f9",
".i c #f6f8fa",
".0 c #f7f9fa",
"#I c #f8f9fa",
".N c #fafbfb",
"#G c #fafbfc",
".Z c #fbfbfc",
".n c #fcfcfd",
".h c #fefefe",
"QtQt.#.a.a.a.a.b.c.d.e.fQtQtQtQt",
"QtQt.g.h.h.h.h.i.j.k.k.l.mQtQtQt",
"QtQt.g.h.h.h.h.n.o.p.q.r.s.tQtQt",
"QtQt.g.h.h.h.h.h.u.v.w.x.y.z.AQt",
"QtQt.g.h.h.h.h.h.B.C.D.E.F.G.HQt",
"Qt.I.J.K.L.M.h.h.N.O.P.Q.R.S.TQt",
"Qt.U.V.W.X.Y.h.Z.0.1.2.Q.3.4.TQt",
".5.6.7.8.9#.###a#b#c#d#e#e#f.TQt",
"#g#h#i.8#j#k.0#l#m#n#o#p.2#q.TQt",
"Qt#r#s#t#u#v.u#w#l#x#n#o#y#z.TQt",
"QtQt#A#B#C.B#a#w.O#D#m.P#o#E.TQt",
"QtQt.g.Z.i.i.u#w.O#b#m.P#o#F.TQt",
"QtQt.g.Z.i.i.u#w.O#b#m.P#o#F.TQt",
"QtQt.g#G.B.B.u#w#w#D#m.P#o#H.TQt",
"QtQt.g.Z#I.B#a#a#w#J#K.P.q#L.TQt",
"QtQt#M#N#N#O#O#O#P#P#P#Q#Q#R.TQt"};
