/* XPM */
static const char *indicator[]={
"22 22 133 2",
"   c gray50",
".  c #919165656767",
"X  c #BFBF57575A5A",
"o  c #A4A479797B7B",
"O  c #B0B061616363",
"+  c #EEEE3E3E3F3F",
"@  c #F5F53F3F3F3F",
"#  c #FAFA39393939",
"$  c #FAFA3C3C3C3C",
"%  c #FBFB3C3C3C3C",
"&  c #FAFA3F3F3F3F",
"*  c #FCFC3A3A3A3A",
"=  c #FEFE38383838",
"-  c #FFFF38383838",
";  c #EAEA3F3F4040",
":  c #C5C54A4A4C4C",
">  c #CDCD47474848",
",  c #D7D744444545",
"<  c #DEDE42424444",
"1  c #D3D353535454",
"2  c #D4D458585A5A",
"3  c #DCDC58585959",
"4  c #D4D45F5F6262",
"5  c #DFDF5F5F6262",
"6  c #C7C770707070",
"7  c #D3D362626565",
"8  c #D0D065656666",
"9  c #E5E542424444",
"0  c #EBEB44444545",
"q  c #EDED42424343",
"w  c #EDED47474949",
"e  c #EAEA4A4A4C4C",
"r  c #EEEE57575858",
"t  c #F4F443434444",
"y  c #F4F447474848",
"u  c #F7F74F4F4F4F",
"i  c #FAFA41414141",
"p  c #F9F947474747",
"a  c #F5F553535454",
"s  c #F7F758585959",
"d  c #EEEE6C6C6D6D",
"f  c #F1F16E6E6F6F",
"g  c #F8F890903434",
"h  c #F2F2ADAD1C1C",
"j  c #EAEAABAB3434",
"k  c #FBFBCFCF0909",
"l  c #FEFECFCF0D0D",
"z  c #FDFDC1C11C1C",
"x  c #FFFFDADA0202",
"c  c #FDFDDFDF0A0A",
"v  c #FDFDD7D71B1B",
"b  c #FDFDC6C62020",
"n  c #FCFCC6C62D2D",
"m  c #FCFCC7C73333",
"M  c #FCFCE6E61919",
"N  c #FCFCE0E03232",
"B  c #FEFEF2F22121",
"V  c #FFFFFEFE3939",
"C  c #FAFACACA4242",
"Z  c #FAFACCCC4C4C",
"A  c #F9F9CFCF5858",
"S  c #F6F6D9D94141",
"D  c #F9F9D1D15555",
"F  c #F8F8DBDB6464",
"G  c #F7F7D5D57272",
"H  c #F6F6D7D77979",
"J  c #F7F7D9D97979",
"K  c #F6F6DBDB7E7E",
"L  c #FFFFFCFC4747",
"P  c #838383838484",
"I  c #888888888888",
"U  c #8E8E91919393",
"Y  c #97978D8D8E8E",
"T  c #9D9D84848585",
"R  c #929294949696",
"E  c #999997979898",
"W  c #9B9B9C9C9C9C",
"Q  c #9B9B9C9C9D9D",
"!  c #9B9B9D9D9D9D",
"~  c #9E9E9E9E9F9F",
"^  c #9E9E9F9F9F9F",
"/  c #A5A585858787",
"(  c #B8B892929595",
")  c #BABAA9A99696",
"_  c #AFAFAFAFB0B0",
"`  c #C4C484848787",
"'  c #C3C387878B8B",
"]  c #C2C288888D8D",
"[  c #C4C493939898",
"{  c #C5C5B3B3B7B7",
"}  c #D5D5A0A0A2A2",
"|  c #E8E885858686",
" . c #EAEA9B9B9E9E",
".. c #F3F380808181",
"X. c #F5F585858686",
"o. c #F3F38C8C8D8D",
"O. c #F3F38F8F9191",
"+. c #F3F39D9D9F9F",
"@. c #ECECB9B9BCBC",
"#. c #F3F3A4A4A5A5",
"$. c #F5F5DADA8B8B",
"%. c #F5F5DBDB9292",
"&. c #F4F4DEDE9D9D",
"*. c #FFFFFEFE9898",
"=. c #F3F3E1E1ABAB",
"-. c #F3F3E1E1ADAD",
";. c #FFFFFBFBABAB",
":. c #C9C9C3C3C7C7",
">. c #CACACBCBCFCF",
",. c #D4D4D5D5D7D7",
"<. c #D0D0D3D3D8D8",
"1. c #D5D5D6D6D8D8",
"2. c #D6D6D7D7D9D9",
"3. c #DADADDDDE1E1",
"4. c #EEEED3D3D6D6",
"5. c #F2F2C8C8CBCB",
"6. c #F1F1CACACDCD",
"7. c #F1F1CFCFD1D1",
"8. c #F0F0DADADDDD",
"9. c #E7E7DEDEE1E1",
"0. c #EFEFDFDFE2E2",
"q. c #F0F0E5E5C3C3",
"w. c #F0F0EAEAD6D6",
"e. c #F0F0EAEADCDC",
"r. c #E5E5E6E6E9E9",
"t. c #E4E4E6E6EAEA",
"y. c #EFEFEDEDE6E6",
"u. c #EFEFEDEDE7E7",
"i. c #EBEBECECEFEF",
"p. c #EEEEEAEAEDED",
"a. c #EEEEECECEFEF",
"s. c #EEEEEFEFF2F2",
"d. c None",
/* pixels */
"d.d.d.d.d.d.d.d.d.d.d.d.d.d.d.d.d.$.d.d.d.d.",
"d.d.d.d.d.d.d.d.d.d._ _ d.d.d.d.d.Z K d.d.d.",
"d.d.d.d.d.d.d.d.d.d.P P d.d.A &.d.m D u.%.J ",
"d.d.d.d.d.d.d.d.d.W     W d.=.z b c M v n d.",
"d.d.d.d.d.d.d.d.d.d.^ ^ d.d.d.-.l V *.N d.d.",
"d.d.d.d.d.d.d.d.d.d.^ ^ d.d.d.C x L ;.B K d.",
"d.d.d.d.d.d.d.d.d.d.^ ^ d.d.m Z g k S F n G ",
"d.d.d.d.d.d.d.d.d.d.^ W d.d.d.d.% h H d.d.d.",
"d.d.d.d.d.X.d d.d.d.^ ^ d.d.d.d.- j d.d.d.d.",
"d.d.d.d.s % @ t d.d.^ ^ d.d.d.#.- ) Q d.d.d.",
"d.W ^ 6 = . T # X W I I ^ ^ ^ 2 ; U   P _ d.",
"d.^ ^ 0 > R ^ 1 q R I I ^ ^ ^ q : W   P _ d.",
"d.d.d.= ] d.d.d.= } ^ ^ d.d.d.= ' d.W d.d.d.",
"d.d.f @ d.d.d.d.y 5 ^ ^ d.d.O.% d.d.d.d.d.d.",
"d.d.p 8 d.d.d.d.| = Y ^ d.d.u 3 d.d.d.d.d.d.",
"d.d.% [ d.d.d.d.d.= O ^ d.d.= ` d.d.d.d.d.d.",
"d.#.= d.d.d.d.d.d.r < W d.o.= :.d.d.d.d.d.d.",
"d.f e d.d.d.d.d.d. .= o d.% 4 d.d.d.d.d.d.d.",
"d.p 7 d.d.d.d.d.d.d.9 + u % _ d.d.d.d.d.d.d.",
"d.= ` d.d.d.d.d.d.d./ , w ( d.d.d.d.d.d.d.d.",
"d.- { d.d.d.d.d.d.d.^ W d.d.d.d.d.d.d.d.d.d.",
"d.d.d.d.d.d.d.d.d.d.d.d.d.d.d.d.d.d.d.d.d.d."
};
