/* XPM */
static const char *insert[]={
"16 16 218 2",
".k c None",
".j c None",
"bp c #000000",
"bg c #000000",
"bq c #000000",
"#F c #000305",
"br c #000000",
"Qt c #eead34",
"bx c #000000",
"bs c #000000",
".L c #000000",
"#b c #040000",
".Z c #000000",
"bw c #000000",
"bt c #000000",
"bv c #000000",
"bu c #000000",
"bh c #000000",
"bj c #000000",
"bi c #000000",
"bo c #00162b",
".g c #31240d",
".c c #dea73c",
".h c #ecac35",
".# c #eeaa2d",
".a c #eeaa2f",
".b c #f2ab2c",
".i c #f9b63a",
"#U c #002145",
".x c #240c00",
"#8 c #001e45",
"aA c #001c45",
"al c #001d45",
"bf c #001f4a",
"a2 c #4b3014",
"bk c #00152f",
"#E c #003875",
"#p c #17477c",
".d c #7190c2",
".K c #3e1600",
".w c #8a5f17",
".Y c #371100",
".l c #efb852",
".f c #3a4c75",
"#a c #3f2921",
"bn c #004d9d",
"bl c #004e9d",
"bm c #004893",
"a3 c #8c5028",
"a8 c #844218",
"a7 c #874b1d",
"a6 c #874b1e",
"a5 c #874c1f",
"a4 c #874d25",
".e c #94aad0",
".M c #efbd5e",
".0 c #efbd5f",
"#c c #efbd60",
"#q c #efbe62",
"am c #efbe63",
"aB c #efbe64",
"#T c #198eff",
"#S c #3a8ef6",
".C c #5278bd",
".H c #535662",
"#D c #53a6ff",
".G c #5681cb",
"#7 c #59a9ff",
"ak c #66b1ff",
"be c #67bbff",
".E c #6c8bc1",
"az c #6eb5ff",
"a9 c #736569",
"aN c #73b9ff",
".D c #748fc2",
".F c #7594c8",
"a1 c #75bbff",
".Q c #808482",
".t c #818183",
".U c #846942",
".T c #857152",
".R c #868479",
".S c #877b68",
"ai c #87b3fa",
"aj c #8cb5fc",
"#R c #8fc0f9",
"ax c #92bcfb",
"aw c #97c0fb",
"ah c #9ac1fb",
"ay c #9bc0fc",
"aZ c #9bc1fb",
".B c #9eaab0",
"aL c #9fc3fb",
"aY c #a1c4fb",
"#k c #a1ceff",
"#6 c #a2c4ff",
"#o c #a2ccff",
"a0 c #a4c4fd",
"av c #a4c6fb",
"aK c #a4c7fb",
".V c #a56325",
"aM c #a5c6fd",
"aJ c #a6c7fb",
"#C c #a6c9fe",
"#n c #a8cdff",
".p c #a9a38e",
"#A c #accefa",
"ag c #accefb",
"#B c #aecefb",
"#m c #b0d2ff",
"#x c #b3925c",
"#M c #b49865",
"#1 c #b49a6a",
"aH c #b49b6a",
"ad c #b49c6c",
"at c #b49c6e",
"bc c #b5dbff",
"#j c #b69b68",
"aX c #b6d3fb",
"bd c #b6daff",
"#P c #b9d6fb",
"aV c #baa87f",
".P c #bbb39d",
"#4 c #bbd6fc",
"#3 c #bbd7fb",
"#l c #bbd8ff",
"bb c #bbdeff",
"b. c #bde9ff",
"#Q c #c0d8fc",
"ba c #c0e0ff",
"## c #c16621",
"af c #c2dbfb",
"aI c #c3dbfb",
"#5 c #c7dbfe",
".q c #c8d7ec",
"#z c #c8e0fa",
"#. c #cb6c21",
"ae c #cbe5ff",
"au c #cbe6ff",
"#N c #cce6ff",
"#2 c #cde2fb",
"b# c #cde9ff",
"#O c #cee3fb",
"aW c #cee6ff",
"#y c #d1eaff",
".9 c #d3761a",
".s c #d6e3f6",
".u c #d89c2a",
".8 c #da9224",
".v c #e2a72e",
".7 c #e8ad3b",
".X c #e95600",
".y c #efbe61",
".n c #f1cb75",
".m c #f1cf85",
".J c #f26805",
"#w c #f29d0e",
"#L c #f29e0e",
"#0 c #f2a81a",
"ac c #f2a91f",
"as c #f2aa21",
"#i c #f2b336",
".2 c #f2e2b2",
".r c #f2f7fd",
"aF c #f3b63b",
"#Y c #f3b73e",
"aa c #f3b841",
"aE c #f3b943",
"aq c #f3ba44",
"aD c #f3bb48",
"ap c #f3bc4e",
"ao c #f3bf5b",
"#J c #f3c055",
"a# c #f3c159",
"#X c #f3cb71",
"a. c #f3cc73",
"#u c #f3d078",
"#t c #f3d489",
"#g c #f3d588",
"#I c #f3d68d",
"#s c #f3d78e",
"#W c #f3d790",
"#H c #f3da92",
"#f c #f3dda0",
"aC c #f3dfa9",
"#e c #f3e0ab",
"an c #f3e3b7",
"#G c #f3e4b5",
"#V c #f3e4ba",
"#9 c #f3e4bc",
"#r c #f3e6bb",
"#d c #f3e9cb",
".1 c #f3eacf",
".N c #f3f0d8",
".z c #f3f0df",
"#K c #f4ad2a",
"aG c #f4b132",
"#Z c #f4b436",
"ab c #f4b438",
"ar c #f4b53b",
"#v c #f4bb4b",
"#h c #f4cc6f",
".o c #f7cf76",
".O c #f9e9b7",
".I c #fa8902",
"aU c #fbbd41",
"aO c #fbc969",
".3 c #fbe7ad",
".W c #fc6800",
"aS c #fccb62",
"aR c #fccf6a",
"aQ c #fcd376",
"aP c #fce8b4",
"aT c #fdc95a",
".A c #fef2bf",
".6 c #ffce61",
".5 c #ffe086",
".4 c #ffe99f",
"Qt.#.a.b.c.d.e.f.g.h.i.j.k.k.k.k",
".l.m.n.o.p.q.r.s.t.u.v.w.x.k.k.k",
".y.z.A.B.C.D.E.F.G.H.I.J.K.L.k.k",
".M.N.O.P.Q.R.S.T.U.V.W.X.Y.Z.k.k",
".0.1.2.3.4.5.6.7.8.9#.###a#b.k.k",
"#c#d#e#f#g#h#i#j#k#l#m#n#o#p.k.k",
"#q#r#s#t#u#v#w#x#y#z#A#B#C#D#E#F",
"#q#G#H#I#J#K#L#M#N#O#P#Q#R#S#T#U",
"#q#V#W#X#Y#Z#0#1#N#2#3#4#5#6#7#8",
"#q#9a.a#aaabacadaeafagahaiajakal",
"amanaoapaqarasatauafavawaxayazaA",
"aBaCaDaEaFaG#0aH#NaIaJaKaLaMaNaA",
"aOaPaQaRaSaTaUaVaWaXaKaYaZa0a1aA",
"a2a3a4a5a6a7a8a9b.b#babbbcbdbebf",
"bgbhbibibibibjbkblbmbmbmbmbmbnbo",
".kbpbqbqbqbqbrbsbtbubvbvbvbubwbx"};
