/* XPM */
static const char *macro[]={
"16 16 153 2",
"Qt c None",
"#c c #000000",
".1 c #000000",
".c c #356d9b",
"aw c #000000",
"#P c #000000",
"ap c #2169d8",
"#Z c #3c8de6",
"#F c #4193e8",
"av c #000000",
".8 c #143e7d",
"#d c #48bfdf",
"#A c #56aff3",
"#8 c #000000",
".f c #60bcf8",
"#9 c #2f75c9",
".2 c #3284ad",
"a# c #000000",
"ah c #246dda",
".# c #5cb7f6",
"#s c #030b18",
"#t c #4899e1",
".K c #59b3f5",
"au c #052052",
"ag c #062767",
".e c #4a9fec",
".J c #235899",
"at c #0e4bbd",
".n c #3b83c9",
"#Q c #3f90e7",
"as c #0e3477",
"al c #103d8d",
"#B c #5edfff",
".Q c #296ca0",
"#u c #3878b5",
"#i c #1a54b1",
"aa c #2568c5",
"ao c #09358d",
".d c #4fa4ef",
".h c #5ab4f6",
"a. c #2966b4",
"#n c #3c8cda",
".W c #266ec6",
".P c #2a70a5",
"#o c #58e7ff",
"#E c #135dcd",
".0 c #2561ae",
"#Y c #0c41a0",
".g c #5eb9f7",
".R c #3284c1",
".y c #338ce2",
"#z c #46a2eb",
"#7 c #0c4aae",
"aq c #1a67c8",
".b c #48b8f5",
"#j c #3c9bf4",
".X c #41aff7",
".a c #46bff8",
".o c #49baf9",
".x c #3399ea",
"#b c #2786d9",
".9 c #3899f6",
"#O c #0c62cd",
"ar c #1376cf",
"#K c #43b7fe",
".3 c #46b9e7",
"#J c #3eb1fb",
"#r c #1570d7",
"#0 c #299bea",
".z c #3497fa",
".7 c #1b85e5",
"ak c #127cda",
"#2 c #2190e2",
".O c #3084d7",
".L c #52adf4",
"#e c #54dcf9",
"#v c #2893f0",
".k c #2bc1f6",
".S c #3b9bdc",
"#G c #2599f2",
".w c #26aef0",
"af c #0775e2",
"#L c #33b2ff",
"an c #0795e4",
".l c #1dc9f9",
"#I c #2ba7fa",
"am c #0a9ae7",
"#5 c #0095ff",
"#V c #0096ff",
"#. c #009eff",
"#N c #009fff",
"#w c #00a2ff",
".A c #00a3ff",
"#S c #00a4ff",
"#x c #00a6ff",
"## c #00adff",
"#T c #00aeff",
"#W c #00b0ff",
"#U c #00b6ff",
"#a c #00b8ff",
".Y c #00c2ff",
"#4 c #00c5ff",
".B c #00d3ff",
"aj c #00defe",
"ae c #00dffe",
".r c #02dafe",
"#l c #0382fe",
"ac c #0490f9",
".N c #04c2fc",
"#X c #059cf0",
"#M c #05a0ff",
".Z c #05b9fc",
"#H c #089efe",
"#h c #0999f5",
"#D c #0a8bef",
"ad c #0ab0ef",
".p c #0ad8fe",
"#6 c #0b70e4",
"#g c #0bbafe",
".6 c #0caaf5",
"ab c #0cadf4",
"#q c #0cb2ff",
".i c #0cbcfe",
".j c #0cdafd",
"ai c #0db5f1",
"#k c #0e82fc",
".M c #0eaefd",
"#R c #0eb4fa",
"#3 c #0eb8f5",
"#1 c #0ebcf7",
".s c #10aff0",
"#m c #11a5f8",
".H c #16c4fa",
"#y c #17a3f9",
".I c #1aaaf0",
".v c #1ab7f3",
".C c #1b8fe4",
".t c #1c98e5",
".u c #1e9de8",
".m c #20c3f6",
".V c #22b0f4",
".q c #22cafb",
".D c #307fd6",
".E c #3180d4",
".F c #3282d6",
".G c #3994e4",
".T c #3da0e2",
".U c #45a6e9",
".5 c #49bdf6",
".4 c #49c0ee",
"#C c #4bc4ff",
"#f c #5ad4fb",
"#p c #60dcff",
"QtQtQt.#.a.b.c.d.eQtQtQtQtQtQtQt",
"Qt.f.g.h.i.j.k.l.m.nQtQtQtQtQtQt",
"Qt.o.p.q.r.s.t.u.v.w.x.yQtQtQtQt",
"Qt.z.A.B.C.D.E.E.F.G.H.I.JQtQtQt",
".K.L.M.N.O.P.Q.R.S.T.U.V.WQtQtQt",
".X.Y.Y.Z.0.1QtQt.2.3.4.5.6.7.8Qt",
".9#.###a#b#cQtQtQt#d#e#f#g#h#iQt",
"#j#k#l###m#nQtQtQtQt#o#p#q#r#sQt",
"#t#u#v#w#x#y#z#AQtQt#B#C#x#D#EQt",
"Qt#F#G#.#.#.#H#I#J#K#L#M#N#w#O#P",
"Qt#Q#R#S#T#U#.#V#V#V#V#V#W#X#Y.1",
"Qt#Z#0#1#2#3#4#5#5#a#W#5#6#7#8Qt",
"QtQt#9a.a#aaab#Vacadae#WafagQtQt",
"QtQtQtQtQtahaiajakalamanao#PQtQt",
"QtQtQtQtQtapaqaras.1atauavQtQtQt",
"QtQtQtQtQtQtQtawawQtQtQtQtQtQtQt"};
