/* XPM */
static const char *nav[]={
"22 22 58 1",
". c None",
"S c #000000",
"p c #303030",
"Y c #484848",
"a c #494949",
"X c #525252",
"R c #545454",
"P c #565656",
"v c #575757",
"# c #585858",
"h c #777777",
"i c #aaaaaa",
"3 c #b9b9b9",
"o c #bbbbbb",
"B c #bcbcbc",
"I c #bdbdbd",
"n c #bebebe",
"m c #bfbfbf",
"l c #c2c2c2",
"k c #c4c4c4",
"j c #c6c6c6",
"V c #c8c8c8",
"g c #c9c9c9",
"b c #cacaca",
"c c #cbcbcb",
"d c #cccccc",
"e c #cdcdcd",
"f c #cecece",
"2 c #dfdfdf",
"1 c #e1e1e1",
"A c #e2e2e2",
"O c #e3e3e3",
"z c #e4e4e4",
"0 c #e5c9a0",
"H c #e5e5e5",
"N c #e6e6e6",
"y c #e7e7e7",
"G c #e8e8e8",
"Q c #e9e9e9",
"x c #eaeaea",
"M c #ebebeb",
"w c #ececec",
"F c #ededed",
"L c #eeeeee",
"W c #f0f0f0",
"t c #f1f1f1",
"T c #f2f2f2",
"Z c #f3eae0",
"q c #f3f3f3",
"U c #f4f4f4",
"r c #f5f5f5",
"s c #f6f6f6",
"C c #f7f7f7",
"D c #f8f8f8",
"E c #f9f9f9",
"J c #fbfbfb",
"K c #fcfcfc",
"u c #ffffff",
"......................",
"#################a....",
"#bcdefg.chijklmnop....",
"#cqrsstucvcwxyzABp....",
"#drCDEqucvdFxGHAIp....",
"#esDJKsucvdLMGNOIp....",
"#fsEKuCucPeLMQNOIp....",
"#esDJKsucRdLMGNOIp....",
"#drCDEq##############S",
"#cqrsst#xxxxxxxxxxxxxS",
"#btTqUL#xuSuuuuuuuuuxS",
"#VLWWtM#xuSuuuXXXYuuxS",
"#jwFLLQ#xuSuuuXuZSuuxS",
"#kxxMMN#xuSSSuXZ0SuuxS",
"#lyGGQO#xuSuuuYSSSuuxS",
"#mzHNN1#xuSuuuuuuuuuxS",
"#nAAOO2#xuSuuuXXYYuuxS",
"#oBIII3#xuSuuuXuZSuuxS",
"apppppp#xuSSSuXZ0SuuxS",
".......#xuuuuuYSSSuuxS",
".......#xxxxxxxxxxxxxS",
".......SSSSSSSSSSSSSSS"};
