/* XPM */
static const char *newchart[]={
"22 22 49 1",
". c None",
"r c #000000",
"a c #585858",
"m c #686868",
"z c #696969",
"h c #898989",
"# c #999999",
"y c #9f9f9f",
"U c #a3a3a3",
"O c #a7a7a7",
"T c #a9a9a9",
"J c #acacac",
"c c #afafaf",
"G c #b0b0b0",
"S c #b4b4b4",
"d c #b6b6b6",
"l c #b7b7b7",
"w c #b8b8b8",
"R c #bababa",
"u c #bdbdbd",
"p c #c0c0c0",
"x c #c1c1c1",
"Q c #c5c5c5",
"N c #c9c9c9",
"P c #cacaca",
"I c #d0d0d0",
"M c #d5d5d5",
"F c #d6d6d6",
"L c #dadada",
"E c #dbdbdb",
"v c #dedede",
"k c #e0e0e0",
"i c #e2e2e2",
"t c #e4e4e4",
"K c #e6e6e6",
"b c #eaeaea",
"H c #ececec",
"o c #f2f2f2",
"A c #f3f3f3",
"s c #f4f4f4",
"j c #f5f5f5",
"g c #f6f6f6",
"n c #f7f7f7",
"D c #f8f8f8",
"B c #fbfbfb",
"f c #fcfcfc",
"C c #fdfdfd",
"q c #fefefe",
"e c #ffffff",
"......................",
"....##########a.......",
"....#bbbbbbbbcda......",
"....#beeeeeeeceda.....",
"....#beeeeeefceeda....",
"....#beeeeegec##ha....",
"....#beeeeeiejkdda....",
"....#beeeeelefgkda....",
"....#beeeeehefgkda....",
"....#beeceemfnobpa....",
"....#beeemqrsmctua....",
"....#beeeqrrrbtvwa....",
"....#bxyzrrArrmhca....",
"....#bsBCDrrriEFGa....",
"....#boDDmHrkmFIJa....",
"....#boocHKmLMcNOa....",
"....#boooHKhLMINOa....",
"....#bIIIPQcRScTUa....",
"....aaaaaaaaaaaaaa....",
"......................",
"......................",
"......................"};
