/* XPM */
static const char *newgroup[]={
"16 16 30 1",
"  c black",
". c gray4",
"X c gray7",
"o c #1e1e1e",
"O c #222222",
"+ c gray18",
"@ c #303030",
"# c #414141",
"$ c #4b4b4b",
"% c #525252",
"& c #646464",
"* c #6c6c6c",
"= c #7c7c7c",
"- c #848484",
"; c #898989",
": c #939393",
"> c #9d9d9d",
", c gray63",
"< c #ababab",
"1 c #b6b6b6",
"2 c gray73",
"3 c #ffffa7",
"4 c #c3c3c3",
"5 c #cdcdcd",
"6 c gray83",
"7 c #dddddd",
"8 c #e3e3e3",
"9 c #f6f6f6",
"0 c white",
"q c None",
/* pixels */
"qqqqqqqqqqqqqqqq",
"qqqqqqqqqq3qqqqq",
"qqqqqqqqqqqqqqqq",
"qqqqqqqqqq3qqqqq",
"qq%%%%qq3q3q3qqq",
"q%=>:=%%%303qqqq",
"q%>::-333000333q",
"q%::+%%%%303%%qq",
"q%:*%99634313*qq",
"q%;+;7842<3:*qqq",
"q%&%76741<>&*qqq",
"q%+-5661<,3*qqqq",
"q%%62441,:**qqqq",
"q%->>,,;;-*qqqqq",
"q%*********qqqqq",
"qqqqqqqqqqqqqqqq"
};
