/* XPM */
static const char *next[]={
"16 16 120 2",
"Qt c None",
".T c #656565",
".U c #3268cc",
".# c #3269d1",
".e c #3665bd",
".A c #3269d0",
".f c #3269d1",
"#X c #656565",
"#J c #3765b9",
".p c #3269d1",
".K c #3e62a5",
"#I c #656565",
".o c #3765b9",
".1 c #486190",
"#Q c #3b65b3",
"#C c #4f6184",
"#P c #4e6286",
".2 c #3268cc",
".a c #3269cf",
".d c #3268ca",
".z c #3b66b6",
"#W c #4d648e",
"## c #3a64b3",
"#a c #3268cc",
".b c #3268cd",
".c c #3268cc",
"#u c #3d64ac",
"#f c #3b66b7",
"#m c #3c66b6",
".g c #3269d2",
".L c #3269cf",
"#D c #3368ca",
".n c #3368ca",
".S c #3467c4",
"#H c #3766be",
".B c #326ad2",
".q c #326ad3",
"#K c #346acc",
"#R c #356acc",
"#O c #3469cb",
"#V c #3569ca",
".y c #3269ce",
".J c #3269ce",
".m c #326bd4",
".h c #326cd7",
".0 c #326ad3",
"#Y c #3e71cf",
"#B c #326ad3",
"#1 c #3e70cf",
"#. c #3471e3",
".l c #3472e4",
".i c #3472e5",
"#n c #3572e4",
"#e c #3676eb",
"#l c #3776eb",
".3 c #3873e0",
".9 c #3b80ff",
"#k c #3c81ff",
"#s c #3d82ff",
"#t c #4083ff",
"#x c #4084ff",
"#q c #4385fd",
"#g c #447ce5",
"#z c #4486fc",
"#p c #4586fc",
"#o c #4686fc",
"#A c #4687fc",
"#v c #4887fc",
"#w c #4888fc",
".r c #4980e6",
".8 c #4987f8",
"#b c #4a7fe2",
"#E c #4a80e4",
".j c #5183e0",
".x c #5789e4",
".R c #5a8ae3",
".k c #5b88dc",
"#Z c #5e88d5",
".C c #6494ec",
"#S c #658edb",
"#F c #6696ee",
"#L c #6c94e0",
"#j c #6ca0ff",
"#0 c #6e95dc",
"#h c #6e99e8",
"#y c #6fa2fe",
".I c #799fe5",
"#M c #7ea3e6",
"#c c #8cace5",
"#G c #8cb0f2",
"#T c #8dace7",
"#U c #8eade8",
".V c #90b1ec",
".Z c #97b3e4",
"#d c #9dc0ff",
"#N c #9ebaec",
".4 c #a1bae9",
".s c #a8c2f5",
".Y c #b7caee",
".G c #b8ccee",
".w c #b9ccf0",
".5 c #baccef",
".M c #c4d4f1",
".W c #c9d8f2",
".Q c #cbd9f3",
".N c #cddaf4",
"#r c #cedfff",
".6 c #d1ddf4",
".D c #d4e0f4",
".H c #dce6f6",
"#i c #dce6f9",
".E c #e1e9f8",
".t c #e4ebf8",
".7 c #e7eef9",
".v c #ebf0fa",
".X c #edf2fa",
".u c #f2f5fb",
".P c #f2f5fc",
".F c #f7f9fd",
".O c #ffffff",
"QtQtQtQtQt.#.a.b.c.d.eQtQtQtQtQt",
"QtQtQt.f.g.h.i.j.k.l.m.n.oQtQtQt",
"QtQt.p.q.r.s.t.u.u.v.w.x.y.zQtQt",
"Qt.A.B.C.D.E.E.F.F.G.E.H.I.J.KQt",
"Qt.L.r.M.N.N.N.O.O.P.G.N.Q.R.S.T",
".U.m.V.G.G.G.G.W.O.O.X.G.Y.Z.0.1",
".2.3.4.5.6.6.6.6.7.O.O.t.8.9#.##",
"#a#b#c.O.O.O.O.O.O.O.O.O#d.9#e#f",
".c#g#h#i.O.O.O.O.O.O.O.O#j#k#l#m",
".d#n#o#o#o#p#q#k#r.O.O#j#s#t.l#u",
".e.m#v#w#w#w#x#r.O.O#y#z#A#v#B#C",
"Qt#D#E#F#F#F#F.O.O#G#F#F#F#E#H#I",
"Qt#J#K#L#M#M#M#N#N#M#M#M#L#O#P.T",
"QtQt#Q#R#S#T#U#U#U#U#T#S#V#W#XQt",
"QtQtQt.K.S#Y#Z#0#0#Z#1#H#P#XQtQt",
"QtQtQtQt.T.1###f#m#u#C#I.TQtQtQt"};
