/* XPM */
static const char *openitem[]={
"24 24 204 2",
"Qt c None",
".# c #000000",
"aP c #0b0704",
"bj c #101010",
"b# c #131313",
"b. c #141413",
".o c #150f09",
"ap c #151514",
"aZ c #171716",
"#n c #191919",
".K c #25170c",
"bi c #252524",
".a c #26190e",
"bh c #262625",
".c c #271a0f",
".b c #271c11",
"bg c #272727",
"ab c #282827",
"bf c #282828",
".J c #291a0e",
"be c #2a2a2a",
"bb c #2b2b2b",
"aY c #2c2c2b",
"bc c #2d2d2c",
"bd c #2d2d2d",
".I c #2e1d0f",
".H c #322011",
"ba c #323232",
".5 c #343434",
"#G c #363635",
".G c #372312",
".d c #3b2714",
".F c #3c2714",
".v c #3d2815",
".E c #402915",
"aB c #442c17",
".D c #452c17",
"aq c #46301a",
".L c #46301b",
".C c #4a3019",
".B c #4b3119",
".P c #53504d",
"as c #55504c",
".6 c #563d25",
"#s c #58534e",
"ac c #594027",
"a9 c #5a5a58",
"#2 c #5d564f",
"ao c #5e5e5c",
"#m c #5e5e5d",
"#o c #5f452a",
"aO c #676766",
"ae c #684a2d",
"#Z c #694d31",
"aQ c #6d6864",
"#Y c #6d6d6c",
"#J c #6f4f2f",
"#F c #7b7b79",
"a8 c #7d7d7c",
"aX c #7f7f7e",
".A c #80532c",
"#l c #818180",
"aA c #818181",
"af c #888888",
"a7 c #8a8a88",
"#k c #8b8b89",
"a6 c #8b8b8a",
"#X c #8c8c8b",
"aN c #8d8d8c",
"#E c #8e8e8d",
"#K c #8f8e8c",
"an c #90908f",
"aW c #919190",
"aC c #919191",
"a5 c #939393",
"#j c #959595",
"aa c #979796",
"a1 c #999998",
"az c #9a9a98",
"a4 c #9a9a99",
"a0 c #9a9a9a",
"#D c #9b9b9a",
"a2 c #9c9c9b",
"aM c #9d9d9b",
"aV c #9d9d9c",
"#W c #9e9e9c",
"#i c #9e9e9d",
"a3 c #9f9f9d",
"am c #a0a09e",
"aU c #a2a2a1",
"ay c #a3a3a2",
"a# c #a4a4a3",
"#C c #a5a5a3",
"aL c #a5a5a4",
"#h c #a7a7a6",
".O c #a86f3c",
"aT c #a9a9a7",
"al c #a9a9a8",
"ax c #acacab",
"aR c #adadac",
"a. c #aeaead",
".4 c #aeaeae",
"#B c #afafad",
".3 c #afafaf",
"#g c #b0b0af",
"#V c #b1b1b0",
"ak c #b2b2b1",
"aw c #b3b3b2",
".2 c #b4b4b3",
"ar c #b57740",
"aS c #b6b6b5",
"#9 c #b7b7b6",
"#f c #b8b8b7",
"aK c #b9b9b7",
"aj c #b9b9b8",
"#U c #babab9",
".1 c #bbbbba",
"aD c #bdbdbb",
"#1 c #be8550",
"aJ c #bfbfbe",
"#8 c #c0c0be",
"#e c #c0c0bf",
"#A c #c1c1c0",
".0 c #c2c2c1",
"#r c #c38954",
"aE c #c3c3c1",
"aI c #c3c3c2",
"#T c #c4c4c2",
"aH c #c6c6c5",
"aF c #c7c7c5",
"#d c #c7c7c6",
"aG c #c8c8c6",
".Z c #c8c8c7",
"ai c #c9c9c8",
"#z c #cacac9",
"at c #cacaca",
"av c #cdcdcb",
"#S c #cdcdcc",
"#7 c #cfcfce",
".Y c #d0d0ce",
"ah c #d0d0cf",
"#c c #d1d1d0",
"au c #d2d2d1",
"#y c #d3d3d1",
"#L c #d4d4d3",
"#R c #d5d5d4",
".X c #d6d6d5",
"#6 c #d8d8d6",
"#b c #d9d9d8",
"ag c #dcdcdb",
"#x c #dddddb",
".W c #dddddc",
"#Q c #dededd",
"#4 c #e0e0df",
"#M c #e1e1e0",
"#a c #e1e1e1",
"#u c #e2e2e1",
".V c #e3e3e3",
"#3 c #e4e4e3",
"## c #e4e4e4",
".i c #e5a566",
"#P c #e5e5e3",
"#5 c #e5e5e4",
"#O c #e7e7e6",
"#. c #e7e7e7",
"#N c #e9e9e8",
"#I c #ea9e58",
"#v c #eaeae9",
".U c #eaeaea",
"#w c #ebebea",
".z c #eea059",
".T c #f1f1f1",
".9 c #f2a55c",
"#t c #f2f2f2",
"ad c #f3a45b",
".e c #f4ad6a",
".S c #f5f5f5",
".n c #f6b675",
".R c #f7f7f7",
".u c #f8ac62",
".t c #f9ac62",
"#q c #fbb269",
".s c #fcb269",
".N c #fdb56e",
".h c #fdb773",
"#0 c #feb469",
"#H c #feb972",
".8 c #fec182",
".g c #fec27f",
".f c #fec280",
".y c #fec282",
"#p c #fec283",
".p c #fec385",
".7 c #fec685",
".w c #fec888",
".m c #fec88b",
".M c #feca8f",
".j c #fecb93",
".r c #fece92",
".l c #fece93",
".x c #fed199",
".k c #fed39a",
".q c #fed59c",
".Q c #ffffff",
"QtQtQtQtQtQtQtQtQtQtQtQtQtQtQtQtQtQtQtQtQtQtQtQt",
"QtQtQtQtQtQtQtQtQtQt.#.#.#.#.#QtQtQtQtQtQtQtQtQt",
"QtQtQtQtQtQtQtQt.#.#.#.#.#.#.#.#.#Qt.#QtQtQtQtQt",
"QtQtQtQtQtQtQt.#.#QtQtQtQtQtQt.#.#.#.#QtQtQtQtQt",
"QtQtQtQtQtQt.#QtQtQtQtQtQtQtQtQt.#.#.#QtQtQtQtQt",
"QtQtQtQtQtQtQtQtQtQtQtQtQtQtQt.#.#.#.#QtQtQtQtQt",
"QtQtQt.a.b.b.cQtQtQtQtQtQtQtQtQtQtQtQtQtQtQtQtQt",
"QtQt.d.e.f.g.h.dQtQtQtQtQtQtQtQtQtQtQtQtQtQtQtQt",
"Qt.d.i.j.k.l.m.n.d.o.o.o.o.o.o.o.oQtQtQtQtQtQtQt",
"Qt.d.p.q.r.f.s.t.u.u.u.u.u.u.u.u.u.dQtQtQtQtQtQt",
"Qt.v.w.x.y.z.A.B.C.C.C.D.E.F.G.H.I.J.K.#.#.#.#Qt",
"Qt.L.w.M.N.O.P.Q.R.S.T.U.V.W.X.Y.Z.0.1.2.3.4.5Qt",
"Qt.6.7.8.9.C.Z#.###a#b#c#d#e#f#g#h#i#j#k#l#m#nQt",
"Qt#o#p#q#r#s#t#u#v#w.V#x#y#z#A#f#B#C#D#E#F#GQtQt",
"QtQt#H#I#J#K#L#M#N#O#P#Q#R#S#T#U#V#h#W#X#Y.#QtQt",
"Qt#Z#0#1#2#3#R#4#5#u.W#6#7.Z#8#9a.a#aa#labQtQtQt",
"Qtacadaeaf#z#L.Wag#b#Rahai.0ajakalamanaoapQtQtQt",
"Qtaqaras.Wat#7#Lauahav.Z#A.1awaxayazaA#GQtQtQtQt",
"Qt.daBaC#9aDaEaFaGaHaIaJaKawaxaLaMaNaO.#QtQtQtQt",
"QtaPaQ.ZaRawaSaK.1#UaSawa.aTaUaVaWaXaYQtQtQtQtQt",
"QtaZaCa0a1a2a3a3a3aMa4aaa5ana6a7a8a9b.QtQtQtQtQt",
"Qtb#babbaYbcbdbdbdbcaYbbbebfbgbhbibjQtQtQtQtQtQt",
"QtQtQtQtQtQtQtQtQtQtQtQtQtQtQtQtQtQtQtQtQtQtQtQt",
"QtQtQtQtQtQtQtQtQtQtQtQtQtQtQtQtQtQtQtQtQtQtQtQt"};
