/* XPM */
static const char *openchart[]={
"16 16 223 2",
"bB c None",
"bC c None",
"bm c None",
"ba c None",
"aY c None",
".x c None",
".y c None",
".O c None",
".N c None",
".w c None",
".M c None",
".o c None",
".d c None",
".# c None",
".v c None",
".m c None",
".n c None",
".c c None",
".e c None",
".b c None",
".l c None",
".a c None",
".g c None",
".p c None",
".f c None",
"Qt c None",
"aI c #0013a9",
"bl c #000ca4",
".E c #4e64c0",
".h c #5d68bb",
"#f c #0014ae",
"#g c #001aaf",
".k c #565fb7",
".2 c #011daf",
"as c #0016a9",
".L c #414caf",
".q c #5d65b8",
"b# c #000da6",
"ac c #0017ac",
"#e c #1a33ac",
"aX c #0011a8",
".F c #6e75c0",
"#Y c #0016ae",
".i c #6872c0",
".u c #5a63bb",
".D c #114acf",
"bA c #0012a6",
".z c #215cd3",
"aH c #0012ab",
".C c #4b83e7",
".B c #4e84e7",
".A c #588de8",
"#s c #082ab8",
"#r c #2f58d1",
".r c #8288cc",
".1 c #5d6bc3",
"#I c #041fb6",
"ar c #0012b0",
"bk c #0f29ae",
".j c #727ac5",
"aq c #000bbc",
"aa c #000bbb",
".U c #6f82cf",
"ab c #0010b5",
"bn c #0431bf",
"aG c #000cb9",
"#q c #3a62d0",
".G c #a3a8dd",
".K c #9ba1db",
"bb c #0333c3",
"aZ c #083fca",
"aJ c #2963d7",
"#Z c #447cdd",
"#J c #467fde",
"ad c #4880de",
"at c #4881de",
"#t c #4980e0",
"#h c #4b83e0",
".3 c #4f86e0",
"b. c #3951bb",
"bz c #1633aa",
"by c #1d3aae",
"bx c #2140b2",
"bw c #2547b8",
"bv c #2b4fbd",
"bu c #3156c4",
"bt c #375dca",
"bo c #3967d3",
"bs c #3c65d0",
"br c #4169d2",
"bq c #416bd5",
"bp c #446ed5",
"#H c #265de7",
"aW c #152bb7",
"#W c #1d59eb",
"ap c #0015c0",
"#X c #0018bc",
"aF c #0019c8",
"ao c #001ec9",
"aE c #0024d2",
"aD c #0029da",
"an c #0630da",
"a# c #0726c9",
"aC c #083ce4",
"a. c #164be3",
"am c #164fed",
"#9 c #2767f6",
"aB c #2864f2",
"#V c #2e7dfc",
"al c #306af3",
"aV c #3148c4",
"#U c #3786fe",
"aU c #3853ce",
"#1 c #3870db",
"#D c #396bdb",
"aT c #3b5eda",
"#8 c #3c80fb",
"aS c #4067e1",
"#o c #4670da",
"#F c #4690fe",
"aA c #4784f9",
".P c #4981e0",
"#G c #4b96fe",
"ak c #4c88fb",
"#L c #4f8ee7",
"aK c #5288e4",
"au c #5590e3",
"#E c #5798f9",
"aR c #587de8",
"#7 c #5998fc",
"#C c #5a7bd8",
"az c #5e9cfc",
"#p c #6087e2",
"af c #618fe7",
"#M c #648de2",
"ay c #64a4f9",
"#S c #6599f3",
"#T c #65a4fe",
"a0 c #6c96e6",
"#w c #6e8fdd",
"#R c #6fa3f2",
"aj c #6fabfe",
"#n c #7491de",
".T c #76abee",
"aQ c #789ff3",
"#6 c #7db8fd",
"#Q c #80aff3",
"ae c #85bff5",
"ax c #85ccfe",
"#B c #86a0e7",
"#A c #86a3e8",
"aP c #88aef7",
"#d c #8995d7",
"#z c #89a8e8",
"#y c #8dabeb",
"#P c #8fbcf5",
"#v c #8fbdf1",
"ai c #8fc4fb",
"#x c #92b2f0",
".6 c #95bbec",
"#j c #97b6e8",
"aO c #97c0fc",
".S c #9bdafc",
"av c #9fc2f0",
"#O c #9fc5f7",
".7 c #a1aadd",
"ah c #a2d5f8",
".R c #a6defc",
"#N c #a7c2f5",
"#5 c #a9defe",
"bj c #aaaaca",
"aN c #afdafe",
".5 c #afe6fc",
"bc c #b1c5f1",
"bi c #b5b2cf",
"a9 c #b5b2d6",
"aL c #b8d8f8",
".Q c #b9ecfc",
"aw c #b9edfe",
"a8 c #bbb8da",
"bh c #bfbdd7",
"#0 c #bff2fe",
"#k c #c4c3e4",
"a7 c #c5c3e0",
"#c c #c8cef3",
"aM c #c8edfe",
"#i c #c8fbfe",
".4 c #cafcfe",
"#u c #cbfdfe",
"bg c #cecae1",
".s c #ced0f0",
"#K c #cffefe",
"#3 c #d0e4f8",
"a6 c #d1cee6",
".V c #d1d3ed",
"#4 c #d5fbfd",
"#2 c #daebfc",
"a5 c #dbd7ec",
"bf c #dcd8e9",
".t c #dcdef7",
".0 c #dedef7",
"ag c #e1fefe",
"a4 c #e2def1",
"#b c #e3e2f8",
".Z c #e6e4fb",
".Y c #e6e6fb",
"#a c #e8e8fb",
".H c #e9e9fb",
"be c #ebe7f2",
"a3 c #ece9f7",
".J c #ecebfc",
"## c #eeeefe",
".8 c #f1f1fb",
".I c #f2f1fe",
".X c #f2f2fe",
"a2 c #f6f3fc",
"#. c #f7f7fe",
"bd c #f9f6fb",
"#m c #fbf6fe",
".W c #fcfcfe",
"#l c #fdf8fe",
"a1 c #fefdfe",
".9 c #fefefe",
"QtQtQtQtQtQtQtQtQtQtQtQtQtQtQtQt",
".#.a.b.c.d.e.f.g.h.i.j.k.l.m.n.o",
".#.a.b.c.d.e.p.q.r.s.t.u.v.w.x.y",
".z.A.B.C.D.E.F.G.H.I.J.K.L.M.N.O",
".P.Q.R.S.T.U.V.W.X.Y.Z.0.1.2.N.O",
".3.4.5.6.7.8.9#.###a#b#c#d#e#f#g",
"#h#i#j#k.9.9.9.9#l#m#n#o#p#q#r#s",
"#t#u#v#w#x#y#z#A#B#C#D#E#F#G#H#I",
"#J#K#L#M#N#O#P#Q#R#S#T#U#V#W#X#Y",
"#Z#0#1#2#3#4#5#6#7#8#9a.a#aaabac",
"adaeafagahaiajakalamanaoapaqaras",
"atauavawaxayazaAaBaCaDaEaFaGaHaI",
"aJaKaLaMaNaOaPaQaRaSaTaUaVaWaXaY",
"aZa0a1.9a1a2a3a4a5a6a7a8a9b.b#ba",
"bbbc.9.9.9.9bdbebfbgbhbibjbkblbm",
"bnbobpbqbrbsbtbubvbwbxbybzbAbBbC"};
