/* XPM */
static const char *papertrade[]={
"22 22 208 2",
"  	c None",
". 	c #CA0000",
"+ 	c #CD1313",
"@ 	c #D84444",
"# 	c #DE6565",
"$ 	c #DF6B6B",
"% 	c #DD6C6C",
"& 	c #C32323",
"* 	c #B70202",
"= 	c #CD0707",
"- 	c #D72C2C",
"; 	c #EE8D8D",
"> 	c #F5ACAC",
", 	c #F6B0B0",
"' 	c #F6B3B3",
") 	c #F6B4B4",
"! 	c #DC6D6D",
"~ 	c #BF2727",
"{ 	c #A80000",
"] 	c #C60000",
"^ 	c #CF1414",
"/ 	c #E96E6E",
"( 	c #FFC4C4",
"_ 	c #FFD1D1",
": 	c #FFCBCB",
"< 	c #FFCCCC",
"[ 	c #F8B1B1",
"} 	c #CC4A4A",
"| 	c #A90000",
"1 	c #C00000",
"2 	c #CF1D1D",
"3 	c #F38A8A",
"4 	c #FDAFAF",
"5 	c #FFB6B6",
"6 	c #FFB4B4",
"7 	c #FEB4B4",
"8 	c #FFC3C3",
"9 	c #E07575",
"0 	c #B71E1E",
"a 	c #BD0000",
"b 	c #CC1010",
"c 	c #ED5757",
"d 	c #FD9B9B",
"e 	c #FFA7A7",
"f 	c #FFA4A4",
"g 	c #FFA8A8",
"h 	c #F59393",
"i 	c #D25454",
"j 	c #A00000",
"k 	c #B80000",
"l 	c #C70D0D",
"m 	c #EC4B4B",
"n 	c #FD8B8B",
"o 	c #FF9797",
"p 	c #FF9494",
"q 	c #FF9595",
"r 	c #FF9898",
"s 	c #EC7777",
"t 	c #B01C1C",
"u 	c #9A0303",
"v 	c #C89B6D",
"w 	c #CA591A",
"x 	c #BE0000",
"y 	c #B60000",
"z 	c #B90000",
"A 	c #CE1414",
"B 	c #F76161",
"C 	c #FE8080",
"D 	c #FF8585",
"E 	c #FE8484",
"F 	c #FF8989",
"G 	c #FF8B8B",
"H 	c #FF9292",
"I 	c #D64D4D",
"J 	c #9D0A0A",
"K 	c #D0AB75",
"L 	c #D4A664",
"M 	c #D67C3C",
"N 	c #D1150E",
"O 	c #CF0E0F",
"P 	c #D41818",
"Q 	c #E63A3A",
"R 	c #FF6F6F",
"S 	c #FF7474",
"T 	c #FE7474",
"U 	c #FF7676",
"V 	c #FA6464",
"W 	c #EC5555",
"X 	c #E54E4E",
"Y 	c #E24D4D",
"Z 	c #D54343",
"` 	c #9C0909",
" .	c #E29A28",
"..	c #E7B552",
"+.	c #EEBB76",
"@.	c #EE5335",
"#.	c #FA413C",
"$.	c #FF5355",
"%.	c #FF6666",
"&.	c #FF6464",
"*.	c #FE6363",
"=.	c #FB5B5B",
"-.	c #E22A2A",
";.	c #BB0202",
">.	c #AD0000",
",.	c #B10000",
"'.	c #B00E0E",
").	c #980202",
"!.	c #D68C20",
"~.	c #E4AB47",
"{.	c #F0C270",
"].	c #DD8546",
"^.	c #F8594E",
"/.	c #FF4F53",
"(.	c #FF5353",
"_.	c #FE5353",
":.	c #FF5656",
"<.	c #FF4C4C",
"[.	c #ED2F2F",
"}.	c #AA0303",
"|.	c #9B0000",
"1.	c #9A0000",
"2.	c #D28C26",
"3.	c #D99731",
"4.	c #E3AC4D",
"5.	c #E2B56D",
"6.	c #F06248",
"7.	c #FB413D",
"8.	c #FF4243",
"9.	c #FE4242",
"0.	c #FF4545",
"a.	c #F73A3A",
"b.	c #D51C1C",
"c.	c #9C0000",
"d.	c #D08A25",
"e.	c #D59938",
"f.	c #EBC776",
"g.	c #E57E4B",
"h.	c #F34334",
"i.	c #FF2D31",
"j.	c #FE3232",
"k.	c #FF3535",
"l.	c #EE2A2A",
"m.	c #C91515",
"n.	c #9B0101",
"o.	c #CD8D30",
"p.	c #E8B75A",
"q.	c #E0A860",
"r.	c #ED5A3C",
"s.	c #FE1B1D",
"t.	c #FF2121",
"u.	c #FF2323",
"v.	c #E91C1C",
"w.	c #C41111",
"x.	c #C98529",
"y.	c #D3902D",
"z.	c #E5C979",
"A.	c #EB7E51",
"B.	c #F01D10",
"C.	c #FF1011",
"D.	c #FF1111",
"E.	c #FF1212",
"F.	c #E60F0F",
"G.	c #BB0C0C",
"H.	c #C07F29",
"I.	c #E5B65B",
"J.	c #E0A159",
"K.	c #DE4F2C",
"L.	c #FF0000",
"M.	c #FF0102",
"N.	c #FF0606",
"O.	c #D30808",
"P.	c #980606",
"Q.	c #D79934",
"R.	c #DEB15D",
"S.	c #DA8D5A",
"T.	c #CC1203",
"U.	c #CE0000",
"V.	c #A40101",
"W.	c #8C0101",
"X.	c #BD791E",
"Y.	c #D6A751",
"Z.	c #DCAD69",
"`.	c #AF5127",
" +	c #B00603",
".+	c #990000",
"++	c #8C0000",
"@+	c #8B0000",
"#+	c #AC6D24",
"$+	c #CA903D",
"%+	c #D9AA57",
"&+	c #C5A161",
"*+	c #B87720",
"=+	c #CB9644",
"-+	c #EBCC86",
";+	c #A77032",
">+	c #A46621",
",+	c #B97F33",
"'+	c #E4B55F",
")+	c #BF9458",
"!+	c #B37629",
"~+	c #CB9038",
"{+	c #DFBC77",
"]+	c #BA8D51",
"^+	c #AF7226",
"/+	c #DCB46C",
"(+	c #A97D4A",
"_+	c #85532B",
"                . + @ # $ % & *             ",
"              = - ; > , ' ) ! ~ {           ",
"            ] ^ / ( _ : : < [ } |           ",
"            1 2 3 4 5 6 7 7 8 9 0           ",
"            a b c d e f f f g h i j         ",
"            k l m n o p p p q r s t u       ",
"    v w x y z A B C D E D F G H E I J       ",
"  K L M N O P Q R S T U S V W X Y Z `       ",
"   ...+.@.#.$.%.&.*.&.%.=.-.;.>.,.'.).      ",
"  !.~.{.].^./.(.(._.:.<.[.}.|.1.            ",
"  2.3.4.5.6.7.8.9.9.0.a.b.c.                ",
"    d.e.f.g.h.i.j.j.k.l.m.n.                ",
"      o.p.q.r.s.t.t.u.v.w.                  ",
"      x.y.z.A.B.C.D.E.F.G.                  ",
"        H.I.J.K.L.M.N.O.P.                  ",
"          Q.R.S.T.U.1 V.W.                  ",
"          X.Y.Z.`. +.+++@+                  ",
"          #+$+%+&+                          ",
"            *+=+-+;+                        ",
"            >+,+'+)+                        ",
"              !+~+{+]+                      ",
"                ^+/+(+_+                    "};
