/* XPM */
static const char *plainitem[]={
"16 16 120 2",
"Qt c None",
".p c #003224",
".o c #003a2b",
".z c #004130",
".n c #004230",
".L c #004331",
".m c #004936",
"#c c #004a38",
"#m c #00533f",
".l c #01503c",
".k c #015a42",
".j c #016049",
".i c #016850",
"#z c #02684f",
".w c #026950",
".I c #03624a",
".v c #037155",
".3 c #065643",
".H c #066b52",
"#y c #077358",
".G c #087458",
".F c #087c60",
"#a c #0b6a52",
".R c #0b755a",
".Q c #0e7f63",
".P c #0e8668",
"#k c #108064",
"#j c #137c62",
"#x c #13886b",
".T c #144c2a",
"#w c #189074",
".1 c #1b7652",
"#H c #1b9a7b",
"#v c #1c9074",
"## c #1d5837",
"#t c #209176",
"#u c #23a484",
".y c #254618",
"#h c #266e4a",
"#G c #2aa88a",
"#i c #2b5e31",
".u c #2d453f",
".t c #303030",
".E c #306c5e",
".Z c #324d46",
"#b c #33793c",
"#s c #36504a",
"#l c #3c6421",
".0 c #3c9e5a",
".D c #424242",
"#F c #428172",
".2 c #4ca450",
".S c #4e5b0c",
"#n c #4e796a",
"#A c #4e7c6b",
"#d c #4f7468",
".A c #526c65",
".M c #527068",
".# c #585858",
".U c #5e7461",
"#. c #5f844f",
".5 c #667109",
".q c #697f78",
".C c #6b6b6b",
".f c #6d6d6d",
".r c #707070",
".4 c #7fad26",
".B c #898989",
".K c #8d8d02",
".O c #8f8984",
".c c #999999",
".x c #b2b202",
"#1 c #bc9e73",
"#S c #bca178",
"#P c #bca37f",
"#L c #bca685",
"#E c #bca88a",
"#r c #bcab90",
".9 c #bcae97",
".b c #bcb7b1",
"#0 c #bda076",
"#Z c #bea57f",
".Y c #beb6af",
"#Y c #bfaa88",
"#X c #c0af91",
"#W c #c2b39a",
"#V c #c3b8a3",
".h c #c3c3c3",
"#U c #c4bdac",
"#T c #c6c1b6",
"#Q c #ccbba0",
"#M c #cccccc",
".s c #cecece",
"#I c #daccb8",
".g c #dcdcdc",
"#B c #ded2c1",
".a c #dedede",
"#o c #e0d7ca",
"#e c #e1dad1",
".N c #e2e0de",
".6 c #e4e0da",
"#R c #e5cca7",
"#O c #e7d1b0",
".X c #e7e0d9",
".V c #e7e5e2",
"#N c #e9d6b9",
"#K c #e9d6ba",
".e c #eaeaea",
"#D c #ecdbc2",
"#J c #ecdcc1",
"#q c #ecdfca",
"#g c #ece2d4",
"#C c #eee0ca",
".8 c #eee7dc",
"#p c #f1e6d4",
"#f c #f3ebdc",
".7 c #f3ede3",
".W c #f4f0ec",
".J c #fefe02",
".d c #ffffff",
"QtQtQtQt.#.#.#.#.#.#.#.#.#QtQtQt",
"QtQtQtQt.#.a.a.a.a.a.b.#.c.#QtQt",
"QtQtQtQt.#.a.d.d.d.d.e.f.d.c.#Qt",
".g.h.i.j.k.l.m.n.o.p.q.r.s.d.c.t",
".g.u.v.w.j.k.x.y.z.o.A.B.r.C.D.t",
".g.E.F.G.H.I.J.K.L.n.M.e.N.b.O.t",
".g.h.P.Q.R.J.S.J.T.J.U.V.W.X.Y.t",
".g.Z.0.1.2.x.3.4.J.5.J.6.7.8.9.t",
".g#..J.K.J###a#b.x#c#d#e#f#g.9.t",
".g.h#h.J#i#j#k.R#l#m#n#o#p#q#r.t",
".g#s#t#u#v#w#x.Q#y#z#A#B#C#D#E.t",
".g#F#G.g#s#H.g#s.F.g#s#I#J#K#L.t",
"#M.g.g.g.g.g.g.g.g.g.g.##N#O#P.t",
"Qt.#.#.#.#.#.#.#.#.#.##Q#O#R#S.t",
"QtQtQtQt.##T#T#U#V#W#X#Y#Z#0#1.t",
"QtQtQtQt.#.t.t.t.t.t.t.t.t.t.t.t"};
