/* XPM */
static const char *portfolio[]={
"16 16 218 2",
"bn c #465e46",
"bo c #485c48",
"bg c #4c674c",
"bi c #4e654e",
"bh c #4e664e",
"bm c #4f654f",
"bj c #526252",
"bd c #546c54",
"bk c #555855",
"bl c #556055",
"bf c #577d52",
".B c #5a8050",
".R c #60775f",
"#j c #627562",
"#w c #647766",
".7 c #657763",
"al c #657866",
"aN c #667865",
"#K c #667966",
".S c #696d69",
"bp c #6c6e6c",
".C c #6c706c",
"at c #726b66",
"ag c #774821",
"bx c #7b7b7b",
".m c #7b7c7b",
".A c #80aa73",
"#6 c #8b6d54",
".o c #8bc584",
"as c #8e6e5a",
"#T c #906138",
"a9 c #909090",
"#h c #93643b",
"#t c #936d4e",
".z c #96bc84",
"#G c #976c47",
".y c #97bf89",
".x c #99c58e",
".w c #9bc491",
".u c #9daa9d",
".v c #9db59a",
".p c #9dd095",
".t c #9ebe9a",
".s c #9ecc96",
".r c #9fd097",
"aF c #a09b95",
"#c c #a0a09e",
"a3 c #a0be9a",
".q c #a0d298",
"aG c #a1a09d",
"aV c #a2a09e",
"#U c #a59e98",
"#p c #a6a3a0",
"aE c #a89f98",
".K c #a9aaa8",
"#i c #aaa7a1",
"aD c #aba19b",
".0 c #aeaca7",
"#u c #b1abaf",
"ar c #b27f64",
".Z c #b2aea7",
"bu c #b4b4b4",
".1 c #b5aea6",
"bv c #b5b6b5",
"bt c #b5b7b5",
"bs c #b5b8b5",
".6 c #b8a28e",
"af c #b96a2a",
"ah c #bab6b4",
"bw c #babcba",
"br c #babfba",
"bc c #bac4ba",
".k c #bacab6",
"aU c #bbb8b4",
".j c #bbcbb7",
".E c #bbd5b3",
".h c #bcccb9",
".i c #bccdb8",
"aA c #bcd1b9",
".l c #bdc7ba",
"be c #bdc7bb",
"aP c #bdcfb7",
".d c #bdcfbb",
".c c #bed1bb",
".b c #bed2bc",
"an c #bed3b9",
"#Z c #bed3bc",
"aa c #bed4bc",
"#H c #bfbab7",
"aW c #bfbbb5",
".e c #bfcdbd",
".a c #bfd2bd",
"#k c #bfd7be",
"#7 c #c0bdba",
".g c #c0cabf",
"#L c #c0d6bb",
"#y c #c0d7bd",
"a2 c #c1cdbe",
".8 c #c1d9be",
".f c #c3cac3",
".# c #c3d3c1",
".n c #c4d4c2",
".U c #c4dabd",
"#v c #c5c8d4",
"aH c #c6c1bb",
"aO c #c6d0c3",
"am c #c6d1c3",
"#Y c #c6d2c4",
"#x c #c7d3c4",
".D c #c7d4c5",
".T c #c7d4c6",
"#5 c #c8670f",
".5 c #c96f1d",
"#F c #ca701a",
"#g c #cb6f17",
"b. c #cccecb",
"#s c #cd7016",
"#S c #ce6e10",
"#D c #cead8c",
"a8 c #ced2ce",
"a# c #d1d4e2",
"#b c #d2d0ce",
".Q c #d2d1c3",
"#d c #d3cdc6",
"bq c #d4d5d4",
"#V c #d5d5d5",
"Qt c #d6d9d6",
".2 c #d7d0c9",
"a4 c #d7ded5",
"#X c #d8dad8",
"ak c #d9dbe4",
"az c #dadcd9",
"#J c #dbdee3",
"b# c #dce2dc",
"a7 c #dce3dc",
"aC c #ddd9e0",
"bb c #dde3dd",
"a5 c #dee2db",
"a6 c #dee4dd",
"ba c #dee4de",
"aI c #e0dfdd",
"aq c #e1c6b8",
"aX c #e1e0de",
"aM c #e2d8d6",
"aT c #e2e1e1",
"#l c #e2e3f3",
"#0 c #e2e3f6",
"au c #e3e3e2",
".J c #e3e7e2",
"#I c #e4e3e9",
"aB c #e4e5f3",
".L c #e4e6e2",
"a1 c #e5dedc",
"#W c #e6e6e6",
"#O c #e8e8e8",
"ae c #e9b28c",
"#N c #e9e9e9",
"ao c #e9eaea",
"ap c #eae6e5",
"#a c #eaeae9",
".P c #ebc08f",
"ay c #ebeaea",
"## c #ebebeb",
"#. c #ebebed",
"ab c #ebebf8",
"a. c #ebebfc",
"#M c #ebeceb",
"#e c #ecc9a5",
"aS c #ece8e7",
"ax c #ecebeb",
"aw c #ececec",
"aQ c #eddde7",
".Y c #ededec",
".9 c #ededed",
".F c #eedfd7",
"#8 c #eeeeee",
"#4 c #ef9846",
"#P c #efedeb",
"#z c #eff0f8",
".O c #f0d4ae",
"aj c #f0f0fc",
".M c #f0f4ee",
"#o c #f1f1f1",
"#m c #f2f2fa",
".I c #f2f8f1",
"#q c #f3c9a0",
".G c #f3f0e9",
"av c #f3f3f3",
".N c #f3f5ea",
".4 c #f49d47",
".H c #f4faf3",
"#E c #f59e47",
"aR c #f5e4e8",
"#C c #f5f0eb",
"#1 c #f5f5fe",
"#r c #f7a552",
"#R c #f7ac5f",
"#3 c #f7d4b4",
"ac c #f7f6fd",
"#A c #f8f8fd",
"#f c #f9aa5a",
"aL c #f9eaea",
"#Q c #fadab9",
".V c #faf1f0",
"aK c #faf9f9",
"aJ c #fafafa",
"ad c #fbefe8",
".3 c #fcd6b1",
"#n c #fcfcfc",
"#9 c #fcfcfe",
"a0 c #fdf2f2",
".W c #fdf6f6",
"#2 c #fdfbfa",
"aY c #fdfdfd",
"ai c #fdfdfe",
"aZ c #fefdfd",
"#B c #fefefe",
".X c #ffffff",
"Qt.#.a.b.c.d.e.f.g.h.i.j.j.k.l.m",
".n.o.p.q.r.s.t.u.v.w.x.y.z.A.B.C",
".D.E.F.G.H.I.J.K.L.M.N.O.P.Q.R.S",
".T.U.V.W.X.Y.Z.0.1.2.3.4.5.6.7.S",
".D.8.9#.###a#b#c#d#e#f#g#h#i#j.S",
".D#k#l#m#n#n#o#p#q#r#s#t#u#v#w.S",
"#x#y#z#A.X#B#C#D#E#F#G#H#I#J#K.S",
"#x#L#M#N#O#P#Q#R#S#T#U#V#W#X#K.S",
"#Y#Z#0#1#2#3#4#5#6#7#8#9a.a##w.S",
"#Yaaabacadaeafagah#N#naiajakal.S",
"amanaoapaqarasatauavawaxayaz#K.S",
"amaAaBaCaDaEaFaGaHaIaJaKaLaMaN.S",
"aOaPaQaRaSaTaUaVaWaXaYaZa0a1aN.S",
"a2a3a4a5a6a7a8a9b.b#bababbbcbd.S",
"bebfbgbhbhbibjbkblbmbhbhbhbnbobp",
"bqbrbsbsbsbsbtbubvbsbsbsbsbsbwbx"};
