/* XPM */
static const char *previous[]={
"16 16 117 2",
"Qt c None",
".R c #656565",
".S c #3268cc",
".# c #3269d1",
".e c #3665bd",
".A c #3269d0",
".f c #3269d1",
"#U c #656565",
"#G c #3765b9",
".p c #3269d1",
".J c #3e62a5",
"#F c #656565",
".o c #3765b9",
".Z c #486190",
"#N c #3b65b3",
"#z c #4f6184",
"#M c #4e6286",
".0 c #3268cc",
".a c #3269cf",
".d c #3268ca",
".z c #3b66b6",
"#T c #4d648e",
".9 c #3a64b3",
"#. c #3268cc",
".b c #3268cd",
".c c #3268cc",
"#q c #3d64ac",
"#d c #3b66b7",
"#j c #3c66b6",
".g c #3269d2",
".K c #3269cf",
"#A c #3368ca",
".n c #3368ca",
".Q c #3467c4",
"#E c #3766be",
".B c #326ad2",
".q c #326ad3",
"#H c #346acc",
"#O c #356acc",
"#L c #3469cb",
"#S c #3569ca",
".y c #3269ce",
".I c #3269ce",
".m c #326bd4",
".h c #326cd7",
".Y c #326ad3",
"#V c #3e71cf",
"#y c #326ad3",
"#Y c #3e70cf",
".8 c #3471e3",
".l c #3472e4",
".i c #3472e5",
"#k c #3572e4",
"#c c #3676eb",
"#i c #3776eb",
".1 c #3873e0",
".7 c #3b80ff",
"#h c #3c81ff",
"#v c #4083fe",
"#p c #4083ff",
"#e c #447ce5",
"#w c #4486fc",
"#l c #4686fc",
"#x c #4687fc",
"#r c #4887fc",
"#s c #4888fc",
".r c #4980e6",
".6 c #4987f8",
"## c #4a7fe2",
"#B c #4a80e4",
".j c #5183e0",
".x c #5789e4",
".P c #5a8ae3",
".k c #5b88dc",
"#W c #5e88d5",
".C c #6494ec",
"#P c #658edb",
"#C c #6696ee",
"#I c #6c94e0",
"#u c #6ca0ff",
"#o c #6da1ff",
"#X c #6e95dc",
"#f c #6e99e8",
".H c #799fe5",
"#J c #7ea3e6",
"#a c #8cace5",
"#Q c #8dace7",
"#R c #8eade8",
".T c #90b1ec",
".5 c #95b1e6",
".X c #97b3e4",
"#n c #9dc0ff",
".2 c #a1bae9",
".3 c #a3bcea",
".s c #a8c2f5",
".F c #abc1ec",
".W c #b7caee",
".U c #b8ccee",
".w c #b9ccf0",
"#g c #b9cef4",
".L c #c4d4f1",
".O c #cbd9f3",
".M c #cddaf4",
"#b c #cedfff",
"#m c #d0e0fe",
"#t c #d1e1fe",
".D c #d4e0f4",
"#D c #d8e4fa",
".G c #dce6f6",
"#K c #dee7f8",
".E c #e1e9f8",
".t c #e4ebf8",
".4 c #e7eef9",
".v c #ebf0fa",
".V c #edf2fa",
".u c #f2f5fb",
".N c #ffffff",
"QtQtQtQtQt.#.a.b.c.d.eQtQtQtQtQt",
"QtQtQt.f.g.h.i.j.k.l.m.n.oQtQtQt",
"QtQt.p.q.r.s.t.u.u.v.w.x.y.zQtQt",
"Qt.A.B.C.D.E.E.F.F.E.E.G.H.I.JQt",
"Qt.K.r.L.M.M.F.N.N.F.M.M.O.P.Q.R",
".S.m.T.U.U.F.N.N.V.U.U.U.W.X.Y.Z",
".0.1.2.3.F.N.N.4.3.3.3.5.6.7.8.9",
"#.###a.F.N.N.N.N.N.N.N.N#b.7#c#d",
".c#e#f#g.N.N.N.N.N.N.N.N.N#h#i#j",
".d#k#l#l#m.N.N#b#n#n#n#n#o#p.l#q",
".e.m#r#s#s#t.N.N#u#h#v#w#x#r#y#z",
"Qt#A#B#C#C#C#D.N.N#C#C#C#C#B#E#F",
"Qt#G#H#I#J#J#J#K#K#J#J#J#I#L#M.R",
"QtQt#N#O#P#Q#R#R#R#R#Q#P#S#T#UQt",
"QtQtQt.J.Q#V#W#X#X#W#Y#E#M#UQtQt",
"QtQtQtQt.R.Z.9#d#j#q#z#F.RQtQtQt"};
