/* XPM */
static const char *prev[]={
"16 16 21 1",
"  c #010101",
". c #313131",
"X c #3c3c3c",
"o c #487948",
"O c #4e934e",
"+ c #538c53",
"@ c #5a975a",
"# c #5b985b",
"$ c #64a264",
"% c #69b069",
"& c #70a970",
"* c gray63",
"= c #9ac89a",
"- c #a5cea5",
"; c #b0d0b0",
": c #c5e0c5",
"> c #cee5ce",
", c #e0efe0",
"< c #ebf4eb",
"1 c #f4f8f4",
"2 c None",
/* pixels */
"2222222222222222",
"22      22222222",
"22      22222222",
"2222222222222;22",
"2       2222;122",
"22222222222;1>22",
"2222    22;1,:22",
"222222222O<-=%22",
"2.      22o$&$22",
"2       222o##22",
"222222222222o+22",
"22222   22222o22",
"2222222222222222",
"222     22222222",
"2222222222222222",
"2222222222222222"
};
