/* XPM */
static const char *quotes[]={
"22 22 147 2",
"Qt c None",
".a c #000000",
".Q c #034d54",
"#x c #03545b",
".B c #045057",
".J c #05626a",
".P c #05717b",
"#P c #075b64",
".2 c #080808",
"#w c #097079",
"am c #0e0e0e",
"#O c #12767f",
".A c #127881",
"#I c #127882",
".f c #161616",
"#9 c #171717",
"#8 c #181818",
".T c #191919",
"#t c #196e75",
"#7 c #1a1a1a",
"#6 c #1b1b1b",
".m c #1c1c1c",
".L c #1f6b72",
"#o c #212121",
".O c #23848d",
".I c #288790",
"aq c #292929",
"#L c #2a7b82",
".d c #2b2b2b",
".w c #2b7981",
".z c #2c8992",
"#v c #2c8a93",
"aa c #2f2f2f",
".M c #2f838a",
"#H c #2f8b94",
".1 c #313131",
"#N c #318d95",
"ap c #353535",
".N c #3a9199",
"a. c #3c3c3c",
".H c #3c929a",
"#c c #3d3d3d",
".E c #3f9199",
"ao c #404040",
".4 c #414141",
".3 c #424242",
"#u c #42969d",
"#G c #45989f",
"#B c #474747",
".b c #494949",
"#r c #4b4b4b",
".l c #4c4c4c",
"#n c #535353",
".S c #545454",
"ah c #555555",
".x c #559aa1",
".D c #565656",
"#Q c #578286",
".6 c #585858",
"#y c #587e82",
"#J c #59959a",
".y c #59a2aa",
".v c #5b5b5b",
".9 c #5e5e5e",
"#M c #60a6ad",
".e c #626262",
".t c #62888b",
"#p c #636363",
".s c #649fa5",
"#E c #66aab1",
"#. c #6a6a6a",
"#Z c #6d9195",
".5 c #6e6e6e",
".8 c #6f6f6f",
"#Y c #709da2",
".7 c #717171",
"#C c #727272",
"#s c #73a2a7",
"#4 c #757575",
".r c #75aab0",
"#V c #779da0",
"#K c #78a9ad",
"al c #7f7f7f",
"af c #808080",
"#X c #80a9ad",
"#2 c #828282",
".o c #82acb0",
"#3 c #898989",
".c c #8a8a8a",
"#W c #8aafb2",
".q c #8ababf",
"#D c #8abec3",
"an c #8b8b8b",
".p c #8bb9bd",
"## c #8d8d8d",
".G c #8dbfc4",
".# c #929292",
"#0 c #92a3a5",
".R c #93a4a5",
".F c #93c2c7",
"#R c #959595",
"#1 c #969696",
"#z c #979797",
".C c #98a9ab",
".K c #98acae",
"#A c #a0a0a0",
"#i c #a4b6b8",
"ak c #a5a5a5",
"#U c #a5babc",
"#k c #a6a6a6",
"aj c #a8a8a8",
".j c #a9a9a9",
".k c #aaaaaa",
".i c #ababab",
".Z c #adb6b6",
"#h c #adc3c5",
".Y c #aebabb",
".X c #b1bbbc",
".V c #b2bbbc",
"#a c #b3b3b3",
".W c #b3bdbe",
"#g c #b5c9cb",
"#T c #b6b6b6",
".u c #b6bebf",
"#b c #b7b7b7",
"ai c #b8b7b8",
"#j c #b8c1c2",
".h c #bababa",
"#S c #bbbbbb",
".0 c #bdbfbf",
"#m c #bfbfbf",
"#5 c #c3c3c3",
".g c #c6c6c6",
"#F c #cae1e4",
"#e c #cbdedf",
"#l c #cecece",
"ae c #d0d0d0",
"a# c #d1d1d1",
"#f c #d1e4e5",
"#q c #d3d3d3",
"ad c #dddddd",
".U c #dfdfdf",
"#d c #dfeaeb",
"ac c #ebeaeb",
"ag c #f0f0f0",
"ab c #f3f3f3",
".n c #ffffff",
"QtQtQt.#.a.a.a.a.a.a.a.a.a.a.bQtQt.c.d.eQtQt",
"QtQtQt.#.f.g.g.g.h.i.i.j.k.l.bQtQt.c.d.eQtQt",
"QtQtQt.#.m.n.o.p.q.r.s.t.u.v.bQtQt.c.d.eQtQt",
"QtQtQt.#.m.n.w.x.y.z.A.B.C.D.bQtQt.c.d.eQtQt",
"QtQtQt.#.m.n.E.F.G.H.I.J.K.D.bQtQt.c.d.eQtQt",
"QtQtQt.#.m.n.L.M.N.O.P.Q.R.S.bQtQt.c.d.eQtQt",
"QtQtQt.#.T.U.V.V.W.X.Y.Z.0.D.bQtQt.c.d.eQtQt",
".b.b.b.1.2.b.3.4.4.4.4.4.4.5.kQtQt.c.d.eQtQt",
".a.6.7.7.8.e.e.9.9.l.a.e.6#.###a#a#b#c.eQtQt",
".a.g#d#e#f#g#h#i#j#k.a#l#m#n#o#p#p#q#r.eQtQt",
".a.g#s#t#u#v#w#x#y#z.a#A#A#B.a.a.a#C.d.eQtQt",
".a.g#D#E#F#G#H#I#J#z.a.a.a.a.bQtQt.c.d.eQtQt",
".a.g#K#L#M#N#O#P#Q#R.a.i.i.i#SQtQt.c.d.eQtQt",
".a#T#U#V#W#X#Y#Z#0#1.aQtQtQtQtQtQt.c.d.eQtQt",
".b#2#3#2#2#2#2#2#2#4.bQtQtQtQtQtQt.c.d.eQtQt",
"#5.4#6#7#7#7#8#8#9a.#5a#a#a#a#a#a##Raa.eQtQt",
".a.gabacacacadQtae#z.aafafafafafafagah.eQtQt",
".aai.gajajaj#k#kakal.aamamamamamam#7an#lQtQt",
".a#caoapapapapapapaq.a.#.#.#.#.#.#.##5QtQtQt",
".e.e.e.e.e.e.e.e.e.e.eQtQtQtQtQtQtQtQtQtQtQt",
"QtQtQtQtQtQtQtQtQtQtQtQtQtQtQtQtQtQtQtQtQtQt",
"QtQtQtQtQtQtQtQtQtQtQtQtQtQtQtQtQtQtQtQtQtQt"};
