/* XPM */
static const char *renameitem[]={
"22 22 66 2",
"Qt c None",
".o c #000000",
".p c #020202",
".A c #040b06",
".Y c #040d07",
".T c #051009",
".H c #07180d",
".z c #071c0d",
".B c #092413",
".N c #092613",
".5 c #0a190f",
".6 c #0b1c11",
".S c #0b3218",
".7 c #0c1f12",
".8 c #0c2112",
"## c #0e1d12",
"#. c #0e2314",
".i c #0e3d1c",
".G c #0e3d1d",
".4 c #102317",
".# c #135628",
".M c #14552a",
".9 c #173e24",
".v c #17602f",
".F c #217c3f",
".L c #219648",
".u c #226135",
".Q c #279a58",
".y c #297640",
".k c #299451",
".C c #2b9252",
".3 c #2e7b49",
".l c #2e9951",
".V c #2e9f5e",
".R c #2f8853",
".2 c #307d4d",
".O c #308f54",
".W c #34a360",
".j c #369d62",
".1 c #378251",
".q c #37a65e",
".P c #37aa62",
".0 c #398851",
".X c #3b9a5c",
".r c #3fb86d",
".Z c #438c58",
".U c #4bb673",
".s c #4bc674",
".K c #57976e",
".I c #5ab57a",
".f c #5db275",
".x c #61ac78",
".E c #6da27c",
".t c #6dbe82",
".J c #70c090",
".m c #74bd8c",
".e c #76c98d",
".a c #8fbea0",
".D c #9ebfa9",
".g c #bedbc7",
".n c #c1dcca",
".b c #c4ddcb",
".w c #dfeae2",
".c c #e0ebe3",
".h c #f4f7f5",
".d c #ffffff",
"QtQtQtQtQtQtQtQtQtQtQtQtQtQtQtQtQtQtQtQtQtQt",
"QtQtQtQtQtQtQtQtQtQtQtQtQtQtQtQtQtQtQtQtQtQt",
"QtQtQtQtQtQt.#.#.#.#.#QtQtQtQtQtQtQtQtQtQtQt",
"QtQtQtQt.#.#.a.b.c.b.a.#.#QtQtQtQtQtQtQtQtQt",
"QtQtQt.#.a.d.e.f.f.f.f.g.h.i.iQtQtQtQtQtQtQt",
"QtQt.#.c.e.j.k.k.k.k.l.l.m.n.h.oQtQtQtQt.pQt",
"Qt.#.a.e.k.q.r.s.s.s.s.r.k.l.t.h.oQtQt.i.oQt",
"Qt.#.d.k.q.u.v.o.o.o.o.q.s.r.k.t.h.o.i.w.oQt",
".i.a.x.y.v.z.AQtQtQtQt.B.o.q.s.C.t.D.w.E.oQt",
".i.d.F.G.HQtQtQtQtQtQtQtQt.o.q.s.C.I.J.K.oQt",
".i.L.M.NQtQtQtQtQtQtQtQtQtQt.o.O.P.C.Q.R.oQt",
"Qt.i.S.TQtQtQtQtQtQtQtQtQtQt.i.w.U.V.W.X.oQt",
"Qt.o.i.YQtQtQtQtQtQtQtQtQt.i.w.Z.0.1.2.3.oQt",
"QtQt.i.4QtQtQtQtQtQtQtQt.p.o.o.o.o.o.o.o.oQt",
"QtQt.A.i.5QtQtQtQtQtQtQtQtQtQtQtQtQtQtQtQtQt",
"QtQtQt.6.i.7QtQtQtQtQtQtQtQtQtQtQtQtQtQtQtQt",
"QtQtQtQt.8.9#.QtQtQtQtQtQtQtQtQtQtQtQtQtQtQt",
"QtQtQtQtQt.o.i##QtQtQtQtQtQtQtQtQtQtQtQtQtQt",
"QtQtQtQtQtQtQt.o.o.oQtQtQtQtQtQtQtQtQtQtQtQt",
"QtQtQtQtQtQtQtQtQtQtQtQtQtQtQtQtQtQtQtQtQtQt",
"QtQtQtQtQtQtQtQtQtQtQtQtQtQtQtQtQtQtQtQtQtQt",
"QtQtQtQtQtQtQtQtQtQtQtQtQtQtQtQtQtQtQtQtQtQt"};
