/* XPM */
static const char *scaletoscreen[]={
"22 22 220 2",
"  	c None",
". 	c #000000",
"+ 	c #1E1E00",
"@ 	c #353500",
"# 	c #313100",
"$ 	c #323200",
"% 	c #0D0D00",
"& 	c #787800",
"* 	c #D2D200",
"= 	c #C3C300",
"- 	c #C7C700",
"; 	c #20201E",
"> 	c #F4F4F2",
", 	c #61615F",
"' 	c #424240",
") 	c #FDFDFC",
"! 	c #353534",
"~ 	c #C0C000",
"{ 	c #BFBF00",
"] 	c #161600",
"^ 	c #3B3B34",
"/ 	c #EFEFB5",
"( 	c #FFFFD8",
"_ 	c #F0F0B9",
": 	c #EAEAB1",
"< 	c #FFFFDA",
"[ 	c #E6E6DD",
"} 	c #757500",
"| 	c #CDCD00",
"1 	c #C0C003",
"2 	c #D9D967",
"3 	c #E3E38F",
"4 	c #E5E590",
"5 	c #E5E58F",
"6 	c #A3A38E",
"7 	c #80807A",
"8 	c #7D7D5C",
"9 	c #707050",
"0 	c #79795A",
"a 	c #7B7B5B",
"b 	c #6F6F51",
"c 	c #81817B",
"d 	c #4E4E58",
"e 	c #010100",
"f 	c #D0D000",
"g 	c #C5C507",
"h 	c #F8F8E2",
"i 	c #FFFFFF",
"j 	c #F9F9DD",
"k 	c #FAFAE0",
"l 	c #FFFFFD",
"m 	c #9E9E9E",
"n 	c #11110A",
"o 	c #1A1A13",
"p 	c #1C1C15",
"q 	c #1C1C14",
"r 	c #202021",
"s 	c #212110",
"t 	c #202000",
"u 	c #222200",
"v 	c #131300",
"w 	c #C5C506",
"x 	c #E5E592",
"y 	c #C1C100",
"z 	c #C5C502",
"A 	c #6D6D3D",
"B 	c #919187",
"C 	c #FFFFBF",
"D 	c #F9F9BB",
"E 	c #F8F8BA",
"F 	c #F8F8B8",
"G 	c #F8F8BC",
"H 	c #DCDC82",
"I 	c #B6B600",
"J 	c #BABA00",
"K 	c #C8C800",
"L 	c #727200",
"M 	c #141400",
"N 	c #1D1D00",
"O 	c #282800",
"P 	c #F2F2ED",
"Q 	c #CBCBB2",
"R 	c #5B5B1F",
"S 	c #66662E",
"T 	c #404039",
"U 	c #8E8E7C",
"V 	c #FFFFCC",
"W 	c #FFFFC7",
"X 	c #FFFFC6",
"Y 	c #FFFFCB",
"Z 	c #FFFFC3",
"` 	c #585859",
" .	c #757515",
"..	c #CFCF00",
"+.	c #C6C600",
"@.	c #D5D500",
"#.	c #797900",
"$.	c #474753",
"%.	c #606067",
"&.	c #56564B",
"*.	c #8F8F8E",
"=.	c #9B9B96",
"-.	c #909085",
";.	c #919186",
">.	c #8F8F7D",
",.	c #C0C098",
"'.	c #FFFFC0",
").	c #FAFABD",
"!.	c #737375",
"~.	c #848428",
"{.	c #CECE00",
"].	c #F6F6FE",
"^.	c #FFFFED",
"/.	c #13130A",
"(.	c #6B6B4E",
"_.	c #FFFFD3",
":.	c #FFFFC5",
"<.	c #FEFEBF",
"[.	c #FFFFBE",
"}.	c #FFFFC2",
"|.	c #F8F8FB",
"1.	c #D8D87D",
"2.	c #BCBC00",
"3.	c #545442",
"4.	c #1F1F17",
"5.	c #6E6E53",
"6.	c #FFFFCE",
"7.	c #FFFFC1",
"8.	c #31313A",
"9.	c #585802",
"0.	c #CBCB00",
"a.	c #97979E",
"b.	c #C2C2AE",
"c.	c #FAFAB7",
"d.	c #1E1E15",
"e.	c #6E6E50",
"f.	c #FFFFCD",
"g.	c #FFFFBC",
"h.	c #FFFFC8",
"i.	c #DCDCC9",
"j.	c #51519C",
"k.	c #676708",
"l.	c #9C9C00",
"m.	c #747400",
"n.	c #BDBDC2",
"o.	c #DBDBCE",
"p.	c #F9F9CD",
"q.	c #1E1E18",
"r.	c #757564",
"s.	c #FFFFD9",
"t.	c #B1B18B",
"u.	c #EEEEC7",
"v.	c #E4E4BD",
"w.	c #B5B58E",
"x.	c #FDFDD6",
"y.	c #DEDEB0",
"z.	c #7F7F78",
"A.	c #222255",
"B.	c #777732",
"C.	c #B7B70C",
"D.	c #BEBE00",
"E.	c #8A8A23",
"F.	c #BDBD0B",
"G.	c #464646",
"H.	c #FDFDFE",
"I.	c #7E7E7C",
"J.	c #DBDBD8",
"K.	c #C0C0BD",
"L.	c #A0A09D",
"M.	c #0C0C08",
"N.	c #F0F0EC",
"O.	c #60606A",
"P.	c #2A2A00",
"Q.	c #C2C200",
"R.	c #1B1B70",
"S.	c #5D5D41",
"T.	c #A1A114",
"U.	c #000081",
"V.	c #909028",
"W.	c #838300",
"X.	c #000007",
"Y.	c #606016",
"Z.	c #CECE28",
"`.	c #989800",
" +	c #BFBF22",
".+	c #B8B81C",
"++	c #9B9B00",
"@+	c #C8C82C",
"#+	c #ABAB12",
"$+	c #A1A100",
"%+	c #C4C400",
"&+	c #B5B507",
"*+	c #65653C",
"=+	c #0E0E76",
"-+	c #000084",
";+	c #969625",
">+	c #585800",
",+	c #CCCC00",
"'+	c #C5C500",
")+	c #BDBD01",
"!+	c #79792F",
"~+	c #1D1D6C",
"{+	c #000096",
"]+	c #00008B",
"^+	c #959525",
"/+	c #848400",
"(+	c #5C5C00",
"_+	c #D1D100",
":+	c #C9C900",
"<+	c #BFBF02",
"[+	c #36365D",
"}+	c #151574",
"|+	c #24246A",
"1+	c #23236B",
"2+	c #A6A61D",
"3+	c #BEBE03",
"4+	c #171700",
"5+	c #363600",
"6+	c #383800",
"7+	c #373700",
"                                            ",
". . . . . . . . .                           ",
". + @ # # # $ $ % .                         ",
". & * = = = - - @ . ; > , ' ) ! .           ",
". & * = ~ { = = ] ^ / ( _ : < [             ",
". } | 1 2 3 4 5 6 7 8 9 0 a b c d   . . . e ",
". & f g h i j k l m n o p q p r s t t u v . ",
". & f w h x y z A B C D E F G i H I J K L . ",
". M N O P Q R S T U V W X Y Z `  ...+.@.#.. ",
". $.%.&.*.=.-.;.>.,.Z '.'.Z ).!.~.+.~ {.} . ",
"  ].^.Z /.(._.:.:.Z <.<.<.[.}.|.1.2.{ {.} . ",
"  . 3.'.4.5.6.7.'.'.<.<.<.X [.8.9.0.~ {.} . ",
"  a.b.c.d.e.Y f.C }.V g.h.i.j.k.l.- | * m.. ",
"  n.o.p.q.r.s.t.u.v.w.x.y.z.A.B.C.D.E.F.#.. ",
"  . G.H.r I.J.e K.L.M.N.O.P.Q.R.S.T.U.V.W.. ",
"        X.Y.Z.`. +.+++@+#+$+%+&+*+=+-+;+W.. ",
"        . >+,+,+{ y 0.2.'+| )+!+~+{+]+^+/+. ",
"        . (+_+%+= = = = = :+<+[+}+|+1+2+W.. ",
"        . (+_+%+= = = = = %+= <+3+3+3+_+& . ",
"        . 4+@ # # # # # # # # 5+6+6+6+7++ . ",
"        e . . . . . . . . . . . . . . . . e ",
"                                            "};
