/* XPM */
static const char *scanner[]={
"16 16 99 2",
"  	c None",
". 	c #8CAED6",
"+ 	c #87AFDB",
"@ 	c #98B4D2",
"# 	c #73B7F2",
"$ 	c #84C2EF",
"% 	c #90D4F9",
"& 	c #95D9FA",
"* 	c #92D7FA",
"= 	c #98D0EE",
"- 	c #72B6F3",
"; 	c #8DD2F7",
"> 	c #A7E8FB",
", 	c #B3F2FC",
"' 	c #ADECFB",
") 	c #98DAF8",
"! 	c #9FE1FA",
"~ 	c #ACE9F8",
"{ 	c #80BDED",
"] 	c #A5E6FB",
"^ 	c #C8FEFD",
"/ 	c #DCFFFE",
"( 	c #A7E7FA",
"_ 	c #BBF7FD",
": 	c #AFEFFC",
"< 	c #B5F5FD",
"[ 	c #A6D1DF",
"} 	c #6A87B4",
"| 	c #8DD3FB",
"1 	c #B0F0FC",
"2 	c #DAFFFE",
"3 	c #E4FBFD",
"4 	c #ADEFFC",
"5 	c #CCFCFD",
"6 	c #C4FDFE",
"7 	c #C7FDFE",
"8 	c #C3FAFB",
"9 	c #638ABE",
"0 	c #96DAFB",
"a 	c #99DCF9",
"b 	c #A3E2F9",
"c 	c #AEEEFB",
"d 	c #CBFCFE",
"e 	c #D8FEFD",
"f 	c #D2FDFE",
"g 	c #D6FDFD",
"h 	c #D3FEFE",
"i 	c #6486B3",
"j 	c #95DAFC",
"k 	c #9CDEF9",
"l 	c #AFEDFC",
"m 	c #C2F9FD",
"n 	c #D5FEFD",
"o 	c #D5FDFE",
"p 	c #E1FEFE",
"q 	c #E5FEFE",
"r 	c #DAF7F9",
"s 	c #89C5E7",
"t 	c #96D8F8",
"u 	c #BEFAFD",
"v 	c #CEFEFE",
"w 	c #DDFEFE",
"x 	c #EDFEFE",
"y 	c #F7FFFF",
"z 	c #B4BECA",
"A 	c #86C2E8",
"B 	c #A5E5FA",
"C 	c #A9EAFC",
"D 	c #BDFAFD",
"E 	c #DDFDFD",
"F 	c #EEFFFF",
"G 	c #ECF3F6",
"H 	c #7A7C96",
"I 	c #9ED6E8",
"J 	c #C0FFFF",
"K 	c #D1FFFF",
"L 	c #DDFFFF",
"M 	c #BED4DC",
"N 	c #7B8098",
"O 	c #85859D",
"P 	c #9D979F",
"Q 	c #5F6E8B",
"R 	c #616F8B",
"S 	c #67748E",
"T 	c #A66928",
"U 	c #DD9327",
"V 	c #DDB869",
"W 	c #FCDC8B",
"X 	c #D98D23",
"Y 	c #CFA961",
"Z 	c #FBDB87",
"` 	c #DD9122",
" .	c #DEC17C",
"..	c #F6D585",
"+.	c #D58920",
"@.	c #D2B471",
"#.	c #E9C06E",
"$.	c #765340",
"%.	c #755645",
"        . + @                   ",
"    # $ % & * =                 ",
"  - ; > , ' ) ! ~               ",
"  { ] ^ / ( _ : < [             ",
"} | 1 2 3 4 5 6 7 8             ",
"9 0 a b c d e f g h             ",
"i j k l m n o p q r             ",
"  s t ] u v w x y z             ",
"  A B C D v E F G H             ",
"      I J K L M N O P           ",
"        Q R S       T U         ",
"                    V W X       ",
"                      Y Z `     ",
"                         ...+.  ",
"                          @.#.$.",
"                            %.  "};
