/* XPM */
static const char *search[]={
"16 16 229 2",
".i c None",
"a4 c None",
"#P c None",
"bu c None",
"bF c None",
"#R c None",
"#Q c None",
".j c None",
".y c None",
"ag c None",
"Qt c None",
".# c None",
".k c None",
"bg c None",
"bt c None",
"bs c None",
"a6 c #000000",
"a5 c #000000",
"#B c #2f2f4e",
"au c #87a2cc",
".N c #000000",
".O c #4f4f61",
"av c #3b3740",
"aI c #020000",
"aY c #060300",
"at c #020000",
"bC c #3b3b5a",
"aZ c #767692",
".h c #000308",
"#4 c #000000",
".x c #000003",
"af c #050001",
"bf c #dadade",
".n c #8888a3",
".R c #434362",
"aR c #020000",
".C c #6e9bd0",
"#5 c #132335",
"bd c #6b6b88",
"#O c #000000",
"a1 c #1c1c25",
".a c #6f9bd0",
".A c #5e5e7c",
"aL c #0d0b11",
"bE c #e5e5e8",
"be c #63637d",
"aw c #000007",
".7 c #3f3f5e",
"#y c #030304",
"ah c #00010b",
"aO c #000000",
"#l c #323250",
"bD c #3c3c5a",
".o c #749fd2",
"aJ c #767693",
"aQ c #000000",
"aP c #000000",
"bc c #3f3f5c",
"aN c #000105",
".3 c #000e1a",
"a3 c #11111d",
"bI c #070401",
"bG c #0c0500",
"a0 c #5f5f7e",
"bp c #787894",
".g c #264359",
"aM c #24222b",
".z c #676788",
"bv c #190d00",
"bh c #1b0d00",
"a7 c #190c00",
"aS c #201000",
".Q c #565675",
"#A c #323252",
"bH c #241400",
".b c #71a0d1",
"#S c #142f46",
"#3 c #000c16",
"ax c #001c32",
".S c #719fd0",
".m c #4e4e6d",
".4 c #4a4859",
"aC c #0f1715",
"#i c #322d3d",
".B c #70708c",
".P c #8989a8",
"#h c #002c4e",
"aX c #784700",
"aH c #774500",
"b# c #7e4c01",
"ae c #8b7f00",
"as c #754200",
"#x c #002f50",
"#z c #2b2b44",
"#N c #003158",
".w c #346386",
"by c #623901",
"bb c #737391",
".M c #13446b",
"bB c #31314f",
"ba c #8f8fa9",
"bo c #474767",
"br c #ececf0",
"aB c #134681",
"ay c #1d598e",
"bz c #50506f",
"#6 c #4b7eac",
".f c #6293be",
"ai c #3b70a3",
"aA c #175189",
"az c #195287",
"bA c #40405f",
".e c #719fc8",
"#m c #77a5d0",
".d c #79a5d0",
".c c #7facd8",
".D c #8fbae4",
".p c #90bbe5",
"#2 c #2f67a1",
".2 c #528ab6",
"#C c #6aa0d0",
".l c #6e6e8b",
"aT c #854b0c",
"bi c #874f09",
"ad c #54879c",
"bm c #6c6c8a",
"ao c #386cc4",
"#k c #393957",
".6 c #464665",
"#j c #4d4d6f",
"bn c #50506f",
"a2 c #525273",
"bq c #565674",
"aK c #575777",
"ap c #586674",
"ac c #5f8af0",
".5 c #656586",
"aj c #6ea0db",
"an c #7895f6",
"bw c #844f0d",
".8 c #85afd9",
"am c #88a5fd",
"a8 c #89510c",
"aa c #89a6f5",
"ab c #8aa2fd",
"#T c #8fc0ed",
"a# c #91b0f6",
"#0 c #91b1f5",
"#M c #91bbf9",
"bx c #925b19",
"al c #93b2fe",
"#1 c #96b4ff",
"#w c #97c3f4",
"#Z c #98b9f7",
"a. c #9bbcf8",
"#Y c #9fc0f8",
"#K c #a1c3f8",
"#9 c #a2c4f8",
"#L c #a3c2fa",
"ak c #a4c3ff",
".v c #a4cae2",
"#J c #a5c8f9",
"#X c #a6c8f9",
"#I c #a8ccfa",
"#g c #a8d4fe",
"#W c #abcefa",
"#u c #abd0fa",
"#V c #aed2fc",
"#H c #afd2fb",
"#v c #afd2fd",
"#t c #b0d3fb",
".q c #b1d5f2",
"bl c #b3700d",
"#8 c #b3d2ff",
"#e c #b4d9fc",
"#7 c #b6dbff",
".T c #b7d7f2",
"#f c #b8dbff",
".L c #bae3fd",
"#U c #bcdeff",
"#s c #bfddfc",
"aD c #c0710d",
"aU c #c08330",
"#G c #c1ddfc",
"bk c #c39748",
"#E c #c3e1fd",
".1 c #c3e7ff",
"#F c #c4e1fe",
"#D c #c5e8ff",
"bj c #c88c3c",
".0 c #cae5fd",
"#d c #cde5fd",
"#r c #d4e9fe",
"aF c #dbc095",
"aE c #dca026",
".E c #dcf4ff",
".Z c #ddeffe",
"#c c #dff0fe",
"a9 c #e1c694",
"aV c #e2c692",
"#q c #e2f1fe",
"b. c #e3bc75",
".Y c #e4f3ff",
".r c #e4f7ff",
"aW c #e5bf7b",
"#n c #e5f6ff",
"aG c #e6c07b",
"#b c #e6f3fe",
"#p c #e6f3ff",
".J c #e7f4ff",
".K c #e9faff",
"#o c #eaf5ff",
"#a c #eaf6fe",
".X c #ebf6ff",
".I c #ebf7ff",
".u c #ecf8ff",
"## c #eef7ff",
".9 c #effcff",
".W c #f1f9ff",
".H c #f4faff",
"aq c #f5fc73",
".s c #f6fdff",
"#. c #f7fbff",
".V c #f7fcff",
".U c #f7feff",
".t c #f7ffff",
".G c #fbfcff",
".F c #fbffff",
"ar c #fce56a",
"Qt.#.a.b.c.d.e.f.g.h.i.j.k.l.m.n",
"Qt.o.p.q.r.s.t.u.v.w.x.i.y.z.A.B",
".C.D.E.F.G.H.I.J.K.L.M.N.O.P.Q.R",
".S.T.U.V.W.X.Y.Z.0.1.2.3.4.5.6.7",
".8.9#.###a#b#c#d#e#f#g#h#i#j#k#l",
"#m#n#o#p#q#r#s#t#u#v#w#x#y#z#A#B",
"#C#D#E#F#G#H#I#J#K#L#M#N#O#P#Q#R",
"#S#T#U#V#W#X#Y#Z#0#1#2#3#4.i.i.i",
"#5#6#7#8#9a.a#aaabacadaeaf.i.i.i",
"agahaiajakalamanaoapaqarasat.i.i",
"auavawaxayazaAaBaCaDaEaFaGaHaI.i",
"aJaKaLaMaNaOaPaQaRaSaTaUaVaWaXaY",
"aZa0a1a2a3a4a5a5a6.ia7a8aUa9b.b#",
"babbbcbdbebfbg.i.i.i.ibhbibjbkbl",
"bmbnbobpbqbrbsbtbu.i.i.ibvbwbxby",
"bzbAbBbCbDbEbsbsbF.i.i.i.ibGbHbI"};
