/* XPM */
static const char *selectall[]={
"16 16 127 2",
"Qt c None",
".f c None",
".S c #656565",
".T c #3268cc",
".# c #3269d1",
".e c #3665bd",
".B c #3269d0",
".g c #3269d1",
"#4 c #656565",
"#N c #3765b9",
".q c #3269d1",
".K c #3e62a5",
"#M c #656565",
".p c #3765b9",
".Z c #486190",
"#V c #3b65b3",
"#F c #4f6184",
"#U c #4e6286",
".0 c #3268cc",
".a c #3269cf",
".d c #3268ca",
".A c #3b66b6",
"#3 c #4d648e",
"#. c #3a64b3",
"## c #3268cc",
".b c #3268cd",
".c c #3268cc",
"#y c #3d64ac",
"#j c #3b66b7",
"#r c #3c66b6",
".h c #3269d2",
".L c #3269cf",
"#G c #3368ca",
".o c #3368ca",
".R c #3467c4",
"#L c #3766be",
".C c #326ad2",
".r c #326ad3",
"#O c #346acc",
"#W c #356acc",
"#T c #3469cb",
"#2 c #3569ca",
".z c #3269ce",
".J c #3269ce",
".n c #326bd4",
".i c #326cd7",
".Y c #326ad3",
"#5 c #3e71cf",
"#E c #326ad3",
"#8 c #3e70cf",
".9 c #3471e3",
".m c #3472e4",
".j c #3472e5",
"#s c #3572e4",
"#i c #3676eb",
"#q c #3776eb",
".1 c #3873e0",
".8 c #3b80ff",
"#h c #3c81ff",
"#x c #4083ff",
"#k c #447ce5",
"#t c #4686fc",
"#D c #4687fc",
"#z c #4887fc",
"#A c #4888fc",
".s c #4980e6",
".7 c #4987f8",
"#a c #4a7fe2",
"#H c #4a80e4",
"#g c #4f8af6",
".k c #5183e0",
".y c #5789e4",
".Q c #5a8ae3",
".l c #5b88dc",
"#6 c #5e88d5",
".D c #6494ec",
"#X c #658edb",
"#I c #6696ee",
"#P c #6c94e0",
"#p c #6da0ff",
"#7 c #6e95dc",
"#l c #6e99e8",
"#u c #73a4fd",
"#B c #77a6fc",
"#Q c #7ea3e6",
".I c #84a7e7",
"#f c #8aaff4",
"#b c #8cace5",
"#Y c #8dace7",
"#Z c #8eade8",
"#J c #8eb1f2",
"#c c #8fade6",
".U c #90b1ec",
"#d c #92afe6",
".X c #97b3e4",
"#m c #9bb8ee",
"#R c #a0bbec",
".2 c #a1bae9",
".3 c #a3bcea",
".t c #a8c2f5",
".6 c #abc1ea",
"#0 c #abc2ee",
".F c #b8ccee",
".x c #b9ccf0",
".W c #c7d6f2",
"#1 c #c8d7f4",
".O c #cddaf4",
"#o c #cee0ff",
"#v c #d0e0fe",
"#w c #d0e0ff",
"#C c #d2e2fe",
"#K c #dae6fa",
".M c #dde6f7",
"#S c #e0e9f9",
".G c #e1e9f8",
"#n c #e2eaf8",
".u c #e4ebf8",
"#e c #e4ebf9",
".E c #e6edf9",
".4 c #e7edf9",
".5 c #e9effa",
".w c #ebf0fa",
".V c #ecf1fa",
".H c #eef3fb",
".v c #f2f5fb",
".P c #f4f7fc",
".N c #ffffff",
"QtQtQtQtQt.#.a.b.c.d.e.fQtQtQtQt",
"QtQtQt.g.h.i.j.k.l.m.n.o.p.fQtQt",
"QtQt.q.r.s.t.u.v.v.w.x.y.z.A.fQt",
"Qt.B.C.D.E.F.G.G.G.G.F.H.I.J.K.f",
"Qt.L.s.M.N.N.F.O.O.F.P.N.N.Q.R.S",
".T.n.U.F.V.N.N.F.F.H.N.N.W.X.Y.Z",
".0.1.2.3.3.4.N.N.5.N.N.6.7.8.9#.",
"###a#b#c#d#d#e.N.N.N#f#g#h.8#i#j",
".c#k#l#m.N#n#g#o.N#p#p.N#o#h#q#r",
".d#s#t#u.N.N#v#h#p#p.N.N#w#x.m#y",
".e.n#z#A#B.N.N#o#p.N.N#C#D#z#E#F",
".f#G#H#I#I#J.N.N.N.N#K#I#I#H#L#M",
"Qt#N#O#P#Q#Q#R.N.N#S#Q#Q#P#T#U.S",
"Qt.f#V#W#X#Y#Z#0#1#Z#Y#X#2#3#4.f",
"QtQt.f.K.R#5#6#7#7#6#8#L#U#4.fQt",
"QtQtQt.f.S.Z#.#j#r#y#F#M.S.fQtQt"};
