/* XPM */
static const char *start[]={
"16 16 111 2",
"Qt c None",
".R c #656565",
".S c #3268cc",
".# c #3269d1",
".e c #3665bd",
".A c #3269d0",
".f c #3269d1",
"#O c #656565",
"#B c #3765b9",
".p c #3269d1",
".I c #3e62a5",
"#A c #656565",
".o c #3765b9",
".Z c #486190",
"#H c #3b65b3",
"#v c #4f6184",
"#G c #4e6286",
".0 c #3268cc",
".a c #3269cf",
".d c #3268ca",
".z c #3b66b6",
"#N c #4d648e",
".8 c #3a64b3",
".9 c #3268cc",
".b c #3268cd",
".c c #3268cc",
"#p c #3d64ac",
"#f c #3b66b7",
"#k c #3c66b6",
".g c #3269d2",
".J c #3269cf",
"#w c #3368ca",
".n c #3368ca",
".Q c #3467c4",
"#z c #3766be",
".B c #326ad2",
".q c #326ad3",
"#C c #346acc",
"#I c #356acc",
"#F c #3469cb",
"#M c #3569ca",
".y c #3269ce",
".H c #3269ce",
".m c #326bd4",
".h c #326cd7",
".Y c #326ad3",
"#P c #3e71cf",
"#u c #326ad3",
"#S c #3e70cf",
".7 c #3471e3",
".l c #3472e4",
".i c #3472e5",
"#l c #3572e4",
"#e c #3676eb",
"#j c #3776eb",
".1 c #3873e0",
".6 c #3b80ff",
"#d c #3c81ff",
"#n c #3d82ff",
"#o c #4083ff",
"#g c #447ce5",
"#s c #4486fc",
"#m c #4686fc",
"#t c #4687fc",
"#q c #4887fc",
"#r c #4888fc",
".r c #4980e6",
".5 c #4987f8",
"#. c #4a7fe2",
"#x c #4a80e4",
"#c c #4f8af6",
".j c #5183e0",
".x c #5789e4",
".P c #5a8ae3",
".k c #5b88dc",
"#Q c #5e88d5",
".C c #6494ec",
"#J c #658edb",
"#y c #6696ee",
"#D c #6c94e0",
"#R c #6e95dc",
"#h c #6e99e8",
"#i c #749de9",
".G c #799fe5",
".V c #7aa1ea",
"#E c #7ea3e6",
"## c #8cace5",
"#K c #8dace7",
"#L c #8eade8",
"#a c #8fade6",
".T c #90b1ec",
"#b c #92afe6",
".4 c #95b1e6",
".X c #97b3e4",
".2 c #a1bae9",
".3 c #a3bcea",
".s c #a8c2f5",
".W c #b7caee",
".U c #b8ccee",
".w c #b9ccf0",
".K c #c4d4f1",
".O c #cbd9f3",
".L c #cddaf4",
".D c #d4e0f4",
".N c #d9e3f6",
".F c #dce6f6",
".E c #e1e9f8",
".t c #e4ebf8",
".v c #ebf0fa",
".u c #f2f5fb",
".M c #ffffff",
"QtQtQtQtQt.#.a.b.c.d.eQtQtQtQtQt",
"QtQtQt.f.g.h.i.j.k.l.m.n.oQtQtQt",
"QtQt.p.q.r.s.t.u.u.v.w.x.y.zQtQt",
"Qt.A.B.C.D.E.E.E.E.E.E.F.G.H.IQt",
"Qt.J.r.K.L.M.M.L.L.N.M.L.O.P.Q.R",
".S.m.T.U.U.M.M.N.V.M.M.U.W.X.Y.Z",
".0.1.2.3.3.M.M.V.M.M.M.4.5.6.7.8",
".9#.###a#b.M.M.M.M.M.M#c#d.6#e#f",
".c#g#h#i.V.M.M.M.M.M.M#d#d#d#j#k",
".d#l#m#m#m.M.M#d.M.M.M#d#n#o.l#p",
".e.m#q#r#r.M.M#d#d.M.M#s#t#q#u#v",
"Qt#w#x#y#y.M.M#y#y#y.M#y#y#x#z#A",
"Qt#B#C#D#E#E#E#E#E#E#E#E#D#F#G.R",
"QtQt#H#I#J#K#L#L#L#L#K#J#M#N#OQt",
"QtQtQt.I.Q#P#Q#R#R#Q#S#z#G#OQtQt",
"QtQtQtQt.R.Z.8#f#k#p#v#A.RQtQtQt"};
