/* XPM */
static const char *stop[]={
"24 24 129 2",
"Qt c None",
".t c #000000",
"#M c #5c2920",
".e c #5e2921",
".f c #5e2a21",
".s c #66342c",
".d c #682720",
".c c #73241f",
".b c #7d221e",
".a c #881f1d",
".k c #89605f",
"#X c #901616",
"#7 c #901717",
".Z c #911a1a",
".# c #921c1c",
".g c #931d1d",
"#L c #a00e0b",
"#C c #a1100d",
".6 c #a1110e",
"#c c #a1120f",
".Q c #adadad",
"#O c #b04e44",
".N c #b30f0f",
".Y c #b41212",
".r c #b4594f",
".C c #b51515",
"#8 c #b51717",
"#K c #bc140f",
"#W c #bc1510",
"#B c #bc1611",
".5 c #bd1813",
"#b c #bd1914",
"#6 c #c03122",
"#J c #c03223",
"#5 c #c21a1a",
".X c #c23728",
"#x c #c25951",
"#4 c #c44032",
".M c #c54d44",
".K c #c5655d",
"a. c #c63935",
"#o c #c65148",
"#A c #c72e2e",
"#9 c #c73c38",
".4 c #c7564a",
"#N c #c77d7d",
"#u c #c83939",
"#V c #c84a3d",
"#z c #c94f42",
"#Y c #c95656",
"#t c #c95a52",
"#w c #c97068",
"#F c #c9726a",
"#a c #ca5b53",
"#E c #ca6865",
"#h c #cb5f57",
"#I c #cb6258",
"#g c #cb6259",
"#3 c #cc4848",
".L c #cc5d5d",
".A c #cc5f59",
"#P c #cc6262",
"#n c #cc675d",
"#v c #cc716e",
"#U c #cd5e52",
"#2 c #cd6055",
".B c #cd6060",
"#Z c #cd6155",
"#G c #cd665f",
"#H c #cd695e",
"#T c #cd6962",
"#0 c #cf6359",
"#Q c #cf6459",
"#1 c #cf685d",
"#m c #cf6f65",
"#s c #cf6f66",
"#R c #cf6f67",
".V c #cf736b",
".U c #cf7b76",
".j c #cfbfbf",
"#S c #d07169",
"## c #d07267",
"#q c #d07871",
".z c #d1706a",
".y c #d1716a",
"#f c #d17469",
".W c #d1746b",
".P c #d1776f",
"#l c #d17771",
"#y c #d17872",
".q c #d17e7e",
".x c #d2736a",
"#r c #d37066",
".9 c #d4766e",
"#j c #d47b74",
".J c #d5786f",
".O c #d57973",
".E c #d57976",
"#d c #d57e77",
".3 c #d58681",
".w c #d67a72",
"#k c #d77b74",
".I c #d77c74",
"#p c #d7837b",
".p c #d88787",
".H c #d97f79",
"#e c #d9807a",
".7 c #d98884",
".v c #dc7d77",
".G c #dc827c",
".o c #dc928b",
".T c #dd8782",
".h c #dd8b8b",
".D c #dd9089",
"#i c #dd938c",
".8 c #de847e",
".F c #df817d",
".1 c #e0817d",
".S c #e08b86",
".n c #e0968f",
"#D c #e0d0d0",
".0 c #e1837e",
".2 c #e69490",
".R c #e7928c",
".m c #e79d95",
".u c #e99f97",
".i c #f8e8e8",
"#. c #fdf9f9",
".l c #ffffff",
"QtQtQtQtQtQtQtQtQtQtQtQtQtQtQtQtQtQtQtQtQtQtQtQt",
"QtQtQtQtQtQtQtQtQtQtQtQtQtQtQtQtQtQtQtQtQtQtQtQt",
"QtQtQtQtQtQtQt.#.a.b.c.d.e.f.f.fQtQtQtQtQtQtQtQt",
"QtQtQtQtQtQt.g.h.i.i.i.i.i.i.j.k.fQtQtQtQtQtQtQt",
"QtQtQtQtQt.g.h.l.m.m.n.o.o.p.q.r.s.tQtQtQtQtQtQt",
"QtQtQtQt.g.h.l.u.v.w.x.y.z.A.B.C.g.f.tQtQtQtQtQt",
"QtQtQt.g.h.l.D.E.F.G.H.I.J.K.L.M.N.#.f.tQtQtQtQt",
"QtQt.#.h.l.u.O.P.Q.R.S.T.U.V.Q.W.X.Y.Z.f.tQtQtQt",
"QtQt.#.i.m.0.1.Q.l.l.2.3.V.Q.l.l.4.5.6.f.tQtQtQt",
"QtQt.#.i.m.7.8.R.l.l.l.9.Q#..l###a#b#c.f.tQtQtQt",
"QtQt.a.i.n#d#e.S.2.l.l.l.l.l#f#g#h#b#c.f.tQtQtQt",
"QtQt.b.i#i#j#k.T.3.9.l.l.l#l#m#n#o#b#c.f.tQtQtQt",
"QtQt.c.i#p#q#r.U.V.Q.l.l.l.l#s#t#u#b.6.f.tQtQtQt",
"QtQt.d.i#v#w#x.V.Q#..l#y.l.l.l#z#A#B#C.f.tQtQtQt",
"QtQt.f#D#E#F#G.Q.l.l#f#H#I.l.l.l#J#K#L.f.tQtQtQt",
"QtQt#M#N#O#P#Q#G.l#R#S#T#U#V.l#b#W#C#X.f.tQtQtQt",
"QtQtQt.f.f.g#Y#Z#0#1#2#3#4#5#6#W#C#7.f.tQtQtQtQt",
"QtQtQtQt.t.f.##8#9a.a.a..5#B#K#C#7.f.tQtQtQtQtQt",
"QtQtQtQtQt.t.f.Z.6#c#c#c.6#C#L#X.f.tQtQtQtQtQtQt",
"QtQtQtQtQtQt.t.f.f.f.f.f.f.f.f.f.tQtQtQtQtQtQtQt",
"QtQtQtQtQtQtQt.t.t.t.t.t.t.t.t.tQtQtQtQtQtQtQtQt",
"QtQtQtQtQtQtQtQtQtQtQtQtQtQtQtQtQtQtQtQtQtQtQtQt",
"QtQtQtQtQtQtQtQtQtQtQtQtQtQtQtQtQtQtQtQtQtQtQtQt",
"QtQtQtQtQtQtQtQtQtQtQtQtQtQtQtQtQtQtQtQtQtQtQtQt"};
