/* XPM */
static const char *test[]={
"16 16 7 1",
". c None",
"# c #000000",
"c c #808080",
"a c #a0a0a0",
"b c #c3c3c3",
"d c #c5c5c5",
"e c #c6c6c6",
"................",
"......####......",
"....##aab.##....",
"..##cabdbb..##..",
"..#caabebb...#..",
"..##cabebbb.##..",
"...###aabb###...",
"....#a####a#....",
".....#baaa#.....",
"......#ba#......",
"......#ba#......",
"......#ba#......",
"......#ba#......",
"......#ba#......",
".......##.......",
"................"};
