/* XPM */
static const char *unselectall[]={
"16 16 129 2",
"Qt c None",
".f c None",
".T c #656565",
".U c #3268cc",
".# c #3269d1",
".e c #3665bd",
".B c #3269d0",
".g c #3269d1",
"#6 c #656565",
"#Q c #3765b9",
".q c #3269d1",
".L c #3e62a5",
"#P c #656565",
".p c #3765b9",
".2 c #486190",
"#Z c #3b65b3",
"#H c #4f6184",
"#Y c #4e6286",
".3 c #3268cc",
".a c #3269cf",
".d c #3268ca",
".A c #3b66b6",
"#5 c #4d648e",
"#b c #3a64b3",
"#c c #3268cc",
".b c #3268cd",
".c c #3268cc",
"#B c #3d64ac",
"#k c #3b66b7",
"#u c #3c66b6",
".h c #3269d2",
".M c #3269cf",
"#I c #3368ca",
".o c #3368ca",
".S c #3467c4",
"#O c #3766be",
".C c #326ad2",
".r c #326ad3",
"#R c #346acc",
"#0 c #356acc",
"#X c #3469cb",
"#4 c #3569ca",
".z c #3269ce",
".K c #3269ce",
".n c #326bd4",
".i c #326cd7",
".1 c #326ad3",
"#7 c #3e71cf",
"#G c #326ad3",
"a. c #3e70cf",
"#a c #3471e3",
".m c #3472e4",
".j c #3472e5",
"#v c #3572e4",
"#j c #3676eb",
"#t c #3776eb",
".4 c #3873e0",
"## c #3b80ff",
"#s c #3c81ff",
"#z c #3d82ff",
"#A c #4083ff",
"#l c #447ce5",
"#w c #4686fc",
"#C c #4887fc",
"#D c #4888fc",
".s c #4980e6",
"#d c #4a7fe2",
"#J c #4a80e4",
".k c #5183e0",
".y c #5789e4",
".R c #5a8ae3",
".l c #5b88dc",
"#8 c #5e88d5",
".D c #6494ec",
"#1 c #658edb",
"#p c #6597f2",
"#M c #6696ee",
"#S c #6c94e0",
"#r c #6da0ff",
"#9 c #6e95dc",
"#m c #6e99e8",
"#F c #73a4fe",
"#n c #749de9",
".J c #799fe5",
"#o c #7aa1ea",
"#V c #7ea3e6",
"#e c #8cace5",
"#i c #8cb0f4",
"#W c #8dace6",
"#2 c #8dace7",
"#3 c #8eade8",
"#L c #8eb1f2",
".V c #90b1ec",
"#g c #92afe6",
".0 c #97b3e4",
"#U c #a0bbec",
".5 c #a1bae9",
"#h c #a1bcee",
".7 c #a3bcea",
".t c #a8c2f5",
".v c #aac1ec",
"#K c #b2caf6",
".W c #b8ccee",
".9 c #b9ccee",
".x c #b9ccf0",
".8 c #bbcdef",
"#T c #c1d2f2",
".N c #c4d4f1",
".Y c #c8d8f2",
".Q c #cbd9f3",
".O c #cddaf4",
"#. c #cedfff",
"#y c #cee0ff",
"#E c #d0e1ff",
"#x c #d2e1fe",
".E c #d4e0f4",
"#q c #d8e4fa",
"#N c #dae6fa",
".I c #dce6f6",
".F c #e1e9f8",
".u c #e4ebf8",
"#f c #e4ebf9",
".6 c #e7edf9",
".X c #ecf1fa",
".Z c #eef3fb",
".P c #f4f7fc",
".H c #f9fafe",
".w c #fafcfe",
".G c #ffffff",
"QtQtQtQtQt.#.a.b.c.d.e.fQtQtQtQt",
"QtQtQt.g.h.i.j.k.l.m.n.o.p.fQtQt",
"QtQt.q.r.s.t.u.v.w.v.x.y.z.A.fQt",
"Qt.B.C.D.E.F.v.G.G.H.v.I.J.K.L.f",
"Qt.M.s.N.O.v.G.G.G.G.P.v.Q.R.S.T",
".U.n.V.W.v.G.G.X.Y.G.G.Z.v.0.1.2",
".3.4.5.v.G.G.6.7.8.9.G.G#.###a#b",
"#c#d#e.v.G#f#g#f.G#h#i.G#.###j#k",
".c#l#m#n#o#p#q.G.G.G#r#s#s#s#t#u",
".d#v#w#w#w#x.G.G#y.G.G#r#z#A.m#B",
".e.n#C#D#E.G.G#r#s#y.G.G#F#C#G#H",
".f#I#J#K.G.G#L#M#M#M#N.G.G#J#O#P",
"Qt#Q#R#S#T#U#V#V#V#V#V#T#W#X#Y.T",
"Qt.f#Z#0#1#2#3#3#3#3#2#1#4#5#6.f",
"QtQt.f.L.S#7#8#9#9#8a.#O#Y#6.fQt",
"QtQtQt.f.T.2#b#k#u#B#H#P.T.fQtQt"};
