/* XPM */
static const char *up[]={
"24 24 102 2",
"Qt c None",
"#F c #000107",
"#J c #020106",
".3 c #02050f",
".a c #030612",
".M c #030614",
"#I c #030916",
".4 c #040304",
".d c #040a19",
".h c #040b1b",
".n c #040c1b",
"#G c #040e1f",
"#H c #050d20",
"#h c #051024",
"## c #061229",
"#E c #070f20",
"#r c #081327",
".# c #0b2a50",
".X c #0d2f5a",
".I c #0d79be",
".z c #0d81c4",
"#D c #0e3463",
"#B c #0f4d82",
".1 c #0f79bc",
".H c #0f80c0",
".m c #0f83c6",
".W c #104373",
".V c #104b7d",
"#C c #104d85",
"#x c #105081",
".c c #105087",
".Q c #105a93",
".U c #105c91",
".L c #1065a1",
"#e c #1075af",
"#q c #11538a",
"#l c #1176b0",
"#o c #1177b2",
".T c #117ab0",
".8 c #117bb8",
"#y c #131e32",
"#g c #13538e",
"#. c #13558c",
"#v c #137bb6",
".S c #1495d1",
".K c #14a3d8",
"#w c #159cd4",
".s c #15a0da",
".J c #168bcf",
".Y c #173458",
".g c #178ac0",
".G c #178fc6",
".y c #1997cc",
".B c #1c89c1",
".u c #1c98cb",
"#p c #20a7d3",
".l c #21acda",
"#i c #223d5f",
"#A c #245689",
".R c #2592ca",
".2 c #26a8d3",
".N c #284169",
"#z c #2b4870",
".P c #2c5383",
".7 c #3195ce",
".0 c #3398cc",
"#a c #344c6d",
".t c #3bbbe0",
".Z c #3e87bf",
"#u c #3f8cc2",
"#f c #42bedd",
".9 c #45bcde",
".O c #475d88",
".A c #47c4e8",
".F c #58add9",
"#t c #63a3d0",
".C c #6e8fb7",
".x c #70bedf",
".b c #738bb2",
".r c #78bde1",
"#n c #7ab4dd",
".i c #7b91b4",
".v c #7f95ba",
".o c #8094b9",
"#d c #81bada",
".e c #829dc1",
".6 c #95cae8",
".5 c #97c4e0",
"#k c #98c6e3",
"#m c #a7d6ee",
".E c #a8c3dd",
".k c #bbd6ea",
"#c c #c3e2f2",
"#j c #cae6f3",
"#s c #cbe4f4",
".q c #dbe9f2",
".f c #dceaf7",
".D c #deeaf7",
".w c #e0ecf3",
"#b c #e3f0f8",
".j c #fcf9fc",
".p c #fcfbfc",
"QtQtQtQtQtQtQtQtQtQtQtQtQtQtQtQtQtQtQtQtQtQtQtQt",
"QtQtQtQtQtQtQtQtQtQtQtQtQtQtQtQtQtQtQtQtQtQtQtQt",
"QtQtQtQtQtQtQtQtQtQtQtQtQtQtQtQtQtQtQtQtQtQtQtQt",
"QtQtQtQtQtQtQtQtQtQtQtQtQtQtQtQtQtQtQtQtQtQtQtQt",
"QtQtQtQtQtQtQtQtQtQtQt.#.aQtQtQtQtQtQtQtQtQtQtQt",
"QtQtQtQtQtQtQtQtQtQt.#.b.c.dQtQtQtQtQtQtQtQtQtQt",
"QtQtQtQtQtQtQtQtQt.#.e.f.g.c.hQtQtQtQtQtQtQtQtQt",
"QtQtQtQtQtQtQtQt.#.i.j.k.l.m.c.nQtQtQtQtQtQtQtQt",
"QtQtQtQtQtQtQt.#.o.p.q.r.s.t.u.c.hQtQtQtQtQtQtQt",
"QtQtQtQtQtQt.#.v.p.w.x.y.z.s.A.B.c.hQtQtQtQtQtQt",
"QtQtQtQtQt.#.C.D.E.F.G.H.I.J.K.t.L.c.MQtQtQtQtQt",
"QtQtQtQt.#.N.O.P.Q.R.H.I.I.S.T.U.V.W.X.aQtQtQtQt",
"QtQtQt.Y.X.X.X.X.X.Z.0.H.1.2.T.X.X.X.X.X.3QtQtQt",
"QtQtQtQtQtQtQtQt.4.5.6.7.8.9#.##QtQtQtQtQtQtQtQt",
"QtQtQtQtQtQtQtQt#a#b#c#d#e#f#g#hQtQtQtQtQtQtQtQt",
"QtQtQtQtQtQtQtQt#i.j#j#k#l.9#g#hQtQtQtQtQtQtQtQt",
"QtQtQtQtQtQtQtQt.#.j#m#n#o#p#q#rQtQtQtQtQtQtQtQt",
"QtQtQtQtQtQtQtQt.##s#t#u#v#w#x#yQtQtQtQtQtQtQtQt",
"QtQtQtQtQtQtQtQt.##z#A#B#C#C#D#EQtQtQtQtQtQtQtQt",
"QtQtQtQtQtQtQtQt#F.d#G#H#G#G#I#JQtQtQtQtQtQtQtQt",
"QtQtQtQtQtQtQtQtQtQtQtQtQtQtQtQtQtQtQtQtQtQtQtQt",
"QtQtQtQtQtQtQtQtQtQtQtQtQtQtQtQtQtQtQtQtQtQtQtQt",
"QtQtQtQtQtQtQtQtQtQtQtQtQtQtQtQtQtQtQtQtQtQtQtQt",
"QtQtQtQtQtQtQtQtQtQtQtQtQtQtQtQtQtQtQtQtQtQtQtQt"};
